<svg xmlns="http://www.w3.org/2000/svg" xmlns:xlink="http://www.w3.org/1999/xlink" width="500" zoomAndPan="magnify" viewBox="0 0 375 374.999991" height="500" preserveAspectRatio="xMidYMid meet" version="1.0"><path fill="#3b98d1" d="M 257.503906 120.167969 C 231.097656 120.167969 209.617188 141.652344 209.617188 168.054688 C 209.617188 172.046875 212.855469 175.28125 216.84375 175.28125 C 220.835938 175.28125 224.074219 172.046875 224.074219 168.054688 C 224.074219 149.621094 239.070312 134.625 257.503906 134.625 C 275.9375 134.625 290.933594 149.621094 290.933594 168.054688 C 290.933594 172.046875 294.171875 175.28125 298.160156 175.28125 C 302.152344 175.28125 305.390625 172.046875 305.390625 168.054688 C 305.390625 141.652344 283.90625 120.167969 257.503906 120.167969 Z M 257.503906 120.167969 " fill-opacity="1" fill-rule="nonzero"/><path fill="#3b98d1" d="M 144.5625 168.054688 C 144.5625 172.046875 147.800781 175.28125 151.792969 175.28125 C 155.78125 175.28125 159.019531 172.046875 159.019531 168.054688 C 159.019531 141.652344 137.539062 120.167969 111.132812 120.167969 C 84.730469 120.167969 63.246094 141.652344 63.246094 168.054688 C 63.246094 172.046875 66.484375 175.28125 70.476562 175.28125 C 74.464844 175.28125 77.703125 172.046875 77.703125 168.054688 C 77.703125 149.621094 92.699219 134.625 111.132812 134.625 C 129.566406 134.625 144.5625 149.621094 144.5625 168.054688 Z M 144.5625 168.054688 " fill-opacity="1" fill-rule="nonzero"/><path fill="#3b98d1" d="M 184.320312 0 C 82.449219 0 0 82.4375 0 184.320312 C 0 286.1875 82.4375 368.636719 184.320312 368.636719 C 286.1875 368.636719 368.636719 286.199219 368.636719 184.320312 C 368.636719 82.449219 286.199219 0 184.320312 0 Z M 184.320312 354.179688 C 90.65625 354.179688 14.457031 277.980469 14.457031 184.320312 C 14.457031 90.65625 90.65625 14.457031 184.320312 14.457031 C 277.980469 14.457031 354.179688 90.65625 354.179688 184.320312 C 354.179688 277.980469 277.980469 354.179688 184.320312 354.179688 Z M 184.320312 354.179688 " fill-opacity="1" fill-rule="nonzero"/><path fill="#3b98d1" d="M 271.054688 220.460938 L 97.582031 220.460938 C 92.941406 220.460938 89.5 224.773438 90.535156 229.296875 C 100.613281 273.390625 140.054688 305.390625 184.320312 305.390625 C 228.582031 305.390625 268.023438 273.390625 278.101562 229.296875 C 278.59375 227.152344 278.078125 224.902344 276.707031 223.183594 C 275.335938 221.460938 273.257812 220.460938 271.054688 220.460938 Z M 271.054688 220.460938 " fill-opacity="1" fill-rule="nonzero"/></svg>