<svg xmlns="http://www.w3.org/2000/svg" xmlns:xlink="http://www.w3.org/1999/xlink" width="500" zoomAndPan="magnify" viewBox="0 0 375 374.999991" height="500" preserveAspectRatio="xMidYMid meet" version="1.0"><defs><clipPath id="67649d9a31"><path d="M 4 10.265625 L 369 10.265625 L 369 347.765625 L 4 347.765625 Z M 4 10.265625 " clip-rule="nonzero"/></clipPath></defs><g clip-path="url(#67649d9a31)"><path fill="#3b98d1" d="M 365.058594 204.996094 C 361.597656 199.214844 347.390625 182.054688 309.882812 203.898438 L 243.753906 242.417969 C 240.4375 244.347656 237.066406 245.710938 233.546875 246.527344 C 234.851562 244.433594 235.871094 242.070312 236.574219 239.453125 C 239.953125 226.832031 232.453125 213.660156 219.5 209.460938 C 219.25 209.378906 218.992188 209.316406 218.730469 209.269531 C 199.722656 205.839844 180.964844 199.058594 165.890625 193.605469 C 160.65625 191.714844 155.710938 189.925781 151.503906 188.5625 C 134.574219 183.070312 119.265625 189.871094 106.527344 197.246094 L 57.328125 225.730469 L 52.6875 217.535156 C 48.449219 210.046875 38.910156 207.402344 31.421875 211.640625 L 12.867188 222.140625 C 5.378906 226.378906 2.734375 235.921875 6.972656 243.40625 L 61.523438 339.796875 C 63.570312 343.414062 66.914062 346.023438 70.9375 347.136719 C 72.332031 347.523438 73.742188 347.714844 75.148438 347.714844 C 77.804688 347.714844 80.421875 347.03125 82.789062 345.691406 L 101.34375 335.191406 C 108.832031 330.953125 111.476562 321.410156 107.238281 313.921875 L 101.617188 303.984375 L 112.832031 297.511719 L 197.53125 320.207031 C 202.316406 321.488281 207.011719 322.128906 211.605469 322.128906 C 220.765625 322.128906 229.523438 319.582031 237.765625 314.507812 L 357.777344 240.609375 C 368.71875 233.875 372.191406 216.898438 365.058594 204.996094 Z M 97.375 322.640625 C 97.097656 323.644531 96.457031 324.472656 95.566406 324.976562 L 77.011719 335.480469 C 75.183594 336.511719 72.769531 335.839844 71.738281 334.015625 L 17.1875 237.628906 C 16.152344 235.804688 16.824219 233.390625 18.648438 232.355469 L 37.203125 221.855469 C 37.785156 221.523438 38.429688 221.367188 39.070312 221.367188 C 40.429688 221.367188 41.773438 222.074219 42.476562 223.316406 L 97.027344 319.703125 C 97.53125 320.59375 97.65625 321.636719 97.375 322.640625 Z M 351.625 230.617188 L 231.613281 304.515625 C 222.09375 310.375 211.652344 311.839844 200.570312 308.871094 L 113.523438 285.546875 C 112.019531 285.140625 110.417969 285.351562 109.070312 286.132812 L 95.835938 293.773438 L 63.109375 235.945312 L 112.410156 207.402344 C 123.441406 201.019531 135.371094 195.667969 147.882812 199.726562 C 151.90625 201.03125 156.539062 202.707031 161.902344 204.644531 C 177.28125 210.203125 196.394531 217.113281 216.226562 220.742188 C 223.136719 223.15625 227 229.832031 225.238281 236.414062 C 222.917969 245.074219 215.703125 246.152344 209.964844 245.492188 C 200.222656 243.488281 190.964844 240.847656 181.171875 238.046875 C 176.527344 236.722656 171.722656 235.347656 166.785156 234.027344 C 163.65625 233.191406 160.4375 235.046875 159.597656 238.175781 C 158.757812 241.308594 160.617188 244.523438 163.746094 245.363281 C 168.59375 246.660156 173.347656 248.019531 177.945312 249.332031 C 188.042969 252.214844 197.574219 254.941406 207.839844 257.039062 C 207.878906 257.046875 207.917969 257.046875 207.953125 257.054688 C 207.996094 257.0625 208.035156 257.074219 208.074219 257.082031 L 216.300781 258.417969 C 228.597656 260.386719 239.511719 258.46875 249.660156 252.558594 L 315.792969 214.039062 C 334.828125 202.953125 349.480469 201.824219 354.992188 211.023438 C 358.789062 217.367188 357.089844 227.253906 351.625 230.617188 Z M 42.585938 240.472656 C 43.117188 244.089844 40.609375 247.453125 36.988281 247.984375 C 33.371094 248.511719 30.007812 246.007812 29.476562 242.386719 C 28.949219 238.765625 31.453125 235.402344 35.074219 234.875 C 38.695312 234.34375 42.058594 236.851562 42.585938 240.472656 Z M 255.722656 205.746094 C 309.621094 205.746094 353.46875 161.894531 353.46875 107.996094 C 353.46875 93.089844 350.035156 78.320312 343.523438 65.019531 C 351.414062 55.691406 358.210938 47.90625 362.644531 43.4375 C 370.191406 35.816406 370.152344 23.46875 362.554688 15.914062 C 358.875 12.257812 354 10.246094 348.820312 10.246094 C 348.792969 10.246094 348.765625 10.246094 348.742188 10.246094 C 343.539062 10.269531 338.660156 12.3125 335.003906 16.007812 C 334.890625 16.117188 334.785156 16.234375 334.683594 16.355469 L 319.722656 34.117188 C 301.953125 18.683594 279.464844 10.25 255.722656 10.25 C 201.820312 10.25 157.972656 54.097656 157.972656 107.996094 C 157.972656 161.894531 201.820312 205.746094 255.722656 205.746094 Z M 343.488281 24.121094 C 344.917969 22.75 346.789062 21.992188 348.785156 21.984375 C 348.796875 21.984375 348.808594 21.984375 348.816406 21.984375 C 350.878906 21.984375 352.816406 22.785156 354.277344 24.238281 C 357.296875 27.238281 357.308594 32.144531 354.304688 35.175781 C 345.171875 44.390625 327.804688 65.40625 309.414062 87.652344 C 291.441406 109.390625 272.855469 131.875 263.839844 140.890625 C 260.816406 143.914062 255.894531 143.914062 252.867188 140.890625 L 212.886719 100.90625 C 211.421875 99.441406 210.613281 97.496094 210.613281 95.421875 C 210.613281 93.347656 211.421875 91.398438 212.886719 89.933594 C 214.351562 88.46875 216.300781 87.664062 218.371094 87.664062 C 220.445312 87.664062 222.394531 88.46875 223.859375 89.933594 L 254.175781 120.25 C 255.335938 121.414062 256.941406 122.042969 258.574219 121.964844 C 260.214844 121.894531 261.753906 121.136719 262.8125 119.882812 Z M 255.722656 21.984375 C 276.667969 21.984375 296.503906 29.445312 312.160156 43.09375 L 257.953125 107.433594 L 232.160156 81.636719 C 228.476562 77.953125 223.582031 75.925781 218.371094 75.925781 C 213.164062 75.925781 208.269531 77.953125 204.585938 81.636719 C 200.90625 85.316406 198.878906 90.214844 198.878906 95.421875 C 198.878906 100.628906 200.90625 105.527344 204.585938 109.207031 L 244.570312 149.191406 C 248.371094 152.988281 253.363281 154.890625 258.355469 154.890625 C 263.347656 154.890625 268.339844 152.988281 272.140625 149.191406 C 281.550781 139.78125 300.3125 117.082031 318.460938 95.128906 C 324.074219 88.335938 329.746094 81.472656 335.15625 74.992188 C 339.46875 85.394531 341.730469 96.648438 341.730469 107.996094 C 341.730469 155.425781 303.148438 194.007812 255.71875 194.007812 C 208.292969 194.007812 169.707031 155.425781 169.707031 107.996094 C 169.707031 60.570312 208.292969 21.984375 255.722656 21.984375 Z M 255.722656 21.984375 " fill-opacity="1" fill-rule="nonzero"/></g></svg>