<svg xmlns="http://www.w3.org/2000/svg" xmlns:xlink="http://www.w3.org/1999/xlink" width="500" zoomAndPan="magnify" viewBox="0 0 375 374.999991" height="500" preserveAspectRatio="xMidYMid meet" version="1.0"><defs><clipPath id="170c0b7a0d"><path d="M 7.007812 72 L 367.757812 72 L 367.757812 303 L 7.007812 303 Z M 7.007812 72 " clip-rule="nonzero"/></clipPath></defs><g clip-path="url(#170c0b7a0d)"><path fill="#3b98d1" d="M 361.140625 168.054688 C 365.5625 163.539062 367.992188 157.5625 367.992188 151.230469 L 367.992188 96.882812 C 367.992188 83.617188 357.195312 72.820312 343.925781 72.820312 L 31.074219 72.820312 C 17.804688 72.820312 7.007812 83.617188 7.007812 96.882812 L 7.007812 151.230469 C 7.007812 157.5625 9.453125 163.53125 13.859375 168.046875 L 27.398438 181.898438 C 30.421875 184.988281 30.421875 190.019531 27.398438 193.105469 L 13.875 206.953125 C 9.453125 211.46875 7.007812 217.445312 7.007812 223.765625 L 7.007812 278.113281 C 7.007812 291.382812 17.804688 302.179688 31.074219 302.179688 L 343.925781 302.179688 C 357.195312 302.179688 367.992188 291.382812 367.992188 278.113281 L 367.992188 223.765625 C 367.992188 217.4375 365.5625 211.46875 361.140625 206.953125 L 347.609375 193.097656 C 344.582031 190.003906 344.582031 184.972656 347.609375 181.890625 Z M 336.136719 204.320312 L 349.679688 218.183594 C 351.144531 219.683594 351.949219 221.671875 351.949219 223.765625 L 351.949219 278.113281 C 351.949219 282.535156 348.363281 286.136719 343.925781 286.136719 L 263.210938 286.136719 L 263.210938 282.125 C 263.210938 277.6875 259.632812 274.101562 255.1875 274.101562 C 250.753906 274.101562 247.167969 277.6875 247.167969 282.125 L 247.167969 286.136719 L 31.074219 286.136719 C 26.652344 286.136719 23.050781 282.535156 23.050781 278.113281 L 23.050781 223.765625 C 23.050781 221.65625 23.871094 219.667969 25.335938 218.160156 L 38.878906 204.304688 C 47.933594 195.03125 47.933594 179.941406 38.878906 170.675781 L 25.335938 156.824219 C 23.871094 155.332031 23.050781 153.34375 23.050781 151.230469 L 23.050781 96.882812 C 23.050781 92.464844 26.652344 88.863281 31.074219 88.863281 L 247.167969 88.863281 L 247.167969 92.875 C 247.167969 97.300781 250.753906 100.894531 255.1875 100.894531 C 259.632812 100.894531 263.210938 97.300781 263.210938 92.875 L 263.210938 88.863281 L 343.925781 88.863281 C 348.363281 88.863281 351.949219 92.464844 351.949219 96.882812 L 351.949219 151.230469 C 351.949219 153.34375 351.144531 155.332031 349.660156 156.839844 L 336.136719 170.695312 C 327.082031 179.957031 327.082031 195.039062 336.136719 204.320312 Z M 336.136719 204.320312 " fill-opacity="1" fill-rule="nonzero"/></g><path fill="#3b98d1" d="M 255.1875 165.960938 C 250.753906 165.960938 247.167969 169.554688 247.167969 173.984375 L 247.167969 201.023438 C 247.167969 205.453125 250.753906 209.046875 255.1875 209.046875 C 259.632812 209.046875 263.210938 205.453125 263.210938 201.023438 L 263.210938 173.984375 C 263.210938 169.5625 259.617188 165.960938 255.1875 165.960938 Z M 255.1875 165.960938 " fill-opacity="1" fill-rule="nonzero"/><path fill="#3b98d1" d="M 255.1875 111.894531 C 250.753906 111.894531 247.167969 115.488281 247.167969 119.914062 L 247.167969 146.957031 C 247.167969 151.386719 250.753906 154.980469 255.1875 154.980469 C 259.632812 154.980469 263.210938 151.386719 263.210938 146.957031 L 263.210938 119.914062 C 263.210938 115.472656 259.617188 111.894531 255.1875 111.894531 Z M 255.1875 111.894531 " fill-opacity="1" fill-rule="nonzero"/><path fill="#3b98d1" d="M 255.1875 220.042969 C 250.753906 220.042969 247.167969 223.628906 247.167969 228.066406 L 247.167969 255.109375 C 247.167969 259.527344 250.753906 263.128906 255.1875 263.128906 C 259.632812 263.128906 263.210938 259.527344 263.210938 255.109375 L 263.210938 228.066406 C 263.210938 223.628906 259.617188 220.042969 255.1875 220.042969 Z M 255.1875 220.042969 " fill-opacity="1" fill-rule="nonzero"/><path fill="#3b98d1" d="M 119.820312 152.105469 C 119.820312 138.308594 108.605469 127.085938 94.796875 127.085938 C 81.007812 127.085938 69.792969 138.308594 69.792969 152.105469 C 69.792969 165.90625 81.007812 177.128906 94.796875 177.128906 C 108.597656 177.136719 119.820312 165.914062 119.820312 152.105469 Z M 85.832031 152.105469 C 85.832031 147.15625 89.855469 143.128906 94.789062 143.128906 C 99.742188 143.128906 103.765625 147.15625 103.765625 152.105469 C 103.765625 157.054688 99.742188 161.082031 94.789062 161.082031 C 89.855469 161.089844 85.832031 157.0625 85.832031 152.105469 Z M 85.832031 152.105469 " fill-opacity="1" fill-rule="nonzero"/><path fill="#3b98d1" d="M 174.511719 135.949219 C 171.175781 133.039062 166.097656 133.398438 163.203125 136.746094 L 81.050781 231.363281 C 78.152344 234.707031 78.515625 239.777344 81.851562 242.683594 C 83.367188 243.996094 85.253906 244.640625 87.113281 244.640625 C 89.351562 244.640625 91.582031 243.699219 93.164062 241.878906 L 175.304688 147.261719 C 178.226562 143.917969 177.867188 138.855469 174.511719 135.949219 Z M 174.511719 135.949219 " fill-opacity="1" fill-rule="nonzero"/><path fill="#3b98d1" d="M 169.699219 192.121094 C 155.910156 192.121094 144.695312 203.34375 144.695312 217.140625 C 144.695312 230.945312 155.910156 242.160156 169.699219 242.160156 C 183.503906 242.160156 194.71875 230.945312 194.71875 217.140625 C 194.71875 203.351562 183.503906 192.121094 169.699219 192.121094 Z M 169.699219 226.109375 C 164.765625 226.109375 160.738281 222.082031 160.738281 217.140625 C 160.738281 212.191406 164.765625 208.164062 169.699219 208.164062 C 174.648438 208.164062 178.675781 212.191406 178.675781 217.140625 C 178.675781 222.089844 174.648438 226.109375 169.699219 226.109375 Z M 169.699219 226.109375 " fill-opacity="1" fill-rule="nonzero"/></svg>