<svg xmlns="http://www.w3.org/2000/svg" xmlns:xlink="http://www.w3.org/1999/xlink" width="500" zoomAndPan="magnify" viewBox="0 0 375 374.999991" height="500" preserveAspectRatio="xMidYMid meet" version="1.0"><defs><clipPath id="3bcc32237d"><path d="M 7.546875 117 L 367.453125 117 L 367.453125 312.886719 L 7.546875 312.886719 Z M 7.546875 117 " clip-rule="nonzero"/></clipPath></defs><g clip-path="url(#3bcc32237d)"><path fill="#3b98d1" d="M 247.089844 138.304688 C 254.949219 140.828125 262.683594 143.863281 270.160156 147.347656 C 303.164062 162.746094 332.335938 185.304688 355.597656 213.359375 C 356.589844 214.539062 356.589844 216.234375 355.597656 217.417969 C 332.335938 245.46875 303.164062 267.996094 270.160156 283.429688 C 262.683594 286.910156 254.949219 289.945312 247.089844 292.472656 C 289.683594 259.5625 297.476562 198.339844 264.566406 155.78125 C 259.519531 149.230469 253.640625 143.351562 247.089844 138.304688 Z M 127.878906 138.304688 C 85.285156 171.246094 77.488281 232.433594 110.398438 274.992188 C 115.449219 281.542969 121.328125 287.421875 127.878906 292.472656 C 119.984375 289.945312 112.253906 286.910156 104.777344 283.429688 C 71.769531 267.996094 42.628906 245.46875 19.367188 217.417969 C 18.378906 216.234375 18.378906 214.539062 19.367188 213.359375 C 42.628906 185.304688 71.769531 162.777344 104.777344 147.347656 C 112.253906 143.863281 119.984375 140.828125 127.878906 138.335938 Z M 186.03125 127.984375 C 233.734375 127.183594 272.972656 165.207031 273.800781 212.878906 C 273.800781 213.710938 273.800781 214.574219 273.800781 215.402344 C 274.410156 263.074219 236.289062 302.25 188.617188 302.886719 C 140.914062 303.496094 101.742188 265.34375 101.132812 217.671875 C 101.132812 216.90625 101.132812 216.136719 101.132812 215.402344 C 100.527344 167.828125 138.484375 128.75 186.03125 127.984375 Z M 195.136719 118.015625 C 162.386719 116.800781 129.792969 123.414062 100.109375 137.28125 C 65.636719 153.417969 35.121094 176.964844 10.835938 206.265625 C 6.460938 211.570312 6.460938 219.238281 10.835938 224.507812 C 35.121094 253.808594 65.636719 277.359375 100.109375 293.492188 C 155.484375 319.375 219.515625 319.375 274.921875 293.492188 C 309.363281 277.359375 339.878906 253.808594 364.160156 224.507812 C 368.539062 219.238281 368.539062 211.570312 364.160156 206.265625 C 339.878906 176.964844 309.363281 153.417969 274.921875 137.28125 C 249.871094 125.585938 222.742188 119.035156 195.136719 118.015625 " fill-opacity="1" fill-rule="nonzero"/></g><path fill="#3b98d1" d="M 220.21875 215.402344 C 220.570312 197.320312 206.253906 182.363281 188.171875 181.980469 C 170.085938 181.597656 155.132812 195.945312 154.75 214.03125 C 154.75 214.476562 154.75 214.925781 154.75 215.402344 C 154.367188 233.457031 168.710938 248.441406 186.796875 248.792969 C 204.882812 249.175781 219.835938 234.828125 220.21875 216.746094 C 220.21875 216.296875 220.21875 215.851562 220.21875 215.402344 " fill-opacity="1" fill-rule="nonzero"/><path fill="#3b98d1" d="M 71.867188 101.910156 L 94.007812 120.378906 C 96.40625 122.296875 99.886719 121.910156 101.804688 119.515625 C 103.65625 117.214844 103.371094 113.828125 101.101562 111.847656 L 78.960938 93.378906 C 76.5625 91.460938 73.078125 91.84375 71.164062 94.242188 C 69.277344 96.574219 69.597656 99.960938 71.867188 101.910156 " fill-opacity="1" fill-rule="nonzero"/><path fill="#3b98d1" d="M 295.976562 93.378906 L 273.800781 111.847656 C 271.46875 113.828125 271.148438 117.34375 273.097656 119.675781 C 275.113281 122.039062 278.59375 122.359375 280.960938 120.378906 L 303.101562 101.910156 C 305.402344 99.898438 305.691406 96.382812 303.644531 94.082031 C 301.695312 91.8125 298.339844 91.527344 295.976562 93.378906 " fill-opacity="1" fill-rule="nonzero"/><path fill="#3b98d1" d="M 181.941406 67.273438 L 181.941406 96.09375 C 182.035156 99.164062 184.625 101.558594 187.691406 101.429688 C 190.597656 101.304688 192.898438 99.003906 193.027344 96.09375 L 193.027344 67.273438 C 192.898438 64.207031 190.34375 61.808594 187.242188 61.9375 C 184.367188 62.066406 182.035156 64.367188 181.941406 67.273438 " fill-opacity="1" fill-rule="nonzero"/></svg>