<svg xmlns="http://www.w3.org/2000/svg" xmlns:xlink="http://www.w3.org/1999/xlink" width="500" zoomAndPan="magnify" viewBox="0 0 375 374.999991" height="500" preserveAspectRatio="xMidYMid meet" version="1.0"><path fill="#3b98d1" d="M 289.402344 304.625 C 229.535156 356.84375 140.574219 355.253906 82.476562 300.894531 C 29.300781 251.140625 18.546875 172.425781 54.171875 110.988281 L 57.496094 125.160156 C 58.40625 129.035156 61.851562 131.648438 65.667969 131.648438 C 66.300781 131.648438 66.949219 131.570312 67.589844 131.425781 C 72.105469 130.363281 74.910156 125.847656 73.847656 121.332031 L 66.085938 88.222656 C 66.054688 88.09375 65.988281 87.976562 65.957031 87.84375 C 65.871094 87.558594 65.777344 87.277344 65.664062 87 C 65.5625 86.757812 65.464844 86.523438 65.34375 86.300781 C 65.214844 86.042969 65.066406 85.796875 64.90625 85.554688 C 64.769531 85.339844 64.617188 85.132812 64.460938 84.933594 C 64.28125 84.707031 64.082031 84.488281 63.875 84.28125 C 63.691406 84.09375 63.507812 83.925781 63.3125 83.757812 C 63.195312 83.660156 63.097656 83.535156 62.96875 83.441406 C 62.851562 83.347656 62.71875 83.296875 62.59375 83.210938 C 62.390625 83.078125 62.1875 82.953125 61.972656 82.835938 C 61.699219 82.679688 61.421875 82.539062 61.136719 82.425781 C 60.929688 82.335938 60.714844 82.261719 60.5 82.191406 C 60.203125 82.09375 59.90625 82.007812 59.597656 81.941406 C 59.371094 81.898438 59.132812 81.867188 58.902344 81.84375 C 58.597656 81.804688 58.300781 81.78125 57.996094 81.777344 C 57.753906 81.777344 57.515625 81.789062 57.269531 81.808594 C 56.960938 81.832031 56.65625 81.867188 56.355469 81.921875 C 56.234375 81.941406 56.121094 81.941406 56.003906 81.96875 L 22.898438 89.71875 C 18.378906 90.777344 15.578125 95.292969 16.632812 99.8125 C 17.6875 104.328125 22.210938 107.117188 26.722656 106.074219 L 39.332031 103.125 C 0.195312 171.175781 12.203125 258.144531 71.007812 313.175781 C 104.019531 344.054688 146.011719 359.578125 188.054688 359.578125 C 228.042969 359.578125 268.085938 345.527344 300.453125 317.285156 C 303.945312 314.242188 304.304688 308.929688 301.257812 305.441406 C 298.210938 301.9375 292.902344 301.578125 289.402344 304.625 Z M 289.402344 304.625 " fill-opacity="1" fill-rule="nonzero"/><path fill="#3b98d1" d="M 188.0625 304.691406 C 191.15625 304.691406 193.664062 302.1875 193.664062 299.089844 L 193.664062 264.648438 C 225.601562 252.910156 244.847656 234.5625 250.808594 210.042969 C 265.375 150.195312 195.097656 76.164062 192.105469 73.042969 C 192.089844 73.03125 192.074219 73.027344 192.054688 73.011719 C 192.03125 72.984375 192 72.960938 191.96875 72.929688 C 191.957031 72.917969 191.957031 72.902344 191.941406 72.886719 C 191.761719 72.71875 191.535156 72.652344 191.339844 72.503906 C 191.140625 72.363281 190.941406 72.214844 190.730469 72.097656 C 190.558594 72.003906 190.425781 71.847656 190.25 71.78125 C 190.21875 71.765625 190.179688 71.765625 190.140625 71.75 C 189.835938 71.628906 189.5 71.613281 189.175781 71.546875 C 188.820312 71.472656 188.476562 71.347656 188.117188 71.34375 C 188.097656 71.34375 188.082031 71.335938 188.0625 71.335938 C 188.042969 71.335938 188.027344 71.34375 188 71.34375 C 187.6875 71.347656 187.386719 71.46875 187.074219 71.523438 C 186.699219 71.589844 186.332031 71.609375 185.976562 71.75 C 185.941406 71.765625 185.898438 71.765625 185.867188 71.78125 C 185.71875 71.84375 185.609375 71.972656 185.46875 72.050781 C 185.242188 72.167969 185.046875 72.324219 184.839844 72.472656 C 184.625 72.625 184.375 72.703125 184.179688 72.886719 C 184.167969 72.902344 184.160156 72.921875 184.148438 72.9375 C 184.125 72.964844 184.09375 72.988281 184.066406 73.015625 C 184.054688 73.03125 184.035156 73.035156 184.019531 73.050781 C 181.023438 76.167969 110.75 150.199219 125.308594 210.046875 C 131.277344 234.574219 150.527344 252.921875 182.457031 264.65625 L 182.457031 299.09375 C 182.46875 302.1875 184.972656 304.691406 188.0625 304.691406 Z M 239.929688 207.390625 C 235.136719 227.082031 219.503906 242.214844 193.664062 252.589844 L 193.664062 231.671875 L 223.683594 201.652344 C 225.871094 199.464844 225.871094 195.921875 223.683594 193.730469 C 221.496094 191.542969 217.953125 191.542969 215.765625 193.730469 L 193.664062 215.832031 L 193.664062 172.832031 L 210.777344 155.710938 C 212.964844 153.523438 212.964844 149.980469 210.777344 147.792969 C 208.589844 145.605469 205.046875 145.605469 202.859375 147.792969 L 193.664062 156.992188 L 193.664062 91.808594 C 212.160156 114.101562 250 166.019531 239.929688 207.390625 Z M 136.199219 207.40625 C 126.132812 166.078125 163.964844 114.125 182.460938 91.8125 L 182.460938 145.929688 L 173.265625 136.734375 C 171.078125 134.546875 167.539062 134.546875 165.351562 136.734375 C 163.164062 138.921875 163.164062 142.460938 165.351562 144.648438 L 182.460938 161.761719 L 182.460938 204.769531 L 160.363281 182.671875 C 158.175781 180.484375 154.636719 180.484375 152.449219 182.671875 C 150.261719 184.859375 150.261719 188.398438 152.449219 190.585938 L 182.460938 220.601562 L 182.460938 252.589844 C 156.628906 242.226562 140.996094 227.09375 136.199219 207.40625 Z M 136.199219 207.40625 " fill-opacity="1" fill-rule="nonzero"/><path fill="#3b98d1" d="M 361.109375 274.082031 C 360.042969 269.5625 355.535156 266.78125 351.011719 267.816406 L 337.90625 270.886719 C 375.34375 203.238281 362.792969 117.148438 304.984375 63.074219 C 241.992188 4.125 144.601562 1.296875 78.453125 56.488281 C 74.890625 59.457031 74.40625 64.753906 77.382812 68.3125 C 80.355469 71.875 85.652344 72.359375 89.214844 69.382812 C 148.867188 19.621094 236.691406 22.179688 293.519531 75.339844 C 345.5 123.972656 356.804688 201.257812 323.394531 262.191406 L 320.230469 248.710938 C 319.175781 244.199219 314.664062 241.378906 310.136719 242.457031 C 305.621094 243.519531 302.820312 248.035156 303.882812 252.550781 L 311.652344 285.65625 C 311.671875 285.734375 311.726562 285.796875 311.742188 285.871094 C 311.964844 286.691406 312.277344 287.492188 312.746094 288.21875 C 312.796875 288.308594 312.871094 288.378906 312.929688 288.46875 C 313.355469 289.085938 313.867188 289.65625 314.472656 290.15625 C 314.574219 290.242188 314.648438 290.328125 314.75 290.402344 C 314.804688 290.445312 314.847656 290.492188 314.890625 290.53125 C 315.304688 290.824219 315.765625 290.984375 316.210938 291.203125 C 316.53125 291.355469 316.824219 291.566406 317.160156 291.6875 C 318.03125 291.980469 318.925781 292.140625 319.820312 292.140625 C 320.453125 292.140625 321.09375 292.070312 321.738281 291.921875 L 354.839844 284.171875 C 359.355469 283.109375 362.160156 278.59375 361.109375 274.082031 Z M 361.109375 274.082031 " fill-opacity="1" fill-rule="nonzero"/></svg>