<svg xmlns="http://www.w3.org/2000/svg" xmlns:xlink="http://www.w3.org/1999/xlink" width="500" zoomAndPan="magnify" viewBox="0 0 375 374.999991" height="500" preserveAspectRatio="xMidYMid meet" version="1.0"><defs><clipPath id="956f560f02"><path d="M 2 0 L 373.3125 0 L 373.3125 374 L 2 374 Z M 2 0 " clip-rule="nonzero"/></clipPath><clipPath id="79b218e7ed"><path d="M 1.3125 0.75 L 1.3125 374.25 C 1.3125 374.664062 1.648438 375 2.0625 375 L 372.28125 375 C 372.695312 375 373.03125 374.664062 373.03125 374.25 L 373.03125 0.75 C 373.03125 0.550781 372.953125 0.359375 372.8125 0.21875 C 372.671875 0.078125 372.480469 0 372.28125 0 L 2.0625 0 C 1.648438 0 1.3125 0.335938 1.3125 0.75 Z M 1.3125 0.75 " clip-rule="nonzero"/></clipPath></defs><g clip-path="url(#956f560f02)"><g clip-path="url(#79b218e7ed)"><path fill="#3b98d1" d="M 192.757812 0.398438 L 203.636719 27.015625 L 232.3125 29.136719 L 210.359375 47.707031 L 217.203125 75.636719 L 192.757812 60.492188 L 168.3125 75.636719 L 175.15625 47.707031 L 153.203125 29.136719 L 181.878906 27.015625 Z M 33.988281 269.414062 L 80.726562 351.996094 C 82.984375 355.988281 81.566406 361.105469 77.574219 363.363281 L 61.675781 372.359375 C 57.683594 374.621094 52.566406 373.203125 50.308594 369.210938 L 3.570312 286.628906 C 1.3125 282.636719 2.730469 277.519531 6.722656 275.257812 L 22.621094 266.261719 C 26.613281 264.003906 31.730469 265.421875 33.988281 269.414062 Z M 23.273438 281.792969 C 20.171875 282.246094 18.023438 285.128906 18.476562 288.230469 C 18.929688 291.332031 21.8125 293.476562 24.914062 293.023438 C 28.015625 292.570312 30.164062 289.691406 29.710938 286.589844 C 29.253906 283.484375 26.371094 281.339844 23.273438 281.792969 Z M 180.167969 293.117188 C 187.171875 293.972656 192.9375 291.828125 194.882812 284.558594 C 196.640625 278 192.5 271.839844 186.316406 269.683594 C 166.78125 266.101562 147.84375 259.253906 132.949219 253.871094 C 111.503906 246.117188 105.855469 244.304688 84.703125 256.550781 L 51.785156 275.613281 L 83.875 332.3125 C 84.484375 332.292969 85.097656 332.34375 85.6875 332.503906 L 171.195312 355.414062 C 181.855469 358.269531 191.921875 356.984375 201.347656 351.183594 C 240.65625 327.019531 279.945312 302.808594 319.238281 278.613281 C 322.972656 276.3125 324.8125 270.992188 324.273438 265.792969 C 323.835938 261.539062 321.734375 257.664062 317.828125 255.6875 C 311.65625 252.558594 300.96875 253.476562 284.476562 263.082031 L 219.511719 300.917969 C 209.175781 306.9375 198.21875 308.59375 186.476562 306.714844 C 168.746094 303.730469 152.101562 298.527344 134.804688 293.894531 C 131.492188 293.007812 129.523438 289.605469 130.410156 286.292969 C 131.292969 282.980469 134.695312 281.011719 138.011719 281.898438 C 152.039062 285.652344 165.945312 290.171875 180.167969 293.117188 Z M 268.941406 162.234375 L 205.125 239.570312 L 226.398438 162.234375 Z M 180.050781 239.15625 L 116.578125 162.234375 L 158.894531 162.234375 Z M 171.738281 162.234375 L 192.644531 238.25 L 213.554688 162.234375 Z M 114.867188 149.800781 L 135.007812 113.1875 L 155.152344 149.800781 Z M 145.632812 106.746094 L 165.65625 143.140625 L 185.675781 106.746094 Z M 199.84375 106.746094 L 239.882812 106.746094 L 219.863281 143.140625 Z M 250.507812 113.1875 L 230.367188 149.800781 L 270.648438 149.800781 Z M 209.359375 149.800781 L 176.160156 149.800781 L 192.757812 119.625 Z M 373.011719 180.652344 L 346.394531 191.53125 L 344.273438 220.207031 L 325.703125 198.253906 L 297.777344 205.097656 L 312.917969 180.652344 L 297.777344 156.207031 L 325.703125 163.050781 L 344.273438 141.097656 L 346.394531 169.773438 Z M 320.21875 53.191406 L 309.085938 79.707031 L 327.867188 101.484375 L 299.210938 99.089844 L 284.304688 123.679688 L 277.722656 95.6875 L 249.730469 89.109375 L 274.320312 74.199219 L 271.925781 45.546875 L 293.703125 64.324219 Z M 12.503906 180.652344 L 39.121094 169.773438 L 41.242188 141.097656 L 59.8125 163.050781 L 87.742188 156.207031 L 72.601562 180.652344 L 87.742188 205.097656 L 59.8125 198.253906 L 41.242188 220.207031 L 39.121094 191.53125 Z M 65.300781 53.191406 L 76.429688 79.707031 L 57.648438 101.484375 L 86.304688 99.089844 L 101.214844 123.679688 L 107.792969 95.6875 L 135.785156 89.109375 L 111.195312 74.199219 L 113.589844 45.542969 L 91.8125 64.324219 Z M 65.300781 53.191406 " fill-opacity="1" fill-rule="evenodd"/></g></g></svg>