<svg xmlns="http://www.w3.org/2000/svg" xmlns:xlink="http://www.w3.org/1999/xlink" width="500" zoomAndPan="magnify" viewBox="0 0 375 374.999991" height="500" preserveAspectRatio="xMidYMid meet" version="1.0"><defs><clipPath id="69c85b2f00"><path d="M 24.691406 0 L 350.191406 0 L 350.191406 354.75 L 24.691406 354.75 Z M 24.691406 0 " clip-rule="nonzero"/></clipPath></defs><g clip-path="url(#69c85b2f00)"><path fill="#3b98d1" d="M 149.027344 108.769531 L 127.121094 74.632812 L 105.207031 108.769531 Z M 208.742188 323.914062 L 208.742188 354.199219 L 314.070312 354.199219 L 314.070312 323.914062 Z M 166.210938 323.914062 L 60.890625 323.914062 L 60.890625 354.199219 L 166.210938 354.199219 Z M 136.652344 280.667969 C 137.265625 289.6875 138.015625 300.71875 139.363281 314.882812 L 86.757812 314.882812 L 86.757812 302.84375 C 86.757812 301.511719 86.175781 300.253906 85.160156 299.394531 C 64.851562 282.195312 43.847656 264.414062 28.898438 243.050781 C 26.007812 238.925781 24.660156 234.65625 24.660156 229.617188 L 24.660156 112.148438 C 24.660156 104.648438 30.761719 98.558594 38.253906 98.558594 C 45.664062 98.558594 51.636719 104.589844 51.851562 112.277344 L 54.292969 198.5625 L 54.300781 198.5625 C 54.300781 198.628906 54.292969 198.695312 54.300781 198.765625 C 54.367188 203.507812 56.28125 207.921875 59.664062 211.207031 L 87.929688 238.59375 C 89.722656 240.332031 92.585938 240.289062 94.316406 238.496094 C 96.058594 236.703125 96.011719 233.839844 94.21875 232.101562 L 65.957031 204.722656 C 64.300781 203.117188 63.367188 200.957031 63.328125 198.628906 C 63.292969 196.300781 64.15625 194.109375 65.710938 192.507812 C 69.179688 189.042969 74.585938 188.929688 77.984375 192.222656 C 90.328125 204.496094 99.898438 213.488281 107.585938 220.699219 C 121.15625 233.441406 127.964844 239.835938 131.40625 246.953125 C 134.839844 254.03125 135.441406 262.933594 136.652344 280.667969 Z M 323.101562 112.269531 L 320.660156 198.554688 C 320.652344 198.621094 320.660156 198.691406 320.660156 198.757812 C 320.585938 203.5 318.679688 207.914062 315.292969 211.199219 L 287.023438 238.585938 C 285.230469 240.324219 282.375 240.28125 280.636719 238.488281 C 278.898438 236.695312 278.941406 233.835938 280.734375 232.09375 L 309.003906 204.707031 C 310.652344 203.101562 311.585938 200.941406 311.625 198.613281 C 311.660156 196.289062 310.796875 194.097656 309.199219 192.4375 C 305.78125 189.019531 300.367188 188.914062 296.925781 192.242188 C 284.628906 204.472656 275.0625 213.457031 267.375 220.6875 C 253.804688 233.425781 246.996094 239.820312 243.546875 246.9375 C 240.121094 254.015625 239.511719 262.917969 238.308594 280.644531 C 237.691406 289.65625 236.9375 300.695312 235.597656 314.863281 L 288.195312 314.863281 L 288.195312 302.820312 C 288.195312 301.488281 288.777344 300.230469 289.792969 299.371094 C 310.101562 282.171875 331.105469 264.394531 346.0625 243.027344 C 348.945312 238.902344 350.292969 234.632812 350.292969 229.59375 L 350.292969 112.148438 C 350.292969 104.648438 344.191406 98.558594 336.699219 98.558594 C 329.296875 98.550781 323.320312 104.582031 323.101562 112.269531 Z M 161.496094 35.738281 L 148.898438 13.914062 C 147.648438 11.753906 144.882812 11.015625 142.722656 12.257812 C 140.5625 13.507812 139.824219 16.273438 141.066406 18.433594 L 153.671875 40.257812 C 154.507812 41.703125 156.023438 42.515625 157.589844 42.515625 C 158.355469 42.515625 159.132812 42.320312 159.839844 41.914062 C 162 40.664062 162.746094 37.898438 161.496094 35.738281 Z M 191.996094 29.992188 L 191.996094 4.789062 C 191.996094 2.296875 189.96875 0.269531 187.476562 0.269531 C 184.984375 0.269531 182.957031 2.296875 182.957031 4.789062 L 182.957031 29.992188 C 182.957031 32.484375 184.984375 34.511719 187.476562 34.511719 C 189.96875 34.511719 191.996094 32.484375 191.996094 29.992188 Z M 221.289062 40.257812 L 233.886719 18.433594 C 235.136719 16.273438 234.390625 13.507812 232.230469 12.257812 C 230.070312 11.015625 227.304688 11.753906 226.0625 13.914062 L 213.457031 35.738281 C 212.214844 37.898438 212.953125 40.664062 215.113281 41.914062 C 215.828125 42.328125 216.605469 42.515625 217.363281 42.515625 C 218.929688 42.515625 220.453125 41.710938 221.289062 40.257812 Z M 267.316406 117.8125 L 197.757812 189.253906 L 220.941406 117.8125 Z M 247.839844 74.632812 L 269.746094 108.769531 L 225.925781 108.769531 Z M 195.746094 70.785156 L 239.574219 70.785156 L 217.660156 104.925781 Z M 157.292969 104.925781 L 135.386719 70.785156 L 179.207031 70.785156 Z M 211.4375 117.8125 L 163.515625 117.8125 L 187.476562 191.648438 Z M 187.476562 74.632812 L 165.5625 108.769531 L 209.390625 108.769531 Z M 154.011719 117.8125 L 107.644531 117.8125 L 177.199219 189.253906 Z M 154.011719 117.8125 " fill-opacity="1" fill-rule="evenodd"/></g></svg>