<svg xmlns="http://www.w3.org/2000/svg" xmlns:xlink="http://www.w3.org/1999/xlink" width="500" zoomAndPan="magnify" viewBox="0 0 375 374.999991" height="500" preserveAspectRatio="xMidYMid meet" version="1.0"><defs><clipPath id="9b8a1bc71c"><path d="M 4.109375 65 L 370.859375 65 L 370.859375 310 L 4.109375 310 Z M 4.109375 65 " clip-rule="nonzero"/></clipPath></defs><g clip-path="url(#9b8a1bc71c)"><path fill="#3b98d1" d="M 41.886719 82.839844 L 229.632812 82.839844 L 229.632812 130.921875 C 229.558594 135.824219 233.492188 139.835938 238.402344 139.835938 C 243.304688 139.835938 247.257812 135.824219 247.171875 130.921875 L 247.171875 82.839844 L 332.5625 82.839844 C 344.183594 82.839844 353.039062 91.585938 353.039062 102.523438 L 353.039062 272.273438 C 353.039062 283.210938 344.183594 291.980469 332.5625 291.980469 L 247.171875 291.980469 L 247.171875 245.109375 C 247.214844 240.179688 243.207031 236.171875 238.277344 236.246094 C 233.449219 236.320312 229.582031 240.273438 229.636719 245.109375 L 229.636719 291.984375 L 41.894531 291.984375 C 30.300781 291.984375 21.433594 283.214844 21.433594 272.277344 L 21.433594 196.15625 L 106.332031 196.15625 C 111.230469 196.25 115.242188 192.316406 115.242188 187.410156 C 115.242188 182.507812 111.230469 178.546875 106.332031 178.640625 L 21.429688 178.640625 L 21.429688 102.527344 C 21.429688 91.585938 30.296875 82.839844 41.886719 82.839844 Z M 41.886719 65.308594 C 21.136719 65.308594 3.898438 81.921875 3.898438 102.523438 L 3.898438 272.273438 C 3.898438 292.871094 21.144531 309.484375 41.886719 309.484375 L 332.5625 309.484375 C 353.332031 309.484375 370.570312 292.871094 370.570312 272.273438 L 370.570312 102.527344 C 370.570312 81.925781 353.324219 65.3125 332.5625 65.3125 L 41.886719 65.3125 Z M 41.886719 65.308594 " fill-opacity="1" fill-rule="nonzero"/></g><path fill="#3b98d1" d="M 299.496094 144.445312 C 300.292969 144.445312 301.074219 144.5 301.816406 144.621094 C 307.828125 145.484375 313.941406 150.492188 317.828125 157.488281 C 321.738281 164.492188 322.804688 172.894531 321.066406 177.992188 C 319.300781 183.058594 316.375 186.496094 305.171875 186.441406 L 256.386719 186.152344 C 263.761719 176.808594 271.078125 167.558594 278.414062 158.238281 C 286.945312 147.417969 293.871094 144.421875 299.496094 144.445312 Z M 177.34375 144.445312 C 182.976562 144.421875 189.878906 147.421875 198.429688 158.242188 C 205.746094 167.5625 213.0625 176.8125 220.433594 186.15625 L 171.671875 186.449219 C 160.441406 186.503906 157.515625 183.070312 155.777344 178 C 154.011719 172.90625 155.082031 164.503906 158.992188 157.496094 C 162.90625 150.496094 168.988281 145.488281 175.003906 144.628906 C 175.753906 144.496094 176.546875 144.445312 177.34375 144.445312 Z M 177.445312 126.964844 C 175.804688 126.929688 174.140625 127.0625 172.515625 127.300781 C 159.472656 129.183594 149.578125 138.335938 143.652344 148.9375 C 137.742188 159.515625 135.234375 172.148438 139.214844 183.714844 C 143.199219 195.257812 155.347656 204.050781 171.765625 203.976562 L 211.351562 203.734375 C 199.804688 214.140625 190.628906 226.089844 184.011719 238.609375 C 178.558594 248.945312 194.066406 257.132812 199.515625 246.796875 C 207.804688 231.097656 220.945312 216.222656 238.40625 205.164062 C 255.886719 216.226562 269.027344 231.101562 277.332031 246.796875 C 279.433594 251.355469 284.941406 253.222656 289.386719 250.855469 C 293.835938 248.503906 295.375 242.90625 292.792969 238.609375 C 286.171875 226.09375 277 214.144531 265.453125 203.734375 L 305.085938 203.976562 C 321.484375 204.050781 333.65625 195.257812 337.640625 183.714844 C 341.621094 172.148438 339.089844 159.515625 333.175781 148.9375 C 327.28125 138.335938 317.351562 129.183594 304.308594 127.300781 C 291.292969 125.386719 276.851562 131.886719 264.652344 147.394531 C 255.910156 158.503906 244.535156 172.917969 238.425781 180.699219 C 232.296875 172.917969 220.945312 158.503906 212.199219 147.394531 C 201.53125 133.84375 189.113281 127.160156 177.449219 126.988281 L 177.449219 126.964844 Z M 177.445312 126.964844 " fill-opacity="1" fill-rule="nonzero"/></svg>