<svg xmlns="http://www.w3.org/2000/svg" xmlns:xlink="http://www.w3.org/1999/xlink" width="1920" zoomAndPan="magnify" viewBox="0 0 1440 809.999993" height="1080" preserveAspectRatio="xMidYMid meet" version="1.0"><defs><g/><clipPath id="c40446bd5f"><path d="M 582.21875 374.136719 L 829.386719 374.136719 L 829.386719 435.214844 L 582.21875 435.214844 Z M 582.21875 374.136719 " clip-rule="nonzero"/></clipPath><clipPath id="20980d3d17"><path d="M 585.253906 374.136719 L 783.445312 374.136719 C 789.289062 374.136719 794.980469 376.015625 799.679688 379.492188 L 826.457031 399.320312 C 828.152344 400.574219 829.152344 402.5625 829.152344 404.675781 C 829.152344 406.785156 828.152344 408.773438 826.457031 410.03125 L 799.679688 429.855469 C 794.980469 433.335938 789.289062 435.214844 783.445312 435.214844 L 585.253906 435.214844 C 583.972656 435.214844 582.835938 434.390625 582.4375 433.175781 C 582.035156 431.957031 582.457031 430.621094 583.488281 429.855469 L 610.265625 410.03125 C 611.964844 408.773438 612.964844 406.785156 612.964844 404.675781 C 612.964844 402.5625 611.964844 400.574219 610.265625 399.320312 L 583.488281 379.492188 C 582.457031 378.730469 582.035156 377.394531 582.4375 376.175781 C 582.835938 374.960938 583.972656 374.136719 585.253906 374.136719 Z M 585.253906 374.136719 " clip-rule="nonzero"/></clipPath><clipPath id="c3fec04c48"><path d="M 582 374.136719 L 830 374.136719 L 830 434.886719 L 582 434.886719 Z M 582 374.136719 " clip-rule="nonzero"/></clipPath><clipPath id="7e017566c8"><path d="M 585.269531 374.136719 L 783.429688 374.136719 C 789.273438 374.136719 794.960938 376.015625 799.660156 379.492188 L 826.433594 399.316406 C 828.128906 400.570312 829.128906 402.558594 829.128906 404.671875 C 829.128906 406.78125 828.128906 408.769531 826.433594 410.023438 L 799.660156 429.847656 C 794.960938 433.328125 789.273438 435.203125 783.429688 435.203125 L 585.269531 435.203125 C 583.988281 435.203125 582.851562 434.382812 582.453125 433.164062 C 582.050781 431.949219 582.472656 430.609375 583.503906 429.847656 L 610.277344 410.023438 C 611.972656 408.769531 612.976562 406.78125 612.976562 404.671875 C 612.976562 402.558594 611.972656 400.570312 610.277344 399.316406 L 583.503906 379.492188 C 582.472656 378.730469 582.050781 377.390625 582.453125 376.175781 C 582.851562 374.957031 583.988281 374.136719 585.269531 374.136719 Z M 585.269531 374.136719 " clip-rule="nonzero"/></clipPath><clipPath id="ecd5e04305"><path d="M 824.496094 374.785156 L 1085.738281 374.785156 L 1085.738281 435.863281 L 824.496094 435.863281 Z M 824.496094 374.785156 " clip-rule="nonzero"/></clipPath><clipPath id="f69b4af613"><path d="M 827.53125 374.785156 L 1039.980469 374.785156 C 1045.824219 374.785156 1051.515625 376.664062 1056.210938 380.144531 L 1082.988281 399.96875 C 1084.6875 401.226562 1085.6875 403.214844 1085.6875 405.324219 C 1085.6875 407.4375 1084.6875 409.425781 1082.988281 410.679688 L 1056.210938 430.507812 C 1051.515625 433.984375 1045.824219 435.863281 1039.980469 435.863281 L 827.53125 435.863281 C 826.25 435.863281 825.113281 435.039062 824.710938 433.824219 C 824.308594 432.605469 824.734375 431.269531 825.761719 430.507812 L 852.539062 410.679688 C 854.238281 409.425781 855.238281 407.4375 855.238281 405.324219 C 855.238281 403.214844 854.238281 401.226562 852.539062 399.96875 L 825.761719 380.144531 C 824.734375 379.378906 824.308594 378.042969 824.710938 376.824219 C 825.113281 375.609375 826.25 374.785156 827.53125 374.785156 Z M 827.53125 374.785156 " clip-rule="nonzero"/></clipPath><clipPath id="756e58b849"><path d="M 349.777344 374.136719 L 597.421875 374.136719 L 597.421875 435.214844 L 349.777344 435.214844 Z M 349.777344 374.136719 " clip-rule="nonzero"/></clipPath><clipPath id="2ad79c6dc7"><path d="M 557.121094 374.136719 L 358.777344 374.136719 C 353.808594 374.136719 349.777344 378.167969 349.777344 383.136719 L 349.777344 426.214844 C 349.777344 431.183594 353.808594 435.214844 358.777344 435.214844 L 557.121094 435.214844 C 562.925781 435.214844 568.539062 433.128906 572.9375 429.335938 L 594.71875 410.550781 C 596.429688 409.078125 597.414062 406.933594 597.414062 404.675781 C 597.414062 402.417969 596.429688 400.273438 594.71875 398.796875 L 572.9375 380.015625 C 568.539062 376.222656 562.925781 374.136719 557.121094 374.136719 Z M 557.121094 374.136719 " clip-rule="nonzero"/></clipPath></defs><g clip-path="url(#c40446bd5f)"><g clip-path="url(#20980d3d17)"><path fill="#ffffff" d="M 576.253906 374.136719 L 833.679688 374.136719 L 833.679688 435.214844 L 576.253906 435.214844 Z M 576.253906 374.136719 " fill-opacity="1" fill-rule="nonzero"/></g></g><g clip-path="url(#c3fec04c48)"><g clip-path="url(#7e017566c8)"><path stroke-linecap="butt" transform="matrix(0.75, 0, 0, 0.75, 576.272017, 374.136973)" fill="none" stroke-linejoin="miter" d="M 11.996687 -0.000339237 L 276.210259 -0.000339237 C 284.001926 -0.000339237 291.58526 2.504869 297.850886 7.140287 L 333.548807 33.572581 C 335.809224 35.244456 337.142557 37.895498 337.142557 40.713207 C 337.142557 43.525707 335.809224 46.176749 333.548807 47.848625 L 297.850886 74.280919 C 291.58526 78.921545 284.001926 81.421545 276.210259 81.421545 L 11.996687 81.421545 C 10.288353 81.421545 8.772728 80.327795 8.241478 78.702795 C 7.70502 77.083003 8.26752 75.296544 9.64252 74.280919 L 45.340441 47.848625 C 47.600857 46.176749 48.939399 43.525707 48.939399 40.713207 C 48.939399 37.895498 47.600857 35.244456 45.340441 33.572581 L 9.64252 7.140287 C 8.26752 6.124661 7.70502 4.338203 8.241478 2.718411 C 8.772728 1.093411 10.288353 -0.000339237 11.996687 -0.000339237 Z M 11.996687 -0.000339237 " stroke="#93c3f6" stroke-width="12" stroke-opacity="1" stroke-miterlimit="4"/></g></g><g clip-path="url(#ecd5e04305)"><g clip-path="url(#f69b4af613)"><path fill="#ffffff" d="M 818.53125 374.785156 L 1090.269531 374.785156 L 1090.269531 435.863281 L 818.53125 435.863281 Z M 818.53125 374.785156 " fill-opacity="1" fill-rule="nonzero"/></g></g><g clip-path="url(#756e58b849)"><g clip-path="url(#2ad79c6dc7)"><path fill="#7ed957" d="M 349.777344 374.136719 L 601.476562 374.136719 L 601.476562 435.214844 L 349.777344 435.214844 Z M 349.777344 374.136719 " fill-opacity="1" fill-rule="nonzero"/></g></g><g fill="#ffffff" fill-opacity="1"><g transform="translate(356.632782, 414.636971)"><g><path d="M 9.859375 0.25 C 8.296875 0.25 6.90625 -0.101562 5.6875 -0.8125 C 4.46875 -1.53125 3.507812 -2.578125 2.8125 -3.953125 C 2.125 -5.335938 1.78125 -6.992188 1.78125 -8.921875 C 1.78125 -10.847656 2.125 -12.5 2.8125 -13.875 C 3.507812 -15.257812 4.46875 -16.3125 5.6875 -17.03125 C 6.90625 -17.75 8.296875 -18.109375 9.859375 -18.109375 C 11.523438 -18.109375 12.910156 -17.789062 14.015625 -17.15625 C 15.128906 -16.53125 15.929688 -15.582031 16.421875 -14.3125 L 15.078125 -13.421875 L 14.765625 -13.421875 C 14.273438 -14.429688 13.640625 -15.148438 12.859375 -15.578125 C 12.078125 -16.003906 11.078125 -16.21875 9.859375 -16.21875 C 8.734375 -16.21875 7.734375 -15.96875 6.859375 -15.46875 C 5.992188 -14.96875 5.304688 -14.175781 4.796875 -13.09375 C 4.285156 -12.007812 4.03125 -10.617188 4.03125 -8.921875 C 4.03125 -7.234375 4.285156 -5.847656 4.796875 -4.765625 C 5.304688 -3.679688 5.992188 -2.890625 6.859375 -2.390625 C 7.734375 -1.890625 8.734375 -1.640625 9.859375 -1.640625 C 11.148438 -1.640625 12.207031 -1.925781 13.03125 -2.5 C 13.851562 -3.082031 14.46875 -4.023438 14.875 -5.328125 L 15.171875 -5.328125 L 16.578125 -4.640625 C 16.148438 -3.054688 15.363281 -1.84375 14.21875 -1 C 13.082031 -0.164062 11.628906 0.25 9.859375 0.25 Z M 9.859375 0.25 "/></g></g></g><g fill="#ffffff" fill-opacity="1"><g transform="translate(374.134929, 414.636971)"><g><path d="M 2.34375 0 L 2.34375 -18.875 L 4.328125 -18.875 L 4.328125 -11.546875 L 4.59375 -11.5 C 5.550781 -12.976562 6.9375 -13.71875 8.75 -13.71875 C 10.375 -13.71875 11.546875 -13.304688 12.265625 -12.484375 C 12.992188 -11.660156 13.359375 -10.390625 13.359375 -8.671875 L 13.359375 0 L 11.375 0 L 11.375 -8.625 C 11.375 -9.4375 11.269531 -10.085938 11.0625 -10.578125 C 10.851562 -11.066406 10.53125 -11.421875 10.09375 -11.640625 C 9.664062 -11.867188 9.097656 -11.984375 8.390625 -11.984375 C 7.171875 -11.984375 6.1875 -11.585938 5.4375 -10.796875 C 4.695312 -10.015625 4.328125 -8.71875 4.328125 -6.90625 L 4.328125 0 Z M 2.34375 0 "/></g></g></g><g fill="#ffffff" fill-opacity="1"><g transform="translate(389.635435, 414.636971)"><g><path d="M 7.734375 0.25 C 6.460938 0.25 5.351562 -0.015625 4.40625 -0.546875 C 3.46875 -1.085938 2.742188 -1.878906 2.234375 -2.921875 C 1.734375 -3.972656 1.484375 -5.238281 1.484375 -6.71875 C 1.484375 -8.207031 1.734375 -9.476562 2.234375 -10.53125 C 2.742188 -11.582031 3.46875 -12.375 4.40625 -12.90625 C 5.351562 -13.445312 6.460938 -13.71875 7.734375 -13.71875 C 8.992188 -13.71875 10.09375 -13.445312 11.03125 -12.90625 C 11.976562 -12.375 12.707031 -11.582031 13.21875 -10.53125 C 13.726562 -9.476562 13.984375 -8.207031 13.984375 -6.71875 C 13.984375 -5.238281 13.726562 -3.972656 13.21875 -2.921875 C 12.707031 -1.878906 11.976562 -1.085938 11.03125 -0.546875 C 10.09375 -0.015625 8.992188 0.25 7.734375 0.25 Z M 7.734375 -1.53125 C 9.066406 -1.53125 10.085938 -1.953125 10.796875 -2.796875 C 11.515625 -3.640625 11.875 -4.945312 11.875 -6.71875 C 11.875 -8.507812 11.515625 -9.828125 10.796875 -10.671875 C 10.085938 -11.515625 9.066406 -11.9375 7.734375 -11.9375 C 6.390625 -11.9375 5.359375 -11.507812 4.640625 -10.65625 C 3.921875 -9.8125 3.5625 -8.5 3.5625 -6.71875 C 3.5625 -4.945312 3.921875 -3.640625 4.640625 -2.796875 C 5.359375 -1.953125 6.390625 -1.53125 7.734375 -1.53125 Z M 7.734375 -1.53125 "/></g></g></g><g fill="#ffffff" fill-opacity="1"><g transform="translate(405.087121, 414.636971)"><g><path d="M 7.734375 0.25 C 6.460938 0.25 5.351562 -0.015625 4.40625 -0.546875 C 3.46875 -1.085938 2.742188 -1.878906 2.234375 -2.921875 C 1.734375 -3.972656 1.484375 -5.238281 1.484375 -6.71875 C 1.484375 -8.207031 1.734375 -9.476562 2.234375 -10.53125 C 2.742188 -11.582031 3.46875 -12.375 4.40625 -12.90625 C 5.351562 -13.445312 6.460938 -13.71875 7.734375 -13.71875 C 8.992188 -13.71875 10.09375 -13.445312 11.03125 -12.90625 C 11.976562 -12.375 12.707031 -11.582031 13.21875 -10.53125 C 13.726562 -9.476562 13.984375 -8.207031 13.984375 -6.71875 C 13.984375 -5.238281 13.726562 -3.972656 13.21875 -2.921875 C 12.707031 -1.878906 11.976562 -1.085938 11.03125 -0.546875 C 10.09375 -0.015625 8.992188 0.25 7.734375 0.25 Z M 7.734375 -1.53125 C 9.066406 -1.53125 10.085938 -1.953125 10.796875 -2.796875 C 11.515625 -3.640625 11.875 -4.945312 11.875 -6.71875 C 11.875 -8.507812 11.515625 -9.828125 10.796875 -10.671875 C 10.085938 -11.515625 9.066406 -11.9375 7.734375 -11.9375 C 6.390625 -11.9375 5.359375 -11.507812 4.640625 -10.65625 C 3.921875 -9.8125 3.5625 -8.5 3.5625 -6.71875 C 3.5625 -4.945312 3.921875 -3.640625 4.640625 -2.796875 C 5.359375 -1.953125 6.390625 -1.53125 7.734375 -1.53125 Z M 7.734375 -1.53125 "/></g></g></g><g fill="#ffffff" fill-opacity="1"><g transform="translate(420.538807, 414.636971)"><g><path d="M 6.140625 0.25 C 5.296875 0.25 4.507812 0.140625 3.78125 -0.078125 C 3.0625 -0.304688 2.453125 -0.613281 1.953125 -1 C 1.460938 -1.394531 1.117188 -1.832031 0.921875 -2.3125 L 2.09375 -3.546875 L 2.34375 -3.546875 C 2.78125 -2.878906 3.304688 -2.375 3.921875 -2.03125 C 4.546875 -1.695312 5.285156 -1.53125 6.140625 -1.53125 C 7.128906 -1.53125 7.882812 -1.722656 8.40625 -2.109375 C 8.925781 -2.492188 9.1875 -3.03125 9.1875 -3.71875 C 9.1875 -4.25 9.023438 -4.6875 8.703125 -5.03125 C 8.390625 -5.375 7.882812 -5.632812 7.1875 -5.8125 L 4.921875 -6.375 C 3.703125 -6.664062 2.8125 -7.128906 2.25 -7.765625 C 1.695312 -8.398438 1.421875 -9.1875 1.421875 -10.125 C 1.421875 -10.851562 1.609375 -11.488281 1.984375 -12.03125 C 2.359375 -12.570312 2.894531 -12.988281 3.59375 -13.28125 C 4.300781 -13.570312 5.140625 -13.71875 6.109375 -13.71875 C 7.347656 -13.71875 8.320312 -13.546875 9.03125 -13.203125 C 9.75 -12.859375 10.304688 -12.375 10.703125 -11.75 L 9.578125 -10.65625 L 9.34375 -10.65625 C 8.90625 -11.15625 8.429688 -11.515625 7.921875 -11.734375 C 7.421875 -11.953125 6.816406 -12.0625 6.109375 -12.0625 C 5.222656 -12.0625 4.546875 -11.898438 4.078125 -11.578125 C 3.609375 -11.265625 3.375 -10.804688 3.375 -10.203125 C 3.375 -9.660156 3.539062 -9.222656 3.875 -8.890625 C 4.207031 -8.554688 4.785156 -8.285156 5.609375 -8.078125 L 7.84375 -7.546875 C 9.019531 -7.265625 9.867188 -6.800781 10.390625 -6.15625 C 10.910156 -5.519531 11.171875 -4.71875 11.171875 -3.75 C 11.171875 -2.957031 10.984375 -2.257812 10.609375 -1.65625 C 10.234375 -1.050781 9.664062 -0.582031 8.90625 -0.25 C 8.15625 0.0820312 7.234375 0.25 6.140625 0.25 Z M 6.140625 0.25 "/></g></g></g><g fill="#ffffff" fill-opacity="1"><g transform="translate(432.988033, 414.636971)"><g><path d="M 12.828125 -6.28125 L 3.578125 -6.28125 C 3.628906 -4.644531 4.019531 -3.441406 4.75 -2.671875 C 5.476562 -1.910156 6.476562 -1.53125 7.75 -1.53125 C 8.707031 -1.53125 9.476562 -1.695312 10.0625 -2.03125 C 10.65625 -2.375 11.117188 -2.914062 11.453125 -3.65625 L 11.703125 -3.65625 L 13 -2.875 C 12.613281 -1.90625 11.988281 -1.140625 11.125 -0.578125 C 10.269531 -0.0234375 9.144531 0.25 7.75 0.25 C 6.445312 0.25 5.328125 -0.00390625 4.390625 -0.515625 C 3.453125 -1.023438 2.734375 -1.800781 2.234375 -2.84375 C 1.734375 -3.882812 1.484375 -5.175781 1.484375 -6.71875 C 1.484375 -8.25 1.75 -9.539062 2.28125 -10.59375 C 2.8125 -11.644531 3.535156 -12.425781 4.453125 -12.9375 C 5.378906 -13.457031 6.4375 -13.71875 7.625 -13.71875 C 9.351562 -13.71875 10.703125 -13.226562 11.671875 -12.25 C 12.640625 -11.28125 13.128906 -9.84375 13.140625 -7.9375 C 13.140625 -7.1875 13.125 -6.679688 13.09375 -6.421875 Z M 11.171875 -7.9375 C 11.140625 -9.363281 10.820312 -10.398438 10.21875 -11.046875 C 9.613281 -11.703125 8.75 -12.03125 7.625 -12.03125 C 6.445312 -12.03125 5.519531 -11.703125 4.84375 -11.046875 C 4.175781 -10.398438 3.769531 -9.363281 3.625 -7.9375 Z M 11.171875 -7.9375 "/></g></g></g><g fill="#ffffff" fill-opacity="1"><g transform="translate(447.341258, 414.636971)"><g/></g></g><g fill="#ffffff" fill-opacity="1"><g transform="translate(453.46823, 414.636971)"><g><path d="M 6.984375 0.25 C 5.898438 0.25 4.941406 -0.00390625 4.109375 -0.515625 C 3.285156 -1.035156 2.640625 -1.816406 2.171875 -2.859375 C 1.710938 -3.898438 1.484375 -5.1875 1.484375 -6.71875 C 1.484375 -8.257812 1.722656 -9.550781 2.203125 -10.59375 C 2.691406 -11.644531 3.363281 -12.425781 4.21875 -12.9375 C 5.082031 -13.457031 6.082031 -13.71875 7.21875 -13.71875 C 8.113281 -13.71875 8.914062 -13.546875 9.625 -13.203125 C 10.34375 -12.867188 10.957031 -12.316406 11.46875 -11.546875 L 11.734375 -11.59375 L 11.734375 -18.875 L 13.71875 -18.875 L 13.71875 0 L 11.734375 0 L 11.734375 -1.96875 L 11.46875 -2.015625 C 11.03125 -1.347656 10.4375 -0.800781 9.6875 -0.375 C 8.9375 0.0390625 8.035156 0.25 6.984375 0.25 Z M 7.609375 -1.53125 C 8.859375 -1.53125 9.859375 -1.957031 10.609375 -2.8125 C 11.359375 -3.675781 11.734375 -4.976562 11.734375 -6.71875 C 11.734375 -8.476562 11.359375 -9.785156 10.609375 -10.640625 C 9.859375 -11.503906 8.859375 -11.9375 7.609375 -11.9375 C 6.316406 -11.9375 5.316406 -11.515625 4.609375 -10.671875 C 3.910156 -9.835938 3.5625 -8.519531 3.5625 -6.71875 C 3.5625 -3.257812 4.910156 -1.53125 7.609375 -1.53125 Z M 7.609375 -1.53125 "/></g></g></g><g fill="#ffffff" fill-opacity="1"><g transform="translate(469.542383, 414.636971)"><g><path d="M 7.734375 0.25 C 6.460938 0.25 5.351562 -0.015625 4.40625 -0.546875 C 3.46875 -1.085938 2.742188 -1.878906 2.234375 -2.921875 C 1.734375 -3.972656 1.484375 -5.238281 1.484375 -6.71875 C 1.484375 -8.207031 1.734375 -9.476562 2.234375 -10.53125 C 2.742188 -11.582031 3.46875 -12.375 4.40625 -12.90625 C 5.351562 -13.445312 6.460938 -13.71875 7.734375 -13.71875 C 8.992188 -13.71875 10.09375 -13.445312 11.03125 -12.90625 C 11.976562 -12.375 12.707031 -11.582031 13.21875 -10.53125 C 13.726562 -9.476562 13.984375 -8.207031 13.984375 -6.71875 C 13.984375 -5.238281 13.726562 -3.972656 13.21875 -2.921875 C 12.707031 -1.878906 11.976562 -1.085938 11.03125 -0.546875 C 10.09375 -0.015625 8.992188 0.25 7.734375 0.25 Z M 7.734375 -1.53125 C 9.066406 -1.53125 10.085938 -1.953125 10.796875 -2.796875 C 11.515625 -3.640625 11.875 -4.945312 11.875 -6.71875 C 11.875 -8.507812 11.515625 -9.828125 10.796875 -10.671875 C 10.085938 -11.515625 9.066406 -11.9375 7.734375 -11.9375 C 6.390625 -11.9375 5.359375 -11.507812 4.640625 -10.65625 C 3.921875 -9.8125 3.5625 -8.5 3.5625 -6.71875 C 3.5625 -4.945312 3.921875 -3.640625 4.640625 -2.796875 C 5.359375 -1.953125 6.390625 -1.53125 7.734375 -1.53125 Z M 7.734375 -1.53125 "/></g></g></g><g fill="#ffffff" fill-opacity="1"><g transform="translate(484.994068, 414.636971)"><g><path d="M 2.34375 0 L 2.34375 -13.46875 L 4.234375 -13.46875 L 4.234375 -11.359375 L 4.5 -11.296875 C 4.9375 -12.078125 5.503906 -12.675781 6.203125 -13.09375 C 6.898438 -13.507812 7.75 -13.71875 8.75 -13.71875 C 10.375 -13.71875 11.546875 -13.304688 12.265625 -12.484375 C 12.992188 -11.660156 13.359375 -10.390625 13.359375 -8.671875 L 13.359375 0 L 11.375 0 L 11.375 -8.625 C 11.375 -9.4375 11.269531 -10.085938 11.0625 -10.578125 C 10.851562 -11.066406 10.53125 -11.421875 10.09375 -11.640625 C 9.664062 -11.867188 9.097656 -11.984375 8.390625 -11.984375 C 7.171875 -11.984375 6.1875 -11.582031 5.4375 -10.78125 C 4.695312 -9.976562 4.328125 -8.6875 4.328125 -6.90625 L 4.328125 0 Z M 2.34375 0 "/></g></g></g><g fill="#ffffff" fill-opacity="1"><g transform="translate(500.494575, 414.636971)"><g><path d="M 5.546875 0.25 C 4.222656 0.25 3.1875 -0.09375 2.4375 -0.78125 C 1.695312 -1.46875 1.328125 -2.457031 1.328125 -3.75 C 1.328125 -4.539062 1.488281 -5.210938 1.8125 -5.765625 C 2.144531 -6.316406 2.65625 -6.765625 3.34375 -7.109375 C 4.039062 -7.453125 4.945312 -7.71875 6.0625 -7.90625 C 7.039062 -8.070312 7.785156 -8.253906 8.296875 -8.453125 C 8.804688 -8.660156 9.144531 -8.890625 9.3125 -9.140625 C 9.488281 -9.390625 9.578125 -9.707031 9.578125 -10.09375 C 9.578125 -10.707031 9.367188 -11.175781 8.953125 -11.5 C 8.535156 -11.820312 7.863281 -11.984375 6.9375 -11.984375 C 6.0625 -11.984375 5.3125 -11.8125 4.6875 -11.46875 C 4.070312 -11.132812 3.503906 -10.632812 2.984375 -9.96875 L 2.734375 -9.96875 L 1.765625 -11.359375 C 2.328125 -12.078125 3.046875 -12.648438 3.921875 -13.078125 C 4.804688 -13.503906 5.8125 -13.71875 6.9375 -13.71875 C 8.519531 -13.71875 9.6875 -13.367188 10.4375 -12.671875 C 11.195312 -11.984375 11.578125 -11.023438 11.578125 -9.796875 L 11.578125 -2.65625 C 11.578125 -1.90625 11.894531 -1.53125 12.53125 -1.53125 C 12.738281 -1.53125 12.941406 -1.566406 13.140625 -1.640625 L 13.3125 -1.59375 L 13.53125 -0.203125 C 13.382812 -0.109375 13.191406 -0.0351562 12.953125 0.015625 C 12.710938 0.0664062 12.46875 0.09375 12.21875 0.09375 C 11.476562 0.09375 10.914062 -0.0664062 10.53125 -0.390625 C 10.15625 -0.710938 9.914062 -1.191406 9.8125 -1.828125 L 9.5625 -1.859375 C 9.175781 -1.148438 8.65625 -0.617188 8 -0.265625 C 7.351562 0.078125 6.535156 0.25 5.546875 0.25 Z M 6 -1.328125 C 6.738281 -1.328125 7.382812 -1.5 7.9375 -1.84375 C 8.488281 -2.195312 8.910156 -2.6875 9.203125 -3.3125 C 9.492188 -3.9375 9.640625 -4.660156 9.640625 -5.484375 L 9.640625 -7.1875 L 9.40625 -7.234375 C 9.101562 -7.023438 8.738281 -6.847656 8.3125 -6.703125 C 7.882812 -6.566406 7.28125 -6.441406 6.5 -6.328125 C 5.71875 -6.222656 5.097656 -6.054688 4.640625 -5.828125 C 4.179688 -5.609375 3.851562 -5.332031 3.65625 -5 C 3.46875 -4.664062 3.375 -4.25 3.375 -3.75 C 3.375 -2.957031 3.601562 -2.351562 4.0625 -1.9375 C 4.53125 -1.53125 5.175781 -1.328125 6 -1.328125 Z M 6 -1.328125 "/></g></g></g><g fill="#ffffff" fill-opacity="1"><g transform="translate(514.420626, 414.636971)"><g><path d="M 9.109375 -2.140625 L 9.734375 -0.703125 C 9.421875 -0.390625 9.003906 -0.15625 8.484375 0 C 7.972656 0.164062 7.414062 0.25 6.8125 0.25 C 4.238281 0.25 2.953125 -1.050781 2.953125 -3.65625 L 2.953125 -11.84375 L 0.609375 -11.84375 L 0.609375 -13.484375 L 2.953125 -13.484375 L 2.953125 -16.328125 L 4.9375 -16.65625 L 4.9375 -13.484375 L 9.28125 -13.484375 L 9.28125 -11.84375 L 4.9375 -11.84375 L 4.9375 -3.84375 C 4.9375 -2.300781 5.609375 -1.53125 6.953125 -1.53125 C 7.691406 -1.53125 8.320312 -1.734375 8.84375 -2.140625 Z M 9.109375 -2.140625 "/></g></g></g><g fill="#ffffff" fill-opacity="1"><g transform="translate(524.67293, 414.636971)"><g><path d="M 3.34375 -16.0625 C 2.914062 -16.0625 2.570312 -16.191406 2.3125 -16.453125 C 2.050781 -16.722656 1.921875 -17.0625 1.921875 -17.46875 C 1.921875 -17.875 2.050781 -18.207031 2.3125 -18.46875 C 2.570312 -18.738281 2.914062 -18.875 3.34375 -18.875 C 3.769531 -18.875 4.113281 -18.738281 4.375 -18.46875 C 4.632812 -18.207031 4.765625 -17.875 4.765625 -17.46875 C 4.765625 -17.0625 4.632812 -16.722656 4.375 -16.453125 C 4.113281 -16.191406 3.769531 -16.0625 3.34375 -16.0625 Z M 2.34375 0 L 2.34375 -13.46875 L 4.328125 -13.46875 L 4.328125 0 Z M 2.34375 0 "/></g></g></g><g fill="#ffffff" fill-opacity="1"><g transform="translate(531.349138, 414.636971)"><g><path d="M 7.734375 0.25 C 6.460938 0.25 5.351562 -0.015625 4.40625 -0.546875 C 3.46875 -1.085938 2.742188 -1.878906 2.234375 -2.921875 C 1.734375 -3.972656 1.484375 -5.238281 1.484375 -6.71875 C 1.484375 -8.207031 1.734375 -9.476562 2.234375 -10.53125 C 2.742188 -11.582031 3.46875 -12.375 4.40625 -12.90625 C 5.351562 -13.445312 6.460938 -13.71875 7.734375 -13.71875 C 8.992188 -13.71875 10.09375 -13.445312 11.03125 -12.90625 C 11.976562 -12.375 12.707031 -11.582031 13.21875 -10.53125 C 13.726562 -9.476562 13.984375 -8.207031 13.984375 -6.71875 C 13.984375 -5.238281 13.726562 -3.972656 13.21875 -2.921875 C 12.707031 -1.878906 11.976562 -1.085938 11.03125 -0.546875 C 10.09375 -0.015625 8.992188 0.25 7.734375 0.25 Z M 7.734375 -1.53125 C 9.066406 -1.53125 10.085938 -1.953125 10.796875 -2.796875 C 11.515625 -3.640625 11.875 -4.945312 11.875 -6.71875 C 11.875 -8.507812 11.515625 -9.828125 10.796875 -10.671875 C 10.085938 -11.515625 9.066406 -11.9375 7.734375 -11.9375 C 6.390625 -11.9375 5.359375 -11.507812 4.640625 -10.65625 C 3.921875 -9.8125 3.5625 -8.5 3.5625 -6.71875 C 3.5625 -4.945312 3.921875 -3.640625 4.640625 -2.796875 C 5.359375 -1.953125 6.390625 -1.53125 7.734375 -1.53125 Z M 7.734375 -1.53125 "/></g></g></g><g fill="#ffffff" fill-opacity="1"><g transform="translate(546.800824, 414.636971)"><g><path d="M 2.34375 0 L 2.34375 -13.46875 L 4.234375 -13.46875 L 4.234375 -11.359375 L 4.5 -11.296875 C 4.9375 -12.078125 5.503906 -12.675781 6.203125 -13.09375 C 6.898438 -13.507812 7.75 -13.71875 8.75 -13.71875 C 10.375 -13.71875 11.546875 -13.304688 12.265625 -12.484375 C 12.992188 -11.660156 13.359375 -10.390625 13.359375 -8.671875 L 13.359375 0 L 11.375 0 L 11.375 -8.625 C 11.375 -9.4375 11.269531 -10.085938 11.0625 -10.578125 C 10.851562 -11.066406 10.53125 -11.421875 10.09375 -11.640625 C 9.664062 -11.867188 9.097656 -11.984375 8.390625 -11.984375 C 7.171875 -11.984375 6.1875 -11.582031 5.4375 -10.78125 C 4.695312 -9.976562 4.328125 -8.6875 4.328125 -6.90625 L 4.328125 0 Z M 2.34375 0 "/></g></g></g><g fill="#ffffff" fill-opacity="1"><g transform="translate(562.301319, 414.636971)"><g><path d="M 6.140625 0.25 C 5.296875 0.25 4.507812 0.140625 3.78125 -0.078125 C 3.0625 -0.304688 2.453125 -0.613281 1.953125 -1 C 1.460938 -1.394531 1.117188 -1.832031 0.921875 -2.3125 L 2.09375 -3.546875 L 2.34375 -3.546875 C 2.78125 -2.878906 3.304688 -2.375 3.921875 -2.03125 C 4.546875 -1.695312 5.285156 -1.53125 6.140625 -1.53125 C 7.128906 -1.53125 7.882812 -1.722656 8.40625 -2.109375 C 8.925781 -2.492188 9.1875 -3.03125 9.1875 -3.71875 C 9.1875 -4.25 9.023438 -4.6875 8.703125 -5.03125 C 8.390625 -5.375 7.882812 -5.632812 7.1875 -5.8125 L 4.921875 -6.375 C 3.703125 -6.664062 2.8125 -7.128906 2.25 -7.765625 C 1.695312 -8.398438 1.421875 -9.1875 1.421875 -10.125 C 1.421875 -10.851562 1.609375 -11.488281 1.984375 -12.03125 C 2.359375 -12.570312 2.894531 -12.988281 3.59375 -13.28125 C 4.300781 -13.570312 5.140625 -13.71875 6.109375 -13.71875 C 7.347656 -13.71875 8.320312 -13.546875 9.03125 -13.203125 C 9.75 -12.859375 10.304688 -12.375 10.703125 -11.75 L 9.578125 -10.65625 L 9.34375 -10.65625 C 8.90625 -11.15625 8.429688 -11.515625 7.921875 -11.734375 C 7.421875 -11.953125 6.816406 -12.0625 6.109375 -12.0625 C 5.222656 -12.0625 4.546875 -11.898438 4.078125 -11.578125 C 3.609375 -11.265625 3.375 -10.804688 3.375 -10.203125 C 3.375 -9.660156 3.539062 -9.222656 3.875 -8.890625 C 4.207031 -8.554688 4.785156 -8.285156 5.609375 -8.078125 L 7.84375 -7.546875 C 9.019531 -7.265625 9.867188 -6.800781 10.390625 -6.15625 C 10.910156 -5.519531 11.171875 -4.71875 11.171875 -3.75 C 11.171875 -2.957031 10.984375 -2.257812 10.609375 -1.65625 C 10.234375 -1.050781 9.664062 -0.582031 8.90625 -0.25 C 8.15625 0.0820312 7.234375 0.25 6.140625 0.25 Z M 6.140625 0.25 "/></g></g></g><g fill="#000000" fill-opacity="1"><g transform="translate(623.188969, 413.674979)"><g><path d="M 15.96875 0 L 13.734375 0 L 12.109375 -4.875 L 4.546875 -4.875 L 2.890625 0 L 0.703125 0 L 6.890625 -17.75 L 9.78125 -17.75 Z M 8.171875 -15.59375 L 5.125 -6.609375 L 11.5 -6.609375 L 8.46875 -15.59375 Z M 8.171875 -15.59375 "/></g></g></g><g fill="#000000" fill-opacity="1"><g transform="translate(639.856602, 413.674979)"><g><path d="M 6.9375 0.25 C 5.863281 0.25 4.914062 -0.00390625 4.09375 -0.515625 C 3.269531 -1.023438 2.625 -1.796875 2.15625 -2.828125 C 1.695312 -3.867188 1.46875 -5.15625 1.46875 -6.6875 C 1.46875 -8.21875 1.707031 -9.503906 2.1875 -10.546875 C 2.675781 -11.585938 3.347656 -12.363281 4.203125 -12.875 C 5.054688 -13.382812 6.046875 -13.640625 7.171875 -13.640625 C 8.066406 -13.640625 8.867188 -13.472656 9.578125 -13.140625 C 10.285156 -12.804688 10.894531 -12.253906 11.40625 -11.484375 L 11.671875 -11.53125 L 11.671875 -18.765625 L 13.640625 -18.765625 L 13.640625 0 L 11.671875 0 L 11.671875 -1.953125 L 11.40625 -2 C 10.96875 -1.332031 10.375 -0.789062 9.625 -0.375 C 8.882812 0.0390625 7.988281 0.25 6.9375 0.25 Z M 7.5625 -1.515625 C 8.8125 -1.515625 9.804688 -1.941406 10.546875 -2.796875 C 11.296875 -3.648438 11.671875 -4.945312 11.671875 -6.6875 C 11.671875 -8.4375 11.296875 -9.738281 10.546875 -10.59375 C 9.804688 -11.445312 8.8125 -11.875 7.5625 -11.875 C 6.269531 -11.875 5.273438 -11.457031 4.578125 -10.625 C 3.890625 -9.789062 3.546875 -8.476562 3.546875 -6.6875 C 3.546875 -3.238281 4.882812 -1.515625 7.5625 -1.515625 Z M 7.5625 -1.515625 "/></g></g></g><g fill="#000000" fill-opacity="1"><g transform="translate(655.832782, 413.674979)"><g><path d="M 6.9375 0.25 C 5.863281 0.25 4.914062 -0.00390625 4.09375 -0.515625 C 3.269531 -1.023438 2.625 -1.796875 2.15625 -2.828125 C 1.695312 -3.867188 1.46875 -5.15625 1.46875 -6.6875 C 1.46875 -8.21875 1.707031 -9.503906 2.1875 -10.546875 C 2.675781 -11.585938 3.347656 -12.363281 4.203125 -12.875 C 5.054688 -13.382812 6.046875 -13.640625 7.171875 -13.640625 C 8.066406 -13.640625 8.867188 -13.472656 9.578125 -13.140625 C 10.285156 -12.804688 10.894531 -12.253906 11.40625 -11.484375 L 11.671875 -11.53125 L 11.671875 -18.765625 L 13.640625 -18.765625 L 13.640625 0 L 11.671875 0 L 11.671875 -1.953125 L 11.40625 -2 C 10.96875 -1.332031 10.375 -0.789062 9.625 -0.375 C 8.882812 0.0390625 7.988281 0.25 6.9375 0.25 Z M 7.5625 -1.515625 C 8.8125 -1.515625 9.804688 -1.941406 10.546875 -2.796875 C 11.296875 -3.648438 11.671875 -4.945312 11.671875 -6.6875 C 11.671875 -8.4375 11.296875 -9.738281 10.546875 -10.59375 C 9.804688 -11.445312 8.8125 -11.875 7.5625 -11.875 C 6.269531 -11.875 5.273438 -11.457031 4.578125 -10.625 C 3.890625 -9.789062 3.546875 -8.476562 3.546875 -6.6875 C 3.546875 -3.238281 4.882812 -1.515625 7.5625 -1.515625 Z M 7.5625 -1.515625 "/></g></g></g><g fill="#000000" fill-opacity="1"><g transform="translate(671.808962, 413.674979)"><g><path d="M 2.328125 0 L 2.328125 -13.390625 L 4.21875 -13.390625 L 4.21875 -11.28125 L 4.46875 -11.234375 C 5.09375 -12.753906 6.265625 -13.515625 7.984375 -13.515625 C 8.898438 -13.515625 9.582031 -13.347656 10.03125 -13.015625 L 9.53125 -11.34375 L 9.28125 -11.28125 C 8.78125 -11.539062 8.234375 -11.671875 7.640625 -11.671875 C 6.566406 -11.671875 5.742188 -11.269531 5.171875 -10.46875 C 4.597656 -9.664062 4.3125 -8.363281 4.3125 -6.5625 L 4.3125 0 Z M 2.328125 0 "/></g></g></g><g fill="#000000" fill-opacity="1"><g transform="translate(682.14435, 413.674979)"><g><path d="M 12.75 -6.234375 L 3.5625 -6.234375 C 3.613281 -4.609375 4 -3.414062 4.71875 -2.65625 C 5.445312 -1.894531 6.441406 -1.515625 7.703125 -1.515625 C 8.660156 -1.515625 9.429688 -1.679688 10.015625 -2.015625 C 10.597656 -2.359375 11.054688 -2.894531 11.390625 -3.625 L 11.640625 -3.625 L 12.921875 -2.859375 C 12.535156 -1.890625 11.914062 -1.128906 11.0625 -0.578125 C 10.207031 -0.0234375 9.085938 0.25 7.703125 0.25 C 6.410156 0.25 5.296875 -0.00390625 4.359375 -0.515625 C 3.429688 -1.023438 2.71875 -1.796875 2.21875 -2.828125 C 1.71875 -3.859375 1.46875 -5.144531 1.46875 -6.6875 C 1.46875 -8.207031 1.734375 -9.488281 2.265625 -10.53125 C 2.796875 -11.582031 3.519531 -12.363281 4.4375 -12.875 C 5.351562 -13.382812 6.40625 -13.640625 7.59375 -13.640625 C 9.300781 -13.640625 10.632812 -13.15625 11.59375 -12.1875 C 12.5625 -11.226562 13.050781 -9.796875 13.0625 -7.890625 C 13.0625 -7.140625 13.046875 -6.640625 13.015625 -6.390625 Z M 11.109375 -7.890625 C 11.078125 -9.316406 10.757812 -10.351562 10.15625 -11 C 9.5625 -11.644531 8.707031 -11.96875 7.59375 -11.96875 C 6.414062 -11.96875 5.492188 -11.640625 4.828125 -10.984375 C 4.160156 -10.335938 3.753906 -9.304688 3.609375 -7.890625 Z M 11.109375 -7.890625 "/></g></g></g><g fill="#000000" fill-opacity="1"><g transform="translate(696.410096, 413.674979)"><g><path d="M 6.109375 0.25 C 5.265625 0.25 4.484375 0.140625 3.765625 -0.078125 C 3.046875 -0.296875 2.441406 -0.597656 1.953125 -0.984375 C 1.460938 -1.378906 1.113281 -1.820312 0.90625 -2.3125 L 2.078125 -3.515625 L 2.328125 -3.515625 C 2.765625 -2.859375 3.289062 -2.359375 3.90625 -2.015625 C 4.519531 -1.679688 5.253906 -1.515625 6.109375 -1.515625 C 7.097656 -1.515625 7.847656 -1.707031 8.359375 -2.09375 C 8.867188 -2.476562 9.125 -3.015625 9.125 -3.703125 C 9.125 -4.222656 8.96875 -4.65625 8.65625 -5 C 8.34375 -5.34375 7.84375 -5.601562 7.15625 -5.78125 L 4.890625 -6.34375 C 3.679688 -6.625 2.800781 -7.082031 2.25 -7.71875 C 1.695312 -8.351562 1.421875 -9.132812 1.421875 -10.0625 C 1.421875 -10.789062 1.601562 -11.421875 1.96875 -11.953125 C 2.34375 -12.492188 2.878906 -12.910156 3.578125 -13.203125 C 4.285156 -13.492188 5.117188 -13.640625 6.078125 -13.640625 C 7.304688 -13.640625 8.273438 -13.46875 8.984375 -13.125 C 9.691406 -12.78125 10.242188 -12.300781 10.640625 -11.6875 L 9.53125 -10.59375 L 9.28125 -10.59375 C 8.851562 -11.09375 8.382812 -11.453125 7.875 -11.671875 C 7.375 -11.890625 6.773438 -12 6.078125 -12 C 5.203125 -12 4.523438 -11.835938 4.046875 -11.515625 C 3.578125 -11.203125 3.34375 -10.742188 3.34375 -10.140625 C 3.34375 -9.597656 3.507812 -9.160156 3.84375 -8.828125 C 4.175781 -8.503906 4.753906 -8.238281 5.578125 -8.03125 L 7.8125 -7.5 C 8.96875 -7.226562 9.804688 -6.769531 10.328125 -6.125 C 10.847656 -5.488281 11.109375 -4.6875 11.109375 -3.71875 C 11.109375 -2.9375 10.921875 -2.242188 10.546875 -1.640625 C 10.171875 -1.046875 9.609375 -0.582031 8.859375 -0.25 C 8.109375 0.0820312 7.191406 0.25 6.109375 0.25 Z M 6.109375 0.25 "/></g></g></g><g fill="#000000" fill-opacity="1"><g transform="translate(708.783448, 413.674979)"><g><path d="M 6.109375 0.25 C 5.265625 0.25 4.484375 0.140625 3.765625 -0.078125 C 3.046875 -0.296875 2.441406 -0.597656 1.953125 -0.984375 C 1.460938 -1.378906 1.113281 -1.820312 0.90625 -2.3125 L 2.078125 -3.515625 L 2.328125 -3.515625 C 2.765625 -2.859375 3.289062 -2.359375 3.90625 -2.015625 C 4.519531 -1.679688 5.253906 -1.515625 6.109375 -1.515625 C 7.097656 -1.515625 7.847656 -1.707031 8.359375 -2.09375 C 8.867188 -2.476562 9.125 -3.015625 9.125 -3.703125 C 9.125 -4.222656 8.96875 -4.65625 8.65625 -5 C 8.34375 -5.34375 7.84375 -5.601562 7.15625 -5.78125 L 4.890625 -6.34375 C 3.679688 -6.625 2.800781 -7.082031 2.25 -7.71875 C 1.695312 -8.351562 1.421875 -9.132812 1.421875 -10.0625 C 1.421875 -10.789062 1.601562 -11.421875 1.96875 -11.953125 C 2.34375 -12.492188 2.878906 -12.910156 3.578125 -13.203125 C 4.285156 -13.492188 5.117188 -13.640625 6.078125 -13.640625 C 7.304688 -13.640625 8.273438 -13.46875 8.984375 -13.125 C 9.691406 -12.78125 10.242188 -12.300781 10.640625 -11.6875 L 9.53125 -10.59375 L 9.28125 -10.59375 C 8.851562 -11.09375 8.382812 -11.453125 7.875 -11.671875 C 7.375 -11.890625 6.773438 -12 6.078125 -12 C 5.203125 -12 4.523438 -11.835938 4.046875 -11.515625 C 3.578125 -11.203125 3.34375 -10.742188 3.34375 -10.140625 C 3.34375 -9.597656 3.507812 -9.160156 3.84375 -8.828125 C 4.175781 -8.503906 4.753906 -8.238281 5.578125 -8.03125 L 7.8125 -7.5 C 8.96875 -7.226562 9.804688 -6.769531 10.328125 -6.125 C 10.847656 -5.488281 11.109375 -4.6875 11.109375 -3.71875 C 11.109375 -2.9375 10.921875 -2.242188 10.546875 -1.640625 C 10.171875 -1.046875 9.609375 -0.582031 8.859375 -0.25 C 8.109375 0.0820312 7.191406 0.25 6.109375 0.25 Z M 6.109375 0.25 "/></g></g></g><g fill="#000000" fill-opacity="1"><g transform="translate(721.156799, 413.674979)"><g/></g></g><g fill="#000000" fill-opacity="1"><g transform="translate(727.246429, 413.674979)"><g><path d="M 6.9375 0.25 C 5.863281 0.25 4.914062 -0.00390625 4.09375 -0.515625 C 3.269531 -1.023438 2.625 -1.796875 2.15625 -2.828125 C 1.695312 -3.867188 1.46875 -5.15625 1.46875 -6.6875 C 1.46875 -8.21875 1.707031 -9.503906 2.1875 -10.546875 C 2.675781 -11.585938 3.347656 -12.363281 4.203125 -12.875 C 5.054688 -13.382812 6.046875 -13.640625 7.171875 -13.640625 C 8.066406 -13.640625 8.867188 -13.472656 9.578125 -13.140625 C 10.285156 -12.804688 10.894531 -12.253906 11.40625 -11.484375 L 11.671875 -11.53125 L 11.671875 -18.765625 L 13.640625 -18.765625 L 13.640625 0 L 11.671875 0 L 11.671875 -1.953125 L 11.40625 -2 C 10.96875 -1.332031 10.375 -0.789062 9.625 -0.375 C 8.882812 0.0390625 7.988281 0.25 6.9375 0.25 Z M 7.5625 -1.515625 C 8.8125 -1.515625 9.804688 -1.941406 10.546875 -2.796875 C 11.296875 -3.648438 11.671875 -4.945312 11.671875 -6.6875 C 11.671875 -8.4375 11.296875 -9.738281 10.546875 -10.59375 C 9.804688 -11.445312 8.8125 -11.875 7.5625 -11.875 C 6.269531 -11.875 5.273438 -11.457031 4.578125 -10.625 C 3.890625 -9.789062 3.546875 -8.476562 3.546875 -6.6875 C 3.546875 -3.238281 4.882812 -1.515625 7.5625 -1.515625 Z M 7.5625 -1.515625 "/></g></g></g><g fill="#000000" fill-opacity="1"><g transform="translate(743.222609, 413.674979)"><g><path d="M 12.75 -6.234375 L 3.5625 -6.234375 C 3.613281 -4.609375 4 -3.414062 4.71875 -2.65625 C 5.445312 -1.894531 6.441406 -1.515625 7.703125 -1.515625 C 8.660156 -1.515625 9.429688 -1.679688 10.015625 -2.015625 C 10.597656 -2.359375 11.054688 -2.894531 11.390625 -3.625 L 11.640625 -3.625 L 12.921875 -2.859375 C 12.535156 -1.890625 11.914062 -1.128906 11.0625 -0.578125 C 10.207031 -0.0234375 9.085938 0.25 7.703125 0.25 C 6.410156 0.25 5.296875 -0.00390625 4.359375 -0.515625 C 3.429688 -1.023438 2.71875 -1.796875 2.21875 -2.828125 C 1.71875 -3.859375 1.46875 -5.144531 1.46875 -6.6875 C 1.46875 -8.207031 1.734375 -9.488281 2.265625 -10.53125 C 2.796875 -11.582031 3.519531 -12.363281 4.4375 -12.875 C 5.351562 -13.382812 6.40625 -13.640625 7.59375 -13.640625 C 9.300781 -13.640625 10.632812 -13.15625 11.59375 -12.1875 C 12.5625 -11.226562 13.050781 -9.796875 13.0625 -7.890625 C 13.0625 -7.140625 13.046875 -6.640625 13.015625 -6.390625 Z M 11.109375 -7.890625 C 11.078125 -9.316406 10.757812 -10.351562 10.15625 -11 C 9.5625 -11.644531 8.707031 -11.96875 7.59375 -11.96875 C 6.414062 -11.96875 5.492188 -11.640625 4.828125 -10.984375 C 4.160156 -10.335938 3.753906 -9.304688 3.609375 -7.890625 Z M 11.109375 -7.890625 "/></g></g></g><g fill="#000000" fill-opacity="1"><g transform="translate(757.488356, 413.674979)"><g><path d="M 9.0625 -2.125 L 9.6875 -0.703125 C 9.375 -0.390625 8.957031 -0.15625 8.4375 0 C 7.925781 0.164062 7.367188 0.25 6.765625 0.25 C 4.210938 0.25 2.9375 -1.039062 2.9375 -3.625 L 2.9375 -11.78125 L 0.609375 -11.78125 L 0.609375 -13.40625 L 2.9375 -13.40625 L 2.9375 -16.234375 L 4.921875 -16.5625 L 4.921875 -13.40625 L 9.21875 -13.40625 L 9.21875 -11.78125 L 4.921875 -11.78125 L 4.921875 -3.828125 C 4.921875 -2.285156 5.585938 -1.515625 6.921875 -1.515625 C 7.648438 -1.515625 8.273438 -1.71875 8.796875 -2.125 Z M 9.0625 -2.125 "/></g></g></g><g fill="#000000" fill-opacity="1"><g transform="translate(767.678175, 413.674979)"><g><path d="M 5.515625 0.25 C 4.203125 0.25 3.175781 -0.09375 2.4375 -0.78125 C 1.695312 -1.46875 1.328125 -2.445312 1.328125 -3.71875 C 1.328125 -4.519531 1.488281 -5.191406 1.8125 -5.734375 C 2.144531 -6.285156 2.65625 -6.734375 3.34375 -7.078125 C 4.03125 -7.421875 4.925781 -7.679688 6.03125 -7.859375 C 7 -8.023438 7.734375 -8.207031 8.234375 -8.40625 C 8.742188 -8.613281 9.085938 -8.84375 9.265625 -9.09375 C 9.441406 -9.34375 9.53125 -9.65625 9.53125 -10.03125 C 9.53125 -10.644531 9.320312 -11.113281 8.90625 -11.4375 C 8.488281 -11.757812 7.816406 -11.921875 6.890625 -11.921875 C 6.023438 -11.921875 5.28125 -11.75 4.65625 -11.40625 C 4.039062 -11.070312 3.476562 -10.578125 2.96875 -9.921875 L 2.71875 -9.921875 L 1.75 -11.28125 C 2.3125 -12.007812 3.03125 -12.582031 3.90625 -13 C 4.78125 -13.425781 5.773438 -13.640625 6.890625 -13.640625 C 8.472656 -13.640625 9.632812 -13.289062 10.375 -12.59375 C 11.125 -11.90625 11.5 -10.953125 11.5 -9.734375 L 11.5 -2.640625 C 11.5 -1.890625 11.816406 -1.515625 12.453125 -1.515625 C 12.660156 -1.515625 12.863281 -1.550781 13.0625 -1.625 L 13.234375 -1.578125 L 13.46875 -0.203125 C 13.320312 -0.109375 13.128906 -0.0351562 12.890625 0.015625 C 12.648438 0.0664062 12.40625 0.09375 12.15625 0.09375 C 11.414062 0.09375 10.859375 -0.0664062 10.484375 -0.390625 C 10.109375 -0.710938 9.867188 -1.191406 9.765625 -1.828125 L 9.5 -1.84375 C 9.125 -1.132812 8.609375 -0.609375 7.953125 -0.265625 C 7.304688 0.078125 6.492188 0.25 5.515625 0.25 Z M 5.953125 -1.328125 C 6.703125 -1.328125 7.347656 -1.5 7.890625 -1.84375 C 8.441406 -2.1875 8.863281 -2.664062 9.15625 -3.28125 C 9.445312 -3.90625 9.59375 -4.628906 9.59375 -5.453125 L 9.59375 -7.15625 L 9.359375 -7.203125 C 9.054688 -6.984375 8.691406 -6.800781 8.265625 -6.65625 C 7.835938 -6.519531 7.238281 -6.394531 6.46875 -6.28125 C 5.6875 -6.175781 5.066406 -6.015625 4.609375 -5.796875 C 4.160156 -5.578125 3.835938 -5.300781 3.640625 -4.96875 C 3.441406 -4.632812 3.34375 -4.21875 3.34375 -3.71875 C 3.34375 -2.9375 3.570312 -2.34375 4.03125 -1.9375 C 4.5 -1.53125 5.140625 -1.328125 5.953125 -1.328125 Z M 5.953125 -1.328125 "/></g></g></g><g fill="#000000" fill-opacity="1"><g transform="translate(781.519345, 413.674979)"><g><path d="M 3.328125 -15.96875 C 2.898438 -15.96875 2.554688 -16.097656 2.296875 -16.359375 C 2.035156 -16.628906 1.90625 -16.96875 1.90625 -17.375 C 1.90625 -17.78125 2.035156 -18.113281 2.296875 -18.375 C 2.554688 -18.632812 2.898438 -18.765625 3.328125 -18.765625 C 3.742188 -18.765625 4.082031 -18.632812 4.34375 -18.375 C 4.613281 -18.113281 4.75 -17.78125 4.75 -17.375 C 4.75 -16.96875 4.613281 -16.628906 4.34375 -16.359375 C 4.082031 -16.097656 3.742188 -15.96875 3.328125 -15.96875 Z M 2.328125 0 L 2.328125 -13.390625 L 4.3125 -13.390625 L 4.3125 0 Z M 2.328125 0 "/></g></g></g><g fill="#000000" fill-opacity="1"><g transform="translate(788.154858, 413.674979)"><g><path d="M 5.328125 0.25 C 4.378906 0.25 3.632812 -0.015625 3.09375 -0.546875 C 2.550781 -1.085938 2.28125 -1.894531 2.28125 -2.96875 L 2.28125 -18.765625 L 4.265625 -18.765625 L 4.265625 -3.09375 C 4.265625 -2.53125 4.367188 -2.125 4.578125 -1.875 C 4.796875 -1.632812 5.128906 -1.515625 5.578125 -1.515625 C 5.859375 -1.515625 6.140625 -1.5625 6.421875 -1.65625 L 6.59375 -1.609375 L 6.828125 -0.046875 C 6.679688 0.046875 6.472656 0.117188 6.203125 0.171875 C 5.929688 0.222656 5.640625 0.25 5.328125 0.25 Z M 5.328125 0.25 "/></g></g></g><g fill="#000000" fill-opacity="1"><g transform="translate(795.4333, 413.674979)"><g><path d="M 6.109375 0.25 C 5.265625 0.25 4.484375 0.140625 3.765625 -0.078125 C 3.046875 -0.296875 2.441406 -0.597656 1.953125 -0.984375 C 1.460938 -1.378906 1.113281 -1.820312 0.90625 -2.3125 L 2.078125 -3.515625 L 2.328125 -3.515625 C 2.765625 -2.859375 3.289062 -2.359375 3.90625 -2.015625 C 4.519531 -1.679688 5.253906 -1.515625 6.109375 -1.515625 C 7.097656 -1.515625 7.847656 -1.707031 8.359375 -2.09375 C 8.867188 -2.476562 9.125 -3.015625 9.125 -3.703125 C 9.125 -4.222656 8.96875 -4.65625 8.65625 -5 C 8.34375 -5.34375 7.84375 -5.601562 7.15625 -5.78125 L 4.890625 -6.34375 C 3.679688 -6.625 2.800781 -7.082031 2.25 -7.71875 C 1.695312 -8.351562 1.421875 -9.132812 1.421875 -10.0625 C 1.421875 -10.789062 1.601562 -11.421875 1.96875 -11.953125 C 2.34375 -12.492188 2.878906 -12.910156 3.578125 -13.203125 C 4.285156 -13.492188 5.117188 -13.640625 6.078125 -13.640625 C 7.304688 -13.640625 8.273438 -13.46875 8.984375 -13.125 C 9.691406 -12.78125 10.242188 -12.300781 10.640625 -11.6875 L 9.53125 -10.59375 L 9.28125 -10.59375 C 8.851562 -11.09375 8.382812 -11.453125 7.875 -11.671875 C 7.375 -11.890625 6.773438 -12 6.078125 -12 C 5.203125 -12 4.523438 -11.835938 4.046875 -11.515625 C 3.578125 -11.203125 3.34375 -10.742188 3.34375 -10.140625 C 3.34375 -9.597656 3.507812 -9.160156 3.84375 -8.828125 C 4.175781 -8.503906 4.753906 -8.238281 5.578125 -8.03125 L 7.8125 -7.5 C 8.96875 -7.226562 9.804688 -6.769531 10.328125 -6.125 C 10.847656 -5.488281 11.109375 -4.6875 11.109375 -3.71875 C 11.109375 -2.9375 10.921875 -2.242188 10.546875 -1.640625 C 10.171875 -1.046875 9.609375 -0.582031 8.859375 -0.25 C 8.109375 0.0820312 7.191406 0.25 6.109375 0.25 Z M 6.109375 0.25 "/></g></g></g><g fill="#000000" fill-opacity="1"><g transform="translate(864.494377, 414.325019)"><g><path d="M 8.765625 -18.453125 C 10.628906 -18.453125 12.234375 -18.117188 13.578125 -17.453125 C 14.921875 -16.785156 15.957031 -15.765625 16.6875 -14.390625 C 17.414062 -13.023438 17.78125 -11.304688 17.78125 -9.234375 C 17.78125 -7.160156 17.414062 -5.4375 16.6875 -4.0625 C 15.957031 -2.6875 14.921875 -1.664062 13.578125 -1 C 12.234375 -0.332031 10.628906 0 8.765625 0 L 2.796875 0 L 2.796875 -18.453125 Z M 8.546875 -1.84375 C 10.085938 -1.84375 11.363281 -2.082031 12.375 -2.5625 C 13.382812 -3.039062 14.148438 -3.820312 14.671875 -4.90625 C 15.191406 -6 15.453125 -7.441406 15.453125 -9.234375 C 15.453125 -11.035156 15.191406 -12.472656 14.671875 -13.546875 C 14.148438 -14.628906 13.382812 -15.410156 12.375 -15.890625 C 11.363281 -16.367188 10.085938 -16.609375 8.546875 -16.609375 L 4.96875 -16.609375 L 4.96875 -1.84375 Z M 8.546875 -1.84375 "/></g></g></g><g fill="#000000" fill-opacity="1"><g transform="translate(884.110258, 414.325019)"><g><path d="M 5.75 0.265625 C 4.375 0.265625 3.300781 -0.0859375 2.53125 -0.796875 C 1.757812 -1.515625 1.375 -2.539062 1.375 -3.875 C 1.375 -4.695312 1.546875 -5.390625 1.890625 -5.953125 C 2.234375 -6.523438 2.757812 -6.988281 3.46875 -7.34375 C 4.1875 -7.707031 5.125 -7.988281 6.28125 -8.1875 C 7.289062 -8.351562 8.054688 -8.539062 8.578125 -8.75 C 9.109375 -8.957031 9.460938 -9.191406 9.640625 -9.453125 C 9.816406 -9.710938 9.90625 -10.039062 9.90625 -10.4375 C 9.90625 -11.070312 9.6875 -11.554688 9.25 -11.890625 C 8.820312 -12.234375 8.128906 -12.40625 7.171875 -12.40625 C 6.273438 -12.40625 5.503906 -12.226562 4.859375 -11.875 C 4.210938 -11.519531 3.617188 -11 3.078125 -10.3125 L 2.828125 -10.3125 L 1.8125 -11.75 C 2.40625 -12.488281 3.15625 -13.078125 4.0625 -13.515625 C 4.96875 -13.960938 6.003906 -14.1875 7.171875 -14.1875 C 8.816406 -14.1875 10.023438 -13.828125 10.796875 -13.109375 C 11.578125 -12.390625 11.96875 -11.394531 11.96875 -10.125 L 11.96875 -2.734375 C 11.96875 -1.960938 12.296875 -1.578125 12.953125 -1.578125 C 13.171875 -1.578125 13.382812 -1.613281 13.59375 -1.6875 L 13.765625 -1.640625 L 14 -0.21875 C 13.851562 -0.113281 13.65625 -0.0351562 13.40625 0.015625 C 13.15625 0.0664062 12.898438 0.09375 12.640625 0.09375 C 11.867188 0.09375 11.285156 -0.0703125 10.890625 -0.40625 C 10.503906 -0.738281 10.257812 -1.234375 10.15625 -1.890625 L 9.890625 -1.921875 C 9.492188 -1.191406 8.957031 -0.644531 8.28125 -0.28125 C 7.601562 0.0820312 6.757812 0.265625 5.75 0.265625 Z M 6.203125 -1.375 C 6.972656 -1.375 7.640625 -1.550781 8.203125 -1.90625 C 8.773438 -2.269531 9.210938 -2.773438 9.515625 -3.421875 C 9.816406 -4.066406 9.96875 -4.816406 9.96875 -5.671875 L 9.96875 -7.4375 L 9.734375 -7.484375 C 9.421875 -7.265625 9.039062 -7.082031 8.59375 -6.9375 C 8.144531 -6.789062 7.523438 -6.660156 6.734375 -6.546875 C 5.921875 -6.429688 5.273438 -6.257812 4.796875 -6.03125 C 4.328125 -5.800781 3.988281 -5.507812 3.78125 -5.15625 C 3.582031 -4.8125 3.484375 -4.382812 3.484375 -3.875 C 3.484375 -3.0625 3.722656 -2.441406 4.203125 -2.015625 C 4.679688 -1.585938 5.347656 -1.375 6.203125 -1.375 Z M 6.203125 -1.375 "/></g></g></g><g fill="#000000" fill-opacity="1"><g transform="translate(898.512911, 414.325019)"><g><path d="M 9.421875 -2.203125 L 10.078125 -0.734375 C 9.742188 -0.398438 9.3125 -0.148438 8.78125 0.015625 C 8.25 0.179688 7.671875 0.265625 7.046875 0.265625 C 4.390625 0.265625 3.0625 -1.082031 3.0625 -3.78125 L 3.0625 -12.25 L 0.625 -12.25 L 0.625 -13.9375 L 3.0625 -13.9375 L 3.0625 -16.875 L 5.109375 -17.21875 L 5.109375 -13.9375 L 9.59375 -13.9375 L 9.59375 -12.25 L 5.109375 -12.25 L 5.109375 -3.984375 C 5.109375 -2.378906 5.804688 -1.578125 7.203125 -1.578125 C 7.953125 -1.578125 8.601562 -1.785156 9.15625 -2.203125 Z M 9.421875 -2.203125 "/></g></g></g><g fill="#000000" fill-opacity="1"><g transform="translate(909.11609, 414.325019)"><g><path d="M 13.265625 -6.484375 L 3.703125 -6.484375 C 3.753906 -4.796875 4.15625 -3.554688 4.90625 -2.765625 C 5.664062 -1.972656 6.703125 -1.578125 8.015625 -1.578125 C 9.015625 -1.578125 9.816406 -1.753906 10.421875 -2.109375 C 11.023438 -2.460938 11.5 -3.019531 11.84375 -3.78125 L 12.109375 -3.78125 L 13.453125 -2.984375 C 13.046875 -1.972656 12.394531 -1.175781 11.5 -0.59375 C 10.613281 -0.0195312 9.453125 0.265625 8.015625 0.265625 C 6.671875 0.265625 5.515625 0 4.546875 -0.53125 C 3.578125 -1.0625 2.832031 -1.863281 2.3125 -2.9375 C 1.789062 -4.019531 1.53125 -5.359375 1.53125 -6.953125 C 1.53125 -8.535156 1.804688 -9.867188 2.359375 -10.953125 C 2.910156 -12.046875 3.660156 -12.859375 4.609375 -13.390625 C 5.566406 -13.921875 6.660156 -14.1875 7.890625 -14.1875 C 9.671875 -14.1875 11.0625 -13.679688 12.0625 -12.671875 C 13.070312 -11.671875 13.582031 -10.179688 13.59375 -8.203125 C 13.59375 -7.429688 13.570312 -6.910156 13.53125 -6.640625 Z M 11.546875 -8.203125 C 11.515625 -9.679688 11.1875 -10.757812 10.5625 -11.4375 C 9.945312 -12.113281 9.054688 -12.453125 7.890625 -12.453125 C 6.671875 -12.453125 5.710938 -12.113281 5.015625 -11.4375 C 4.328125 -10.757812 3.90625 -9.679688 3.75 -8.203125 Z M 11.546875 -8.203125 "/></g></g></g><g fill="#000000" fill-opacity="1"><g transform="translate(923.960541, 414.325019)"><g/></g></g><g fill="#000000" fill-opacity="1"><g transform="translate(930.297203, 414.325019)"><g><path d="M 5.75 0.265625 C 4.375 0.265625 3.300781 -0.0859375 2.53125 -0.796875 C 1.757812 -1.515625 1.375 -2.539062 1.375 -3.875 C 1.375 -4.695312 1.546875 -5.390625 1.890625 -5.953125 C 2.234375 -6.523438 2.757812 -6.988281 3.46875 -7.34375 C 4.1875 -7.707031 5.125 -7.988281 6.28125 -8.1875 C 7.289062 -8.351562 8.054688 -8.539062 8.578125 -8.75 C 9.109375 -8.957031 9.460938 -9.191406 9.640625 -9.453125 C 9.816406 -9.710938 9.90625 -10.039062 9.90625 -10.4375 C 9.90625 -11.070312 9.6875 -11.554688 9.25 -11.890625 C 8.820312 -12.234375 8.128906 -12.40625 7.171875 -12.40625 C 6.273438 -12.40625 5.503906 -12.226562 4.859375 -11.875 C 4.210938 -11.519531 3.617188 -11 3.078125 -10.3125 L 2.828125 -10.3125 L 1.8125 -11.75 C 2.40625 -12.488281 3.15625 -13.078125 4.0625 -13.515625 C 4.96875 -13.960938 6.003906 -14.1875 7.171875 -14.1875 C 8.816406 -14.1875 10.023438 -13.828125 10.796875 -13.109375 C 11.578125 -12.390625 11.96875 -11.394531 11.96875 -10.125 L 11.96875 -2.734375 C 11.96875 -1.960938 12.296875 -1.578125 12.953125 -1.578125 C 13.171875 -1.578125 13.382812 -1.613281 13.59375 -1.6875 L 13.765625 -1.640625 L 14 -0.21875 C 13.851562 -0.113281 13.65625 -0.0351562 13.40625 0.015625 C 13.15625 0.0664062 12.898438 0.09375 12.640625 0.09375 C 11.867188 0.09375 11.285156 -0.0703125 10.890625 -0.40625 C 10.503906 -0.738281 10.257812 -1.234375 10.15625 -1.890625 L 9.890625 -1.921875 C 9.492188 -1.191406 8.957031 -0.644531 8.28125 -0.28125 C 7.601562 0.0820312 6.757812 0.265625 5.75 0.265625 Z M 6.203125 -1.375 C 6.972656 -1.375 7.640625 -1.550781 8.203125 -1.90625 C 8.773438 -2.269531 9.210938 -2.773438 9.515625 -3.421875 C 9.816406 -4.066406 9.96875 -4.816406 9.96875 -5.671875 L 9.96875 -7.4375 L 9.734375 -7.484375 C 9.421875 -7.265625 9.039062 -7.082031 8.59375 -6.9375 C 8.144531 -6.789062 7.523438 -6.660156 6.734375 -6.546875 C 5.921875 -6.429688 5.273438 -6.257812 4.796875 -6.03125 C 4.328125 -5.800781 3.988281 -5.507812 3.78125 -5.15625 C 3.582031 -4.8125 3.484375 -4.382812 3.484375 -3.875 C 3.484375 -3.0625 3.722656 -2.441406 4.203125 -2.015625 C 4.679688 -1.585938 5.347656 -1.375 6.203125 -1.375 Z M 6.203125 -1.375 "/></g></g></g><g fill="#000000" fill-opacity="1"><g transform="translate(944.699855, 414.325019)"><g><path d="M 2.421875 0 L 2.421875 -13.921875 L 4.375 -13.921875 L 4.375 -11.75 L 4.640625 -11.671875 C 5.109375 -12.492188 5.703125 -13.117188 6.421875 -13.546875 C 7.140625 -13.972656 8.015625 -14.1875 9.046875 -14.1875 C 10.722656 -14.1875 11.9375 -13.757812 12.6875 -12.90625 C 13.445312 -12.050781 13.828125 -10.738281 13.828125 -8.96875 L 13.828125 0 L 11.765625 0 L 11.765625 -8.921875 C 11.765625 -9.753906 11.65625 -10.425781 11.4375 -10.9375 C 11.226562 -11.445312 10.894531 -11.816406 10.4375 -12.046875 C 9.988281 -12.285156 9.398438 -12.40625 8.671875 -12.40625 C 7.421875 -12.40625 6.410156 -11.988281 5.640625 -11.15625 C 4.867188 -10.320312 4.484375 -8.984375 4.484375 -7.140625 L 4.484375 0 Z M 2.421875 0 "/></g></g></g><g fill="#000000" fill-opacity="1"><g transform="translate(960.730853, 414.325019)"><g><path d="M 7.21875 0.265625 C 6.101562 0.265625 5.117188 0 4.265625 -0.53125 C 3.410156 -1.070312 2.738281 -1.878906 2.25 -2.953125 C 1.769531 -4.035156 1.53125 -5.367188 1.53125 -6.953125 C 1.53125 -8.546875 1.78125 -9.882812 2.28125 -10.96875 C 2.789062 -12.050781 3.488281 -12.859375 4.375 -13.390625 C 5.257812 -13.921875 6.289062 -14.1875 7.46875 -14.1875 C 8.382812 -14.1875 9.210938 -14.007812 9.953125 -13.65625 C 10.703125 -13.3125 11.34375 -12.738281 11.875 -11.9375 L 12.140625 -12 L 12.140625 -19.515625 L 14.1875 -19.515625 L 14.1875 0 L 12.140625 0 L 12.140625 -2.03125 L 11.875 -2.078125 C 11.414062 -1.390625 10.796875 -0.828125 10.015625 -0.390625 C 9.234375 0.046875 8.300781 0.265625 7.21875 0.265625 Z M 7.859375 -1.578125 C 9.160156 -1.578125 10.195312 -2.019531 10.96875 -2.90625 C 11.75 -3.800781 12.140625 -5.148438 12.140625 -6.953125 C 12.140625 -8.773438 11.75 -10.128906 10.96875 -11.015625 C 10.195312 -11.898438 9.160156 -12.34375 7.859375 -12.34375 C 6.523438 -12.34375 5.492188 -11.910156 4.765625 -11.046875 C 4.046875 -10.179688 3.6875 -8.816406 3.6875 -6.953125 C 3.6875 -3.367188 5.078125 -1.578125 7.859375 -1.578125 Z M 7.859375 -1.578125 "/></g></g></g><g fill="#000000" fill-opacity="1"><g transform="translate(977.355123, 414.325019)"><g/></g></g><g fill="#000000" fill-opacity="1"><g transform="translate(983.691785, 414.325019)"><g><path d="M 14.40625 -18.453125 L 14.40625 -16.609375 L 8.625 -16.609375 L 8.625 0 L 6.46875 0 L 6.46875 -16.609375 L 0.6875 -16.609375 L 0.6875 -18.453125 Z M 14.40625 -18.453125 "/></g></g></g><g fill="#000000" fill-opacity="1"><g transform="translate(998.763448, 414.325019)"><g><path d="M 3.453125 -16.609375 C 3.015625 -16.609375 2.660156 -16.742188 2.390625 -17.015625 C 2.117188 -17.296875 1.984375 -17.644531 1.984375 -18.0625 C 1.984375 -18.488281 2.117188 -18.835938 2.390625 -19.109375 C 2.660156 -19.378906 3.015625 -19.515625 3.453125 -19.515625 C 3.890625 -19.515625 4.242188 -19.378906 4.515625 -19.109375 C 4.796875 -18.835938 4.9375 -18.488281 4.9375 -18.0625 C 4.9375 -17.644531 4.796875 -17.296875 4.515625 -17.015625 C 4.242188 -16.742188 3.890625 -16.609375 3.453125 -16.609375 Z M 2.421875 0 L 2.421875 -13.921875 L 4.484375 -13.921875 L 4.484375 0 Z M 2.421875 0 "/></g></g></g><g fill="#000000" fill-opacity="1"><g transform="translate(1005.668137, 414.325019)"><g><path d="M 2.421875 0 L 2.421875 -13.921875 L 4.375 -13.921875 L 4.375 -11.875 L 4.640625 -11.8125 C 5.117188 -12.601562 5.691406 -13.195312 6.359375 -13.59375 C 7.023438 -13.988281 7.828125 -14.1875 8.765625 -14.1875 C 9.835938 -14.1875 10.664062 -13.984375 11.25 -13.578125 C 11.84375 -13.171875 12.304688 -12.515625 12.640625 -11.609375 L 12.90625 -11.609375 C 13.382812 -12.453125 13.972656 -13.09375 14.671875 -13.53125 C 15.378906 -13.96875 16.242188 -14.1875 17.265625 -14.1875 C 18.703125 -14.1875 19.769531 -13.800781 20.46875 -13.03125 C 21.175781 -12.257812 21.53125 -11.082031 21.53125 -9.5 L 21.53125 0 L 19.46875 0 L 19.46875 -9.4375 C 19.46875 -10.445312 19.253906 -11.191406 18.828125 -11.671875 C 18.398438 -12.160156 17.71875 -12.40625 16.78125 -12.40625 C 15.664062 -12.40625 14.753906 -12 14.046875 -11.1875 C 13.347656 -10.375 13 -9.046875 13 -7.203125 L 13 0 L 10.953125 0 L 10.953125 -9.4375 C 10.953125 -10.445312 10.738281 -11.191406 10.3125 -11.671875 C 9.882812 -12.160156 9.203125 -12.40625 8.265625 -12.40625 C 7.148438 -12.40625 6.238281 -12.007812 5.53125 -11.21875 C 4.832031 -10.4375 4.484375 -9.164062 4.484375 -7.40625 L 4.484375 0 Z M 2.421875 0 "/></g></g></g><g fill="#000000" fill-opacity="1"><g transform="translate(1029.399062, 414.325019)"><g><path d="M 13.265625 -6.484375 L 3.703125 -6.484375 C 3.753906 -4.796875 4.15625 -3.554688 4.90625 -2.765625 C 5.664062 -1.972656 6.703125 -1.578125 8.015625 -1.578125 C 9.015625 -1.578125 9.816406 -1.753906 10.421875 -2.109375 C 11.023438 -2.460938 11.5 -3.019531 11.84375 -3.78125 L 12.109375 -3.78125 L 13.453125 -2.984375 C 13.046875 -1.972656 12.394531 -1.175781 11.5 -0.59375 C 10.613281 -0.0195312 9.453125 0.265625 8.015625 0.265625 C 6.671875 0.265625 5.515625 0 4.546875 -0.53125 C 3.578125 -1.0625 2.832031 -1.863281 2.3125 -2.9375 C 1.789062 -4.019531 1.53125 -5.359375 1.53125 -6.953125 C 1.53125 -8.535156 1.804688 -9.867188 2.359375 -10.953125 C 2.910156 -12.046875 3.660156 -12.859375 4.609375 -13.390625 C 5.566406 -13.921875 6.660156 -14.1875 7.890625 -14.1875 C 9.671875 -14.1875 11.0625 -13.679688 12.0625 -12.671875 C 13.070312 -11.671875 13.582031 -10.179688 13.59375 -8.203125 C 13.59375 -7.429688 13.570312 -6.910156 13.53125 -6.640625 Z M 11.546875 -8.203125 C 11.515625 -9.679688 11.1875 -10.757812 10.5625 -11.4375 C 9.945312 -12.113281 9.054688 -12.453125 7.890625 -12.453125 C 6.671875 -12.453125 5.710938 -12.113281 5.015625 -11.4375 C 4.328125 -10.757812 3.90625 -9.679688 3.75 -8.203125 Z M 11.546875 -8.203125 "/></g></g></g></svg>