<svg xmlns="http://www.w3.org/2000/svg" xmlns:xlink="http://www.w3.org/1999/xlink" width="800" zoomAndPan="magnify" viewBox="0 0 600 139.500001" height="186" preserveAspectRatio="xMidYMid meet" version="1.0"><defs><g/><clipPath id="1b542ba70e"><path d="M 5.179688 61 L 27 61 L 27 82 L 5.179688 82 Z M 5.179688 61 " clip-rule="nonzero"/></clipPath><clipPath id="0fc8aa2103"><path d="M 31 80 L 106 80 L 106 138.882812 L 31 138.882812 Z M 31 80 " clip-rule="nonzero"/></clipPath></defs><g fill="#000000" fill-opacity="0.4"><g transform="translate(171.241058, 109.775113)"><g><path d="M 18.78125 0 L 14.78125 0 L 11.921875 -10.609375 L 9.03125 0 L 5 0 L -0.015625 -15.34375 L 4.140625 -15.34375 L 7.140625 -4.0625 L 10.078125 -15.34375 L 13.90625 -15.34375 L 16.90625 -4.0625 L 19.859375 -15.34375 L 23.84375 -15.34375 Z M 18.78125 0 "/></g></g></g><g fill="#000000" fill-opacity="0.4"><g transform="translate(200.414646, 109.775113)"><g><path d="M 13.546875 -12.28125 L 5.4375 -12.28125 L 5.4375 -9.234375 L 12.765625 -9.234375 L 12.765625 -6.15625 L 5.4375 -6.15625 L 5.4375 -3.0625 L 13.78125 -3.0625 L 13.78125 0 L 1.53125 0 L 1.53125 -15.34375 L 13.546875 -15.34375 Z M 13.546875 -12.28125 "/></g></g></g><g fill="#000000" fill-opacity="0.4"><g transform="translate(220.66794, 109.775113)"><g><path d="M 1.53125 -15.34375 L 8.796875 -15.34375 C 10.515625 -15.34375 11.878906 -14.992188 12.890625 -14.296875 C 13.910156 -13.609375 14.421875 -12.679688 14.421875 -11.515625 C 14.421875 -10.703125 14.1875 -9.992188 13.71875 -9.390625 C 13.25 -8.785156 12.609375 -8.367188 11.796875 -8.140625 C 12.753906 -7.941406 13.519531 -7.492188 14.09375 -6.796875 C 14.664062 -6.097656 14.953125 -5.25 14.953125 -4.25 C 14.953125 -2.945312 14.421875 -1.910156 13.359375 -1.140625 C 12.296875 -0.378906 10.859375 0 9.046875 0 L 1.53125 0 Z M 5.421875 -12.359375 L 5.421875 -9.203125 L 8.578125 -9.203125 C 9.140625 -9.203125 9.585938 -9.34375 9.921875 -9.625 C 10.265625 -9.914062 10.4375 -10.3125 10.4375 -10.8125 C 10.4375 -11.289062 10.265625 -11.664062 9.921875 -11.9375 C 9.585938 -12.21875 9.140625 -12.359375 8.578125 -12.359375 Z M 5.421875 -6.40625 L 5.421875 -3 L 8.578125 -3 C 9.304688 -3 9.878906 -3.148438 10.296875 -3.453125 C 10.710938 -3.765625 10.921875 -4.191406 10.921875 -4.734375 C 10.921875 -5.242188 10.710938 -5.648438 10.296875 -5.953125 C 9.878906 -6.253906 9.304688 -6.40625 8.578125 -6.40625 Z M 5.421875 -6.40625 "/></g></g></g><g fill="#000000" fill-opacity="0.4"><g transform="translate(241.819836, 109.775113)"><g/></g></g><g fill="#000000" fill-opacity="0.4"><g transform="translate(252.385738, 109.775113)"><g><path d="M 8.8125 -15.484375 C 11.195312 -15.484375 13.175781 -14.738281 14.75 -13.25 C 16.332031 -11.769531 17.125 -9.914062 17.125 -7.6875 C 17.125 -5.457031 16.328125 -3.585938 14.734375 -2.078125 C 13.148438 -0.578125 11.175781 0.171875 8.8125 0.171875 C 6.445312 0.171875 4.472656 -0.570312 2.890625 -2.0625 C 1.316406 -3.5625 0.53125 -5.4375 0.53125 -7.6875 C 0.53125 -9.925781 1.316406 -11.785156 2.890625 -13.265625 C 4.472656 -14.742188 6.445312 -15.484375 8.8125 -15.484375 Z M 8.859375 -12.203125 C 7.660156 -12.203125 6.632812 -11.769531 5.78125 -10.90625 C 4.9375 -10.039062 4.515625 -8.960938 4.515625 -7.671875 C 4.515625 -6.390625 4.941406 -5.304688 5.796875 -4.421875 C 6.648438 -3.535156 7.664062 -3.09375 8.84375 -3.09375 C 10.03125 -3.09375 11.035156 -3.535156 11.859375 -4.421875 C 12.691406 -5.304688 13.109375 -6.390625 13.109375 -7.671875 C 13.109375 -8.960938 12.691406 -10.039062 11.859375 -10.90625 C 11.035156 -11.769531 10.035156 -12.203125 8.859375 -12.203125 Z M 8.859375 -12.203125 "/></g></g></g><g fill="#000000" fill-opacity="0.4"><g transform="translate(275.510188, 109.775113)"><g><path d="M 12.90625 -12.28125 L 5.4375 -12.28125 L 5.4375 -8.71875 L 12.3125 -8.71875 L 12.3125 -5.65625 L 5.4375 -5.65625 L 5.4375 0 L 1.53125 0 L 1.53125 -15.34375 L 12.90625 -15.34375 Z M 12.90625 -12.28125 "/></g></g></g><g fill="#000000" fill-opacity="0.4"><g transform="translate(294.229276, 109.775113)"><g/></g></g><g fill="#000000" fill-opacity="0.4"><g transform="translate(304.795178, 109.775113)"><g><path d="M 7.4375 -15.515625 C 9.726562 -15.515625 11.742188 -14.945312 13.484375 -13.8125 L 12.015625 -10.765625 C 11.210938 -11.234375 10.347656 -11.613281 9.421875 -11.90625 C 8.503906 -12.207031 7.734375 -12.359375 7.109375 -12.359375 C 5.984375 -12.359375 5.421875 -11.988281 5.421875 -11.25 C 5.421875 -10.757812 5.695312 -10.367188 6.25 -10.078125 C 6.800781 -9.785156 7.472656 -9.535156 8.265625 -9.328125 C 9.066406 -9.117188 9.863281 -8.863281 10.65625 -8.5625 C 11.457031 -8.257812 12.132812 -7.769531 12.6875 -7.09375 C 13.25 -6.425781 13.53125 -5.582031 13.53125 -4.5625 C 13.53125 -3.082031 12.953125 -1.929688 11.796875 -1.109375 C 10.640625 -0.285156 9.171875 0.125 7.390625 0.125 C 6.117188 0.125 4.859375 -0.09375 3.609375 -0.53125 C 2.367188 -0.96875 1.289062 -1.566406 0.375 -2.328125 L 1.890625 -5.328125 C 2.660156 -4.648438 3.570312 -4.097656 4.625 -3.671875 C 5.675781 -3.242188 6.613281 -3.03125 7.4375 -3.03125 C 8.0625 -3.03125 8.546875 -3.140625 8.890625 -3.359375 C 9.242188 -3.585938 9.421875 -3.921875 9.421875 -4.359375 C 9.421875 -4.785156 9.21875 -5.140625 8.8125 -5.421875 C 8.414062 -5.710938 7.914062 -5.925781 7.3125 -6.0625 C 6.71875 -6.195312 6.066406 -6.378906 5.359375 -6.609375 C 4.660156 -6.847656 4.007812 -7.101562 3.40625 -7.375 C 2.8125 -7.65625 2.3125 -8.097656 1.90625 -8.703125 C 1.507812 -9.316406 1.3125 -10.046875 1.3125 -10.890625 C 1.3125 -12.296875 1.867188 -13.414062 2.984375 -14.25 C 4.109375 -15.09375 5.59375 -15.515625 7.4375 -15.515625 Z M 7.4375 -15.515625 "/></g></g></g><g fill="#000000" fill-opacity="0.4"><g transform="translate(324.390958, 109.775113)"><g><path d="M 1.53125 -15.34375 L 8.21875 -15.34375 C 10.175781 -15.34375 11.695312 -14.878906 12.78125 -13.953125 C 13.863281 -13.023438 14.40625 -11.707031 14.40625 -10 C 14.40625 -8.195312 13.863281 -6.796875 12.78125 -5.796875 C 11.695312 -4.804688 10.175781 -4.3125 8.21875 -4.3125 L 5.4375 -4.3125 L 5.4375 0 L 1.53125 0 Z M 5.4375 -12.28125 L 5.4375 -7.390625 L 8.015625 -7.390625 C 8.878906 -7.390625 9.546875 -7.597656 10.015625 -8.015625 C 10.484375 -8.441406 10.71875 -9.054688 10.71875 -9.859375 C 10.71875 -10.648438 10.484375 -11.25 10.015625 -11.65625 C 9.546875 -12.070312 8.878906 -12.28125 8.015625 -12.28125 Z M 5.4375 -12.28125 "/></g></g></g><g fill="#000000" fill-opacity="0.4"><g transform="translate(344.775761, 109.775113)"><g><path d="M 10.78125 0 L 8.5 -4.3125 L 5.4375 -4.3125 L 5.4375 0 L 1.53125 0 L 1.53125 -15.34375 L 8.390625 -15.34375 C 10.421875 -15.34375 11.992188 -14.878906 13.109375 -13.953125 C 14.222656 -13.023438 14.78125 -11.707031 14.78125 -10 C 14.78125 -7.625 13.847656 -5.976562 11.984375 -5.0625 L 15.21875 0 Z M 5.4375 -7.390625 L 8.390625 -7.390625 C 9.242188 -7.390625 9.90625 -7.597656 10.375 -8.015625 C 10.84375 -8.441406 11.078125 -9.054688 11.078125 -9.859375 C 11.078125 -10.648438 10.84375 -11.25 10.375 -11.65625 C 9.90625 -12.070312 9.242188 -12.28125 8.390625 -12.28125 L 5.4375 -12.28125 Z M 5.4375 -7.390625 "/></g></g></g><g fill="#000000" fill-opacity="0.4"><g transform="translate(366.124913, 109.775113)"><g><path d="M 13.546875 -12.28125 L 5.4375 -12.28125 L 5.4375 -9.234375 L 12.765625 -9.234375 L 12.765625 -6.15625 L 5.4375 -6.15625 L 5.4375 -3.0625 L 13.78125 -3.0625 L 13.78125 0 L 1.53125 0 L 1.53125 -15.34375 L 13.546875 -15.34375 Z M 13.546875 -12.28125 "/></g></g></g><g fill="#000000" fill-opacity="0.4"><g transform="translate(386.378198, 109.775113)"><g><path d="M 11.734375 -2.828125 L 5.015625 -2.828125 L 3.90625 0 L -0.109375 0 L 6.515625 -15.34375 L 10.515625 -15.34375 L 16.984375 0 L 12.828125 0 Z M 10.59375 -5.78125 L 8.390625 -11.46875 L 6.15625 -5.78125 Z M 10.59375 -5.78125 "/></g></g></g><g fill="#000000" fill-opacity="0.4"><g transform="translate(408.735538, 109.775113)"><g><path d="M 1.53125 -15.34375 L 8.140625 -15.34375 C 10.546875 -15.34375 12.503906 -14.632812 14.015625 -13.21875 C 15.523438 -11.800781 16.28125 -9.953125 16.28125 -7.671875 C 16.28125 -5.410156 15.515625 -3.566406 13.984375 -2.140625 C 12.453125 -0.710938 10.453125 0 7.984375 0 L 1.53125 0 Z M 5.4375 -12.234375 L 5.4375 -3.109375 L 8.21875 -3.109375 C 9.414062 -3.109375 10.394531 -3.53125 11.15625 -4.375 C 11.925781 -5.21875 12.3125 -6.3125 12.3125 -7.65625 C 12.3125 -9 11.910156 -10.097656 11.109375 -10.953125 C 10.304688 -11.804688 9.285156 -12.234375 8.046875 -12.234375 Z M 5.4375 -12.234375 "/></g></g></g><g fill="#000000" fill-opacity="0.4"><g transform="translate(431.027125, 109.775113)"><g><path d="M 5.4375 0 L 1.53125 0 L 1.53125 -15.34375 L 5.4375 -15.34375 Z M 5.4375 0 "/></g></g></g><g fill="#000000" fill-opacity="0.4"><g transform="translate(443.477896, 109.775113)"><g><path d="M 15.703125 0 L 12.25 0 L 5.203125 -9.453125 L 5.203125 0 L 1.53125 0 L 1.53125 -15.34375 L 4.96875 -15.34375 L 12.0625 -5.875 L 12.0625 -15.34375 L 15.703125 -15.34375 Z M 15.703125 0 "/></g></g></g><g fill="#000000" fill-opacity="0.4"><g transform="translate(466.185909, 109.775113)"><g><path d="M 11.734375 -7.796875 L 15.109375 -7.796875 L 15.109375 -1.8125 C 14.273438 -1.226562 13.269531 -0.75 12.09375 -0.375 C 10.914062 -0.0078125 9.789062 0.171875 8.71875 0.171875 C 6.382812 0.171875 4.4375 -0.570312 2.875 -2.0625 C 1.3125 -3.5625 0.53125 -5.429688 0.53125 -7.671875 C 0.53125 -9.890625 1.332031 -11.742188 2.9375 -13.234375 C 4.539062 -14.734375 6.554688 -15.484375 8.984375 -15.484375 C 10.128906 -15.484375 11.265625 -15.273438 12.390625 -14.859375 C 13.515625 -14.453125 14.46875 -13.898438 15.25 -13.203125 L 13.0625 -10.546875 C 12.507812 -11.054688 11.867188 -11.457031 11.140625 -11.75 C 10.410156 -12.050781 9.6875 -12.203125 8.96875 -12.203125 C 7.707031 -12.203125 6.648438 -11.769531 5.796875 -10.90625 C 4.941406 -10.039062 4.515625 -8.960938 4.515625 -7.671875 C 4.515625 -6.367188 4.945312 -5.28125 5.8125 -4.40625 C 6.675781 -3.53125 7.742188 -3.09375 9.015625 -3.09375 C 9.828125 -3.09375 10.734375 -3.34375 11.734375 -3.84375 Z M 11.734375 -7.796875 "/></g></g></g><g fill="#000000" fill-opacity="0.4"><g transform="translate(487.951487, 109.775113)"><g/></g></g><g fill="#000000" fill-opacity="0.4"><g transform="translate(498.517389, 109.775113)"><g><path d="M 5.4375 -3.265625 L 11.953125 -3.265625 L 11.953125 0 L 1.53125 0 L 1.53125 -15.34375 L 5.4375 -15.34375 Z M 5.4375 -3.265625 "/></g></g></g><g fill="#000000" fill-opacity="0.4"><g transform="translate(516.272117, 109.775113)"><g><path d="M 8.8125 -15.484375 C 11.195312 -15.484375 13.175781 -14.738281 14.75 -13.25 C 16.332031 -11.769531 17.125 -9.914062 17.125 -7.6875 C 17.125 -5.457031 16.328125 -3.585938 14.734375 -2.078125 C 13.148438 -0.578125 11.175781 0.171875 8.8125 0.171875 C 6.445312 0.171875 4.472656 -0.570312 2.890625 -2.0625 C 1.316406 -3.5625 0.53125 -5.4375 0.53125 -7.6875 C 0.53125 -9.925781 1.316406 -11.785156 2.890625 -13.265625 C 4.472656 -14.742188 6.445312 -15.484375 8.8125 -15.484375 Z M 8.859375 -12.203125 C 7.660156 -12.203125 6.632812 -11.769531 5.78125 -10.90625 C 4.9375 -10.039062 4.515625 -8.960938 4.515625 -7.671875 C 4.515625 -6.390625 4.941406 -5.304688 5.796875 -4.421875 C 6.648438 -3.535156 7.664062 -3.09375 8.84375 -3.09375 C 10.03125 -3.09375 11.035156 -3.535156 11.859375 -4.421875 C 12.691406 -5.304688 13.109375 -6.390625 13.109375 -7.671875 C 13.109375 -8.960938 12.691406 -10.039062 11.859375 -10.90625 C 11.035156 -11.769531 10.035156 -12.203125 8.859375 -12.203125 Z M 8.859375 -12.203125 "/></g></g></g><g fill="#000000" fill-opacity="0.4"><g transform="translate(539.396556, 109.775113)"><g><path d="M 9.96875 0 L 5.9375 0 L -0.015625 -15.34375 L 4.140625 -15.34375 L 8.0625 -4.0625 L 11.984375 -15.34375 L 16 -15.34375 Z M 9.96875 0 "/></g></g></g><g fill="#000000" fill-opacity="0.4"><g transform="translate(560.85529, 109.775113)"><g><path d="M 13.546875 -12.28125 L 5.4375 -12.28125 L 5.4375 -9.234375 L 12.765625 -9.234375 L 12.765625 -6.15625 L 5.4375 -6.15625 L 5.4375 -3.0625 L 13.78125 -3.0625 L 13.78125 0 L 1.53125 0 L 1.53125 -15.34375 L 13.546875 -15.34375 Z M 13.546875 -12.28125 "/></g></g></g><g fill="#ed127c" fill-opacity="1"><g transform="translate(170.272125, 108.806178)"><g><path d="M 18.78125 0 L 14.78125 0 L 11.921875 -10.609375 L 9.03125 0 L 5 0 L -0.015625 -15.34375 L 4.140625 -15.34375 L 7.140625 -4.0625 L 10.078125 -15.34375 L 13.90625 -15.34375 L 16.90625 -4.0625 L 19.859375 -15.34375 L 23.84375 -15.34375 Z M 18.78125 0 "/></g></g></g><g fill="#ed127c" fill-opacity="1"><g transform="translate(199.445714, 108.806178)"><g><path d="M 13.546875 -12.28125 L 5.4375 -12.28125 L 5.4375 -9.234375 L 12.765625 -9.234375 L 12.765625 -6.15625 L 5.4375 -6.15625 L 5.4375 -3.0625 L 13.78125 -3.0625 L 13.78125 0 L 1.53125 0 L 1.53125 -15.34375 L 13.546875 -15.34375 Z M 13.546875 -12.28125 "/></g></g></g><g fill="#ed127c" fill-opacity="1"><g transform="translate(219.699007, 108.806178)"><g><path d="M 1.53125 -15.34375 L 8.796875 -15.34375 C 10.515625 -15.34375 11.878906 -14.992188 12.890625 -14.296875 C 13.910156 -13.609375 14.421875 -12.679688 14.421875 -11.515625 C 14.421875 -10.703125 14.1875 -9.992188 13.71875 -9.390625 C 13.25 -8.785156 12.609375 -8.367188 11.796875 -8.140625 C 12.753906 -7.941406 13.519531 -7.492188 14.09375 -6.796875 C 14.664062 -6.097656 14.953125 -5.25 14.953125 -4.25 C 14.953125 -2.945312 14.421875 -1.910156 13.359375 -1.140625 C 12.296875 -0.378906 10.859375 0 9.046875 0 L 1.53125 0 Z M 5.421875 -12.359375 L 5.421875 -9.203125 L 8.578125 -9.203125 C 9.140625 -9.203125 9.585938 -9.34375 9.921875 -9.625 C 10.265625 -9.914062 10.4375 -10.3125 10.4375 -10.8125 C 10.4375 -11.289062 10.265625 -11.664062 9.921875 -11.9375 C 9.585938 -12.21875 9.140625 -12.359375 8.578125 -12.359375 Z M 5.421875 -6.40625 L 5.421875 -3 L 8.578125 -3 C 9.304688 -3 9.878906 -3.148438 10.296875 -3.453125 C 10.710938 -3.765625 10.921875 -4.191406 10.921875 -4.734375 C 10.921875 -5.242188 10.710938 -5.648438 10.296875 -5.953125 C 9.878906 -6.253906 9.304688 -6.40625 8.578125 -6.40625 Z M 5.421875 -6.40625 "/></g></g></g><g fill="#ed127c" fill-opacity="1"><g transform="translate(240.850903, 108.806178)"><g/></g></g><g fill="#ed127c" fill-opacity="1"><g transform="translate(251.416805, 108.806178)"><g><path d="M 8.8125 -15.484375 C 11.195312 -15.484375 13.175781 -14.738281 14.75 -13.25 C 16.332031 -11.769531 17.125 -9.914062 17.125 -7.6875 C 17.125 -5.457031 16.328125 -3.585938 14.734375 -2.078125 C 13.148438 -0.578125 11.175781 0.171875 8.8125 0.171875 C 6.445312 0.171875 4.472656 -0.570312 2.890625 -2.0625 C 1.316406 -3.5625 0.53125 -5.4375 0.53125 -7.6875 C 0.53125 -9.925781 1.316406 -11.785156 2.890625 -13.265625 C 4.472656 -14.742188 6.445312 -15.484375 8.8125 -15.484375 Z M 8.859375 -12.203125 C 7.660156 -12.203125 6.632812 -11.769531 5.78125 -10.90625 C 4.9375 -10.039062 4.515625 -8.960938 4.515625 -7.671875 C 4.515625 -6.390625 4.941406 -5.304688 5.796875 -4.421875 C 6.648438 -3.535156 7.664062 -3.09375 8.84375 -3.09375 C 10.03125 -3.09375 11.035156 -3.535156 11.859375 -4.421875 C 12.691406 -5.304688 13.109375 -6.390625 13.109375 -7.671875 C 13.109375 -8.960938 12.691406 -10.039062 11.859375 -10.90625 C 11.035156 -11.769531 10.035156 -12.203125 8.859375 -12.203125 Z M 8.859375 -12.203125 "/></g></g></g><g fill="#ed127c" fill-opacity="1"><g transform="translate(274.541255, 108.806178)"><g><path d="M 12.90625 -12.28125 L 5.4375 -12.28125 L 5.4375 -8.71875 L 12.3125 -8.71875 L 12.3125 -5.65625 L 5.4375 -5.65625 L 5.4375 0 L 1.53125 0 L 1.53125 -15.34375 L 12.90625 -15.34375 Z M 12.90625 -12.28125 "/></g></g></g><g fill="#ed127c" fill-opacity="1"><g transform="translate(293.260343, 108.806178)"><g/></g></g><g fill="#ed127c" fill-opacity="1"><g transform="translate(303.826245, 108.806178)"><g><path d="M 7.4375 -15.515625 C 9.726562 -15.515625 11.742188 -14.945312 13.484375 -13.8125 L 12.015625 -10.765625 C 11.210938 -11.234375 10.347656 -11.613281 9.421875 -11.90625 C 8.503906 -12.207031 7.734375 -12.359375 7.109375 -12.359375 C 5.984375 -12.359375 5.421875 -11.988281 5.421875 -11.25 C 5.421875 -10.757812 5.695312 -10.367188 6.25 -10.078125 C 6.800781 -9.785156 7.472656 -9.535156 8.265625 -9.328125 C 9.066406 -9.117188 9.863281 -8.863281 10.65625 -8.5625 C 11.457031 -8.257812 12.132812 -7.769531 12.6875 -7.09375 C 13.25 -6.425781 13.53125 -5.582031 13.53125 -4.5625 C 13.53125 -3.082031 12.953125 -1.929688 11.796875 -1.109375 C 10.640625 -0.285156 9.171875 0.125 7.390625 0.125 C 6.117188 0.125 4.859375 -0.09375 3.609375 -0.53125 C 2.367188 -0.96875 1.289062 -1.566406 0.375 -2.328125 L 1.890625 -5.328125 C 2.660156 -4.648438 3.570312 -4.097656 4.625 -3.671875 C 5.675781 -3.242188 6.613281 -3.03125 7.4375 -3.03125 C 8.0625 -3.03125 8.546875 -3.140625 8.890625 -3.359375 C 9.242188 -3.585938 9.421875 -3.921875 9.421875 -4.359375 C 9.421875 -4.785156 9.21875 -5.140625 8.8125 -5.421875 C 8.414062 -5.710938 7.914062 -5.925781 7.3125 -6.0625 C 6.71875 -6.195312 6.066406 -6.378906 5.359375 -6.609375 C 4.660156 -6.847656 4.007812 -7.101562 3.40625 -7.375 C 2.8125 -7.65625 2.3125 -8.097656 1.90625 -8.703125 C 1.507812 -9.316406 1.3125 -10.046875 1.3125 -10.890625 C 1.3125 -12.296875 1.867188 -13.414062 2.984375 -14.25 C 4.109375 -15.09375 5.59375 -15.515625 7.4375 -15.515625 Z M 7.4375 -15.515625 "/></g></g></g><g fill="#ed127c" fill-opacity="1"><g transform="translate(323.422025, 108.806178)"><g><path d="M 1.53125 -15.34375 L 8.21875 -15.34375 C 10.175781 -15.34375 11.695312 -14.878906 12.78125 -13.953125 C 13.863281 -13.023438 14.40625 -11.707031 14.40625 -10 C 14.40625 -8.195312 13.863281 -6.796875 12.78125 -5.796875 C 11.695312 -4.804688 10.175781 -4.3125 8.21875 -4.3125 L 5.4375 -4.3125 L 5.4375 0 L 1.53125 0 Z M 5.4375 -12.28125 L 5.4375 -7.390625 L 8.015625 -7.390625 C 8.878906 -7.390625 9.546875 -7.597656 10.015625 -8.015625 C 10.484375 -8.441406 10.71875 -9.054688 10.71875 -9.859375 C 10.71875 -10.648438 10.484375 -11.25 10.015625 -11.65625 C 9.546875 -12.070312 8.878906 -12.28125 8.015625 -12.28125 Z M 5.4375 -12.28125 "/></g></g></g><g fill="#ed127c" fill-opacity="1"><g transform="translate(343.806828, 108.806178)"><g><path d="M 10.78125 0 L 8.5 -4.3125 L 5.4375 -4.3125 L 5.4375 0 L 1.53125 0 L 1.53125 -15.34375 L 8.390625 -15.34375 C 10.421875 -15.34375 11.992188 -14.878906 13.109375 -13.953125 C 14.222656 -13.023438 14.78125 -11.707031 14.78125 -10 C 14.78125 -7.625 13.847656 -5.976562 11.984375 -5.0625 L 15.21875 0 Z M 5.4375 -7.390625 L 8.390625 -7.390625 C 9.242188 -7.390625 9.90625 -7.597656 10.375 -8.015625 C 10.84375 -8.441406 11.078125 -9.054688 11.078125 -9.859375 C 11.078125 -10.648438 10.84375 -11.25 10.375 -11.65625 C 9.90625 -12.070312 9.242188 -12.28125 8.390625 -12.28125 L 5.4375 -12.28125 Z M 5.4375 -7.390625 "/></g></g></g><g fill="#ed127c" fill-opacity="1"><g transform="translate(365.155981, 108.806178)"><g><path d="M 13.546875 -12.28125 L 5.4375 -12.28125 L 5.4375 -9.234375 L 12.765625 -9.234375 L 12.765625 -6.15625 L 5.4375 -6.15625 L 5.4375 -3.0625 L 13.78125 -3.0625 L 13.78125 0 L 1.53125 0 L 1.53125 -15.34375 L 13.546875 -15.34375 Z M 13.546875 -12.28125 "/></g></g></g><g fill="#ed127c" fill-opacity="1"><g transform="translate(385.409265, 108.806178)"><g><path d="M 11.734375 -2.828125 L 5.015625 -2.828125 L 3.90625 0 L -0.109375 0 L 6.515625 -15.34375 L 10.515625 -15.34375 L 16.984375 0 L 12.828125 0 Z M 10.59375 -5.78125 L 8.390625 -11.46875 L 6.15625 -5.78125 Z M 10.59375 -5.78125 "/></g></g></g><g fill="#ed127c" fill-opacity="1"><g transform="translate(407.766605, 108.806178)"><g><path d="M 1.53125 -15.34375 L 8.140625 -15.34375 C 10.546875 -15.34375 12.503906 -14.632812 14.015625 -13.21875 C 15.523438 -11.800781 16.28125 -9.953125 16.28125 -7.671875 C 16.28125 -5.410156 15.515625 -3.566406 13.984375 -2.140625 C 12.453125 -0.710938 10.453125 0 7.984375 0 L 1.53125 0 Z M 5.4375 -12.234375 L 5.4375 -3.109375 L 8.21875 -3.109375 C 9.414062 -3.109375 10.394531 -3.53125 11.15625 -4.375 C 11.925781 -5.21875 12.3125 -6.3125 12.3125 -7.65625 C 12.3125 -9 11.910156 -10.097656 11.109375 -10.953125 C 10.304688 -11.804688 9.285156 -12.234375 8.046875 -12.234375 Z M 5.4375 -12.234375 "/></g></g></g><g fill="#ed127c" fill-opacity="1"><g transform="translate(430.058192, 108.806178)"><g><path d="M 5.4375 0 L 1.53125 0 L 1.53125 -15.34375 L 5.4375 -15.34375 Z M 5.4375 0 "/></g></g></g><g fill="#ed127c" fill-opacity="1"><g transform="translate(442.508963, 108.806178)"><g><path d="M 15.703125 0 L 12.25 0 L 5.203125 -9.453125 L 5.203125 0 L 1.53125 0 L 1.53125 -15.34375 L 4.96875 -15.34375 L 12.0625 -5.875 L 12.0625 -15.34375 L 15.703125 -15.34375 Z M 15.703125 0 "/></g></g></g><g fill="#ed127c" fill-opacity="1"><g transform="translate(465.216976, 108.806178)"><g><path d="M 11.734375 -7.796875 L 15.109375 -7.796875 L 15.109375 -1.8125 C 14.273438 -1.226562 13.269531 -0.75 12.09375 -0.375 C 10.914062 -0.0078125 9.789062 0.171875 8.71875 0.171875 C 6.382812 0.171875 4.4375 -0.570312 2.875 -2.0625 C 1.3125 -3.5625 0.53125 -5.429688 0.53125 -7.671875 C 0.53125 -9.890625 1.332031 -11.742188 2.9375 -13.234375 C 4.539062 -14.734375 6.554688 -15.484375 8.984375 -15.484375 C 10.128906 -15.484375 11.265625 -15.273438 12.390625 -14.859375 C 13.515625 -14.453125 14.46875 -13.898438 15.25 -13.203125 L 13.0625 -10.546875 C 12.507812 -11.054688 11.867188 -11.457031 11.140625 -11.75 C 10.410156 -12.050781 9.6875 -12.203125 8.96875 -12.203125 C 7.707031 -12.203125 6.648438 -11.769531 5.796875 -10.90625 C 4.941406 -10.039062 4.515625 -8.960938 4.515625 -7.671875 C 4.515625 -6.367188 4.945312 -5.28125 5.8125 -4.40625 C 6.675781 -3.53125 7.742188 -3.09375 9.015625 -3.09375 C 9.828125 -3.09375 10.734375 -3.34375 11.734375 -3.84375 Z M 11.734375 -7.796875 "/></g></g></g><g fill="#ed127c" fill-opacity="1"><g transform="translate(486.982554, 108.806178)"><g/></g></g><g fill="#ed127c" fill-opacity="1"><g transform="translate(497.548456, 108.806178)"><g><path d="M 5.4375 -3.265625 L 11.953125 -3.265625 L 11.953125 0 L 1.53125 0 L 1.53125 -15.34375 L 5.4375 -15.34375 Z M 5.4375 -3.265625 "/></g></g></g><g fill="#ed127c" fill-opacity="1"><g transform="translate(515.303184, 108.806178)"><g><path d="M 8.8125 -15.484375 C 11.195312 -15.484375 13.175781 -14.738281 14.75 -13.25 C 16.332031 -11.769531 17.125 -9.914062 17.125 -7.6875 C 17.125 -5.457031 16.328125 -3.585938 14.734375 -2.078125 C 13.148438 -0.578125 11.175781 0.171875 8.8125 0.171875 C 6.445312 0.171875 4.472656 -0.570312 2.890625 -2.0625 C 1.316406 -3.5625 0.53125 -5.4375 0.53125 -7.6875 C 0.53125 -9.925781 1.316406 -11.785156 2.890625 -13.265625 C 4.472656 -14.742188 6.445312 -15.484375 8.8125 -15.484375 Z M 8.859375 -12.203125 C 7.660156 -12.203125 6.632812 -11.769531 5.78125 -10.90625 C 4.9375 -10.039062 4.515625 -8.960938 4.515625 -7.671875 C 4.515625 -6.390625 4.941406 -5.304688 5.796875 -4.421875 C 6.648438 -3.535156 7.664062 -3.09375 8.84375 -3.09375 C 10.03125 -3.09375 11.035156 -3.535156 11.859375 -4.421875 C 12.691406 -5.304688 13.109375 -6.390625 13.109375 -7.671875 C 13.109375 -8.960938 12.691406 -10.039062 11.859375 -10.90625 C 11.035156 -11.769531 10.035156 -12.203125 8.859375 -12.203125 Z M 8.859375 -12.203125 "/></g></g></g><g fill="#ed127c" fill-opacity="1"><g transform="translate(538.427623, 108.806178)"><g><path d="M 9.96875 0 L 5.9375 0 L -0.015625 -15.34375 L 4.140625 -15.34375 L 8.0625 -4.0625 L 11.984375 -15.34375 L 16 -15.34375 Z M 9.96875 0 "/></g></g></g><g fill="#ed127c" fill-opacity="1"><g transform="translate(559.886358, 108.806178)"><g><path d="M 13.546875 -12.28125 L 5.4375 -12.28125 L 5.4375 -9.234375 L 12.765625 -9.234375 L 12.765625 -6.15625 L 5.4375 -6.15625 L 5.4375 -3.0625 L 13.78125 -3.0625 L 13.78125 0 L 1.53125 0 L 1.53125 -15.34375 L 13.546875 -15.34375 Z M 13.546875 -12.28125 "/></g></g></g><g fill="#3b98d1" fill-opacity="0.4"><g transform="translate(159.469066, 78.085041)"><g><path d="M 3.03125 -38.921875 L 20.921875 -38.921875 C 26.859375 -38.921875 29.828125 -36.414062 29.828125 -31.40625 L 29.828125 -7.515625 C 29.828125 -2.503906 26.859375 0 20.921875 0 L 3.03125 0 Z M 19.21875 -8.3125 L 19.21875 -30.609375 C 19.21875 -31.503906 18.710938 -31.953125 17.703125 -31.953125 L 13.640625 -31.953125 L 13.640625 -6.96875 L 17.703125 -6.96875 C 18.710938 -6.96875 19.21875 -7.414062 19.21875 -8.3125 Z M 19.21875 -8.3125 "/></g></g></g><g fill="#3b98d1" fill-opacity="0.4"><g transform="translate(191.540538, 78.085041)"><g><path d="M 10.734375 -30.25 L 18.4375 -30.25 C 21.5 -30.25 23.695312 -29.601562 25.03125 -28.3125 C 26.363281 -27.019531 27.03125 -25.160156 27.03125 -22.734375 L 27.03125 -7.515625 C 27.03125 -5.085938 26.363281 -3.226562 25.03125 -1.9375 C 23.695312 -0.644531 21.5 0 18.4375 0 L 10.734375 0 C 7.660156 0 5.457031 -0.644531 4.125 -1.9375 C 2.789062 -3.226562 2.125 -5.085938 2.125 -7.515625 L 2.125 -22.734375 C 2.125 -25.160156 2.789062 -27.019531 4.125 -28.3125 C 5.457031 -29.601562 7.660156 -30.25 10.734375 -30.25 Z M 16.921875 -8.484375 L 16.921875 -21.765625 C 16.921875 -22.648438 16.414062 -23.09375 15.40625 -23.09375 L 13.765625 -23.09375 C 12.753906 -23.09375 12.25 -22.648438 12.25 -21.765625 L 12.25 -8.484375 C 12.25 -7.597656 12.753906 -7.15625 13.765625 -7.15625 L 15.40625 -7.15625 C 16.414062 -7.15625 16.921875 -7.597656 16.921875 -8.484375 Z M 16.921875 -8.484375 "/></g></g></g><g fill="#3b98d1" fill-opacity="0.4"><g transform="translate(220.701941, 78.085041)"><g><path d="M 10.734375 -30.25 L 18.4375 -30.25 C 21.5 -30.25 23.695312 -29.601562 25.03125 -28.3125 C 26.363281 -27.019531 27.03125 -25.160156 27.03125 -22.734375 L 27.03125 -7.515625 C 27.03125 -5.085938 26.363281 -3.226562 25.03125 -1.9375 C 23.695312 -0.644531 21.5 0 18.4375 0 L 10.734375 0 C 7.660156 0 5.457031 -0.644531 4.125 -1.9375 C 2.789062 -3.226562 2.125 -5.085938 2.125 -7.515625 L 2.125 -22.734375 C 2.125 -25.160156 2.789062 -27.019531 4.125 -28.3125 C 5.457031 -29.601562 7.660156 -30.25 10.734375 -30.25 Z M 16.921875 -8.484375 L 16.921875 -21.765625 C 16.921875 -22.648438 16.414062 -23.09375 15.40625 -23.09375 L 13.765625 -23.09375 C 12.753906 -23.09375 12.25 -22.648438 12.25 -21.765625 L 12.25 -8.484375 C 12.25 -7.597656 12.753906 -7.15625 13.765625 -7.15625 L 15.40625 -7.15625 C 16.414062 -7.15625 16.921875 -7.597656 16.921875 -8.484375 Z M 16.921875 -8.484375 "/></g></g></g><g fill="#3b98d1" fill-opacity="0.4"><g transform="translate(249.863344, 78.085041)"><g><path d="M 19.09375 -30.5625 L 20 -30.5625 L 20 -21.578125 L 16.546875 -21.578125 C 14.003906 -21.578125 12.734375 -20.203125 12.734375 -17.453125 L 12.734375 0 L 2.421875 0 L 2.421875 -30.25 L 12.546875 -30.25 L 12.546875 -25.578125 C 12.867188 -27.117188 13.59375 -28.332031 14.71875 -29.21875 C 15.851562 -30.113281 17.3125 -30.5625 19.09375 -30.5625 Z M 19.09375 -30.5625 "/></g></g></g><g fill="#3b98d1" fill-opacity="0.4"><g transform="translate(270.173258, 78.085041)"><g><path d="M 17.34375 -8.90625 L 17.34375 -14.421875 C 17.34375 -15.316406 16.835938 -15.765625 15.828125 -15.765625 L 10 -15.765625 C 7.007812 -15.765625 4.894531 -16.421875 3.65625 -17.734375 C 2.425781 -19.046875 1.8125 -20.9375 1.8125 -23.40625 L 1.8125 -31.40625 C 1.8125 -36.414062 4.765625 -38.921875 10.671875 -38.921875 L 18.96875 -38.921875 C 24.875 -38.921875 27.828125 -36.414062 27.828125 -31.40625 L 27.828125 -26.734375 L 17.21875 -26.734375 L 17.21875 -30.015625 C 17.21875 -30.898438 16.710938 -31.34375 15.703125 -31.34375 L 13.9375 -31.34375 C 12.925781 -31.34375 12.421875 -30.898438 12.421875 -30.015625 L 12.421875 -24.25 C 12.421875 -23.363281 12.925781 -22.921875 13.9375 -22.921875 L 19.640625 -22.921875 C 22.628906 -22.921875 24.757812 -22.289062 26.03125 -21.03125 C 27.3125 -19.78125 27.953125 -17.941406 27.953125 -15.515625 L 27.953125 -7.515625 C 27.953125 -2.503906 25 0 19.09375 0 L 10.859375 0 C 4.910156 0 1.9375 -2.503906 1.9375 -7.515625 L 1.9375 -12.1875 L 12.546875 -12.1875 L 12.546875 -8.90625 C 12.546875 -8.019531 13.050781 -7.578125 14.0625 -7.578125 L 15.828125 -7.578125 C 16.835938 -7.578125 17.34375 -8.019531 17.34375 -8.90625 Z M 17.34375 -8.90625 "/></g></g></g><g fill="#3b98d1" fill-opacity="0.4"><g transform="translate(299.940927, 78.085041)"><g><path d="M 17.765625 -22.671875 L 13.9375 -22.671875 L 13.9375 -8.90625 C 13.9375 -8.019531 14.441406 -7.578125 15.453125 -7.578125 L 17.703125 -7.578125 L 17.703125 0 L 12.546875 0 C 6.609375 0 3.640625 -2.503906 3.640625 -7.515625 L 3.640625 -22.671875 L 0.296875 -22.671875 L 0.296875 -30.25 L 3.640625 -30.25 L 3.640625 -36.1875 L 13.9375 -36.1875 L 13.9375 -30.25 L 17.765625 -30.25 Z M 17.765625 -22.671875 "/></g></g></g><g fill="#3b98d1" fill-opacity="0.4"><g transform="translate(318.310796, 78.085041)"><g><path d="M 10.734375 -30.25 L 18.125 -30.25 C 24.0625 -30.25 27.03125 -27.742188 27.03125 -22.734375 L 27.03125 -12.421875 L 11.578125 -12.421875 L 11.578125 -8.421875 C 11.578125 -7.535156 12.082031 -7.09375 13.09375 -7.09375 L 15.765625 -7.09375 C 16.773438 -7.09375 17.28125 -7.578125 17.28125 -8.546875 L 17.28125 -10.25 L 27.03125 -10.25 L 27.03125 -7.515625 C 27.03125 -2.503906 24.0625 0 18.125 0 L 10.734375 0 C 4.785156 0 1.8125 -2.503906 1.8125 -7.515625 L 1.8125 -22.734375 C 1.8125 -27.742188 4.785156 -30.25 10.734375 -30.25 Z M 11.578125 -18 L 17.28125 -18 L 17.28125 -21.828125 C 17.28125 -22.710938 16.773438 -23.15625 15.765625 -23.15625 L 13.09375 -23.15625 C 12.082031 -23.15625 11.578125 -22.710938 11.578125 -21.828125 Z M 11.578125 -18 "/></g></g></g><g fill="#3b98d1" fill-opacity="0.4"><g transform="translate(346.865933, 78.085041)"><g><path d="M 18.0625 -30.25 L 19.15625 -30.25 C 24.53125 -30.25 27.21875 -27.742188 27.21875 -22.734375 L 27.21875 -7.515625 C 27.21875 -2.503906 24.53125 0 19.15625 0 L 18.0625 0 C 15.28125 0 13.503906 -1.09375 12.734375 -3.28125 L 12.734375 7.828125 L 2.421875 7.828125 L 2.421875 -30.25 L 12.546875 -30.25 L 12.546875 -26.375 C 13.109375 -28.957031 14.945312 -30.25 18.0625 -30.25 Z M 16.921875 -8.90625 L 16.921875 -21.34375 C 16.921875 -22.226562 16.414062 -22.671875 15.40625 -22.671875 L 14.375 -22.671875 C 13.28125 -22.671875 12.734375 -22.066406 12.734375 -20.859375 L 12.734375 -9.390625 C 12.734375 -8.179688 13.28125 -7.578125 14.375 -7.578125 L 15.40625 -7.578125 C 16.414062 -7.578125 16.921875 -8.019531 16.921875 -8.90625 Z M 16.921875 -8.90625 "/></g></g></g><g fill="#3b98d1" fill-opacity="0.4"><g transform="translate(375.906076, 78.085041)"><g><path d="M 3.03125 -38.921875 L 20.921875 -38.921875 C 26.859375 -38.921875 29.828125 -36.414062 29.828125 -31.40625 L 29.828125 -7.515625 C 29.828125 -2.503906 26.859375 0 20.921875 0 L 3.03125 0 Z M 19.21875 -8.3125 L 19.21875 -30.609375 C 19.21875 -31.503906 18.710938 -31.953125 17.703125 -31.953125 L 13.640625 -31.953125 L 13.640625 -6.96875 L 17.703125 -6.96875 C 18.710938 -6.96875 19.21875 -7.414062 19.21875 -8.3125 Z M 19.21875 -8.3125 "/></g></g></g><g fill="#3b98d1" fill-opacity="0.4"><g transform="translate(407.97756, 78.085041)"><g><path d="M 10.734375 -30.25 L 18.4375 -30.25 C 21.5 -30.25 23.695312 -29.601562 25.03125 -28.3125 C 26.363281 -27.019531 27.03125 -25.160156 27.03125 -22.734375 L 27.03125 -7.515625 C 27.03125 -5.085938 26.363281 -3.226562 25.03125 -1.9375 C 23.695312 -0.644531 21.5 0 18.4375 0 L 10.734375 0 C 7.660156 0 5.457031 -0.644531 4.125 -1.9375 C 2.789062 -3.226562 2.125 -5.085938 2.125 -7.515625 L 2.125 -22.734375 C 2.125 -25.160156 2.789062 -27.019531 4.125 -28.3125 C 5.457031 -29.601562 7.660156 -30.25 10.734375 -30.25 Z M 16.921875 -8.484375 L 16.921875 -21.765625 C 16.921875 -22.648438 16.414062 -23.09375 15.40625 -23.09375 L 13.765625 -23.09375 C 12.753906 -23.09375 12.25 -22.648438 12.25 -21.765625 L 12.25 -8.484375 C 12.25 -7.597656 12.753906 -7.15625 13.765625 -7.15625 L 15.40625 -7.15625 C 16.414062 -7.15625 16.921875 -7.597656 16.921875 -8.484375 Z M 16.921875 -8.484375 "/></g></g></g><g fill="#3b98d1" fill-opacity="0.4"><g transform="translate(437.138963, 78.085041)"><g><path d="M 18.0625 -30.25 L 19.15625 -30.25 C 24.53125 -30.25 27.21875 -27.742188 27.21875 -22.734375 L 27.21875 0 L 16.921875 0 L 16.921875 -21.34375 C 16.921875 -22.226562 16.414062 -22.671875 15.40625 -22.671875 L 14.375 -22.671875 C 13.28125 -22.671875 12.734375 -22.066406 12.734375 -20.859375 L 12.734375 0 L 2.421875 0 L 2.421875 -30.25 L 12.546875 -30.25 L 12.546875 -26.375 C 13.109375 -28.957031 14.945312 -30.25 18.0625 -30.25 Z M 18.0625 -30.25 "/></g></g></g><g fill="#3b98d1" fill-opacity="0.4"><g transform="translate(466.48224, 78.085041)"><g><path d="M 16.484375 -30.25 L 26.609375 -30.25 L 26.609375 0 L 16.3125 0 L 16.3125 -3.28125 C 15.539062 -1.09375 13.757812 0 10.96875 0 L 9.875 0 C 4.5 0 1.8125 -2.503906 1.8125 -7.515625 L 1.8125 -22.734375 C 1.8125 -27.742188 4.5 -30.25 9.875 -30.25 L 10.96875 -30.25 C 14.082031 -30.25 15.921875 -28.957031 16.484375 -26.375 Z M 13.640625 -7.578125 L 14.671875 -7.578125 C 15.765625 -7.578125 16.3125 -8.179688 16.3125 -9.390625 L 16.3125 -20.859375 C 16.3125 -22.066406 15.765625 -22.671875 14.671875 -22.671875 L 13.640625 -22.671875 C 12.628906 -22.671875 12.125 -22.226562 12.125 -21.34375 L 12.125 -8.90625 C 12.125 -8.019531 12.628906 -7.578125 13.640625 -7.578125 Z M 13.640625 -7.578125 "/></g></g></g><g fill="#3b98d1" fill-opacity="0.4"><g transform="translate(495.522372, 78.085041)"><g><path d="M 17.765625 -22.671875 L 13.9375 -22.671875 L 13.9375 -8.90625 C 13.9375 -8.019531 14.441406 -7.578125 15.453125 -7.578125 L 17.703125 -7.578125 L 17.703125 0 L 12.546875 0 C 6.609375 0 3.640625 -2.503906 3.640625 -7.515625 L 3.640625 -22.671875 L 0.296875 -22.671875 L 0.296875 -30.25 L 3.640625 -30.25 L 3.640625 -36.1875 L 13.9375 -36.1875 L 13.9375 -30.25 L 17.765625 -30.25 Z M 17.765625 -22.671875 "/></g></g></g><g fill="#3b98d1" fill-opacity="0.4"><g transform="translate(513.892241, 78.085041)"><g><path d="M 2.25 -33.28125 L 2.25 -40.5625 L 12.90625 -40.5625 L 12.90625 -33.28125 Z M 12.734375 0 L 2.421875 0 L 2.421875 -30.25 L 12.734375 -30.25 Z M 12.734375 0 "/></g></g></g><g fill="#3b98d1" fill-opacity="0.4"><g transform="translate(529.048907, 78.085041)"><g><path d="M 10.734375 -30.25 L 18.4375 -30.25 C 21.5 -30.25 23.695312 -29.601562 25.03125 -28.3125 C 26.363281 -27.019531 27.03125 -25.160156 27.03125 -22.734375 L 27.03125 -7.515625 C 27.03125 -5.085938 26.363281 -3.226562 25.03125 -1.9375 C 23.695312 -0.644531 21.5 0 18.4375 0 L 10.734375 0 C 7.660156 0 5.457031 -0.644531 4.125 -1.9375 C 2.789062 -3.226562 2.125 -5.085938 2.125 -7.515625 L 2.125 -22.734375 C 2.125 -25.160156 2.789062 -27.019531 4.125 -28.3125 C 5.457031 -29.601562 7.660156 -30.25 10.734375 -30.25 Z M 16.921875 -8.484375 L 16.921875 -21.765625 C 16.921875 -22.648438 16.414062 -23.09375 15.40625 -23.09375 L 13.765625 -23.09375 C 12.753906 -23.09375 12.25 -22.648438 12.25 -21.765625 L 12.25 -8.484375 C 12.25 -7.597656 12.753906 -7.15625 13.765625 -7.15625 L 15.40625 -7.15625 C 16.414062 -7.15625 16.921875 -7.597656 16.921875 -8.484375 Z M 16.921875 -8.484375 "/></g></g></g><g fill="#3b98d1" fill-opacity="0.4"><g transform="translate(558.21031, 78.085041)"><g><path d="M 18.0625 -30.25 L 19.15625 -30.25 C 24.53125 -30.25 27.21875 -27.742188 27.21875 -22.734375 L 27.21875 0 L 16.921875 0 L 16.921875 -21.34375 C 16.921875 -22.226562 16.414062 -22.671875 15.40625 -22.671875 L 14.375 -22.671875 C 13.28125 -22.671875 12.734375 -22.066406 12.734375 -20.859375 L 12.734375 0 L 2.421875 0 L 2.421875 -30.25 L 12.546875 -30.25 L 12.546875 -26.375 C 13.109375 -28.957031 14.945312 -30.25 18.0625 -30.25 Z M 18.0625 -30.25 "/></g></g></g><g fill="#3b98d1" fill-opacity="1"><g transform="translate(157.539824, 76.155795)"><g><path d="M 3.03125 -38.921875 L 20.921875 -38.921875 C 26.859375 -38.921875 29.828125 -36.414062 29.828125 -31.40625 L 29.828125 -7.515625 C 29.828125 -2.503906 26.859375 0 20.921875 0 L 3.03125 0 Z M 19.21875 -8.3125 L 19.21875 -30.609375 C 19.21875 -31.503906 18.710938 -31.953125 17.703125 -31.953125 L 13.640625 -31.953125 L 13.640625 -6.96875 L 17.703125 -6.96875 C 18.710938 -6.96875 19.21875 -7.414062 19.21875 -8.3125 Z M 19.21875 -8.3125 "/></g></g></g><g fill="#3b98d1" fill-opacity="1"><g transform="translate(189.611296, 76.155795)"><g><path d="M 10.734375 -30.25 L 18.4375 -30.25 C 21.5 -30.25 23.695312 -29.601562 25.03125 -28.3125 C 26.363281 -27.019531 27.03125 -25.160156 27.03125 -22.734375 L 27.03125 -7.515625 C 27.03125 -5.085938 26.363281 -3.226562 25.03125 -1.9375 C 23.695312 -0.644531 21.5 0 18.4375 0 L 10.734375 0 C 7.660156 0 5.457031 -0.644531 4.125 -1.9375 C 2.789062 -3.226562 2.125 -5.085938 2.125 -7.515625 L 2.125 -22.734375 C 2.125 -25.160156 2.789062 -27.019531 4.125 -28.3125 C 5.457031 -29.601562 7.660156 -30.25 10.734375 -30.25 Z M 16.921875 -8.484375 L 16.921875 -21.765625 C 16.921875 -22.648438 16.414062 -23.09375 15.40625 -23.09375 L 13.765625 -23.09375 C 12.753906 -23.09375 12.25 -22.648438 12.25 -21.765625 L 12.25 -8.484375 C 12.25 -7.597656 12.753906 -7.15625 13.765625 -7.15625 L 15.40625 -7.15625 C 16.414062 -7.15625 16.921875 -7.597656 16.921875 -8.484375 Z M 16.921875 -8.484375 "/></g></g></g><g fill="#3b98d1" fill-opacity="1"><g transform="translate(218.772699, 76.155795)"><g><path d="M 10.734375 -30.25 L 18.4375 -30.25 C 21.5 -30.25 23.695312 -29.601562 25.03125 -28.3125 C 26.363281 -27.019531 27.03125 -25.160156 27.03125 -22.734375 L 27.03125 -7.515625 C 27.03125 -5.085938 26.363281 -3.226562 25.03125 -1.9375 C 23.695312 -0.644531 21.5 0 18.4375 0 L 10.734375 0 C 7.660156 0 5.457031 -0.644531 4.125 -1.9375 C 2.789062 -3.226562 2.125 -5.085938 2.125 -7.515625 L 2.125 -22.734375 C 2.125 -25.160156 2.789062 -27.019531 4.125 -28.3125 C 5.457031 -29.601562 7.660156 -30.25 10.734375 -30.25 Z M 16.921875 -8.484375 L 16.921875 -21.765625 C 16.921875 -22.648438 16.414062 -23.09375 15.40625 -23.09375 L 13.765625 -23.09375 C 12.753906 -23.09375 12.25 -22.648438 12.25 -21.765625 L 12.25 -8.484375 C 12.25 -7.597656 12.753906 -7.15625 13.765625 -7.15625 L 15.40625 -7.15625 C 16.414062 -7.15625 16.921875 -7.597656 16.921875 -8.484375 Z M 16.921875 -8.484375 "/></g></g></g><g fill="#3b98d1" fill-opacity="1"><g transform="translate(247.934102, 76.155795)"><g><path d="M 19.09375 -30.5625 L 20 -30.5625 L 20 -21.578125 L 16.546875 -21.578125 C 14.003906 -21.578125 12.734375 -20.203125 12.734375 -17.453125 L 12.734375 0 L 2.421875 0 L 2.421875 -30.25 L 12.546875 -30.25 L 12.546875 -25.578125 C 12.867188 -27.117188 13.59375 -28.332031 14.71875 -29.21875 C 15.851562 -30.113281 17.3125 -30.5625 19.09375 -30.5625 Z M 19.09375 -30.5625 "/></g></g></g><g fill="#3b98d1" fill-opacity="1"><g transform="translate(268.244016, 76.155795)"><g><path d="M 17.34375 -8.90625 L 17.34375 -14.421875 C 17.34375 -15.316406 16.835938 -15.765625 15.828125 -15.765625 L 10 -15.765625 C 7.007812 -15.765625 4.894531 -16.421875 3.65625 -17.734375 C 2.425781 -19.046875 1.8125 -20.9375 1.8125 -23.40625 L 1.8125 -31.40625 C 1.8125 -36.414062 4.765625 -38.921875 10.671875 -38.921875 L 18.96875 -38.921875 C 24.875 -38.921875 27.828125 -36.414062 27.828125 -31.40625 L 27.828125 -26.734375 L 17.21875 -26.734375 L 17.21875 -30.015625 C 17.21875 -30.898438 16.710938 -31.34375 15.703125 -31.34375 L 13.9375 -31.34375 C 12.925781 -31.34375 12.421875 -30.898438 12.421875 -30.015625 L 12.421875 -24.25 C 12.421875 -23.363281 12.925781 -22.921875 13.9375 -22.921875 L 19.640625 -22.921875 C 22.628906 -22.921875 24.757812 -22.289062 26.03125 -21.03125 C 27.3125 -19.78125 27.953125 -17.941406 27.953125 -15.515625 L 27.953125 -7.515625 C 27.953125 -2.503906 25 0 19.09375 0 L 10.859375 0 C 4.910156 0 1.9375 -2.503906 1.9375 -7.515625 L 1.9375 -12.1875 L 12.546875 -12.1875 L 12.546875 -8.90625 C 12.546875 -8.019531 13.050781 -7.578125 14.0625 -7.578125 L 15.828125 -7.578125 C 16.835938 -7.578125 17.34375 -8.019531 17.34375 -8.90625 Z M 17.34375 -8.90625 "/></g></g></g><g fill="#3b98d1" fill-opacity="1"><g transform="translate(298.011685, 76.155795)"><g><path d="M 17.765625 -22.671875 L 13.9375 -22.671875 L 13.9375 -8.90625 C 13.9375 -8.019531 14.441406 -7.578125 15.453125 -7.578125 L 17.703125 -7.578125 L 17.703125 0 L 12.546875 0 C 6.609375 0 3.640625 -2.503906 3.640625 -7.515625 L 3.640625 -22.671875 L 0.296875 -22.671875 L 0.296875 -30.25 L 3.640625 -30.25 L 3.640625 -36.1875 L 13.9375 -36.1875 L 13.9375 -30.25 L 17.765625 -30.25 Z M 17.765625 -22.671875 "/></g></g></g><g fill="#3b98d1" fill-opacity="1"><g transform="translate(316.381554, 76.155795)"><g><path d="M 10.734375 -30.25 L 18.125 -30.25 C 24.0625 -30.25 27.03125 -27.742188 27.03125 -22.734375 L 27.03125 -12.421875 L 11.578125 -12.421875 L 11.578125 -8.421875 C 11.578125 -7.535156 12.082031 -7.09375 13.09375 -7.09375 L 15.765625 -7.09375 C 16.773438 -7.09375 17.28125 -7.578125 17.28125 -8.546875 L 17.28125 -10.25 L 27.03125 -10.25 L 27.03125 -7.515625 C 27.03125 -2.503906 24.0625 0 18.125 0 L 10.734375 0 C 4.785156 0 1.8125 -2.503906 1.8125 -7.515625 L 1.8125 -22.734375 C 1.8125 -27.742188 4.785156 -30.25 10.734375 -30.25 Z M 11.578125 -18 L 17.28125 -18 L 17.28125 -21.828125 C 17.28125 -22.710938 16.773438 -23.15625 15.765625 -23.15625 L 13.09375 -23.15625 C 12.082031 -23.15625 11.578125 -22.710938 11.578125 -21.828125 Z M 11.578125 -18 "/></g></g></g><g fill="#3b98d1" fill-opacity="1"><g transform="translate(344.936691, 76.155795)"><g><path d="M 18.0625 -30.25 L 19.15625 -30.25 C 24.53125 -30.25 27.21875 -27.742188 27.21875 -22.734375 L 27.21875 -7.515625 C 27.21875 -2.503906 24.53125 0 19.15625 0 L 18.0625 0 C 15.28125 0 13.503906 -1.09375 12.734375 -3.28125 L 12.734375 7.828125 L 2.421875 7.828125 L 2.421875 -30.25 L 12.546875 -30.25 L 12.546875 -26.375 C 13.109375 -28.957031 14.945312 -30.25 18.0625 -30.25 Z M 16.921875 -8.90625 L 16.921875 -21.34375 C 16.921875 -22.226562 16.414062 -22.671875 15.40625 -22.671875 L 14.375 -22.671875 C 13.28125 -22.671875 12.734375 -22.066406 12.734375 -20.859375 L 12.734375 -9.390625 C 12.734375 -8.179688 13.28125 -7.578125 14.375 -7.578125 L 15.40625 -7.578125 C 16.414062 -7.578125 16.921875 -8.019531 16.921875 -8.90625 Z M 16.921875 -8.90625 "/></g></g></g><g fill="#3b98d1" fill-opacity="1"><g transform="translate(373.976834, 76.155795)"><g><path d="M 3.03125 -38.921875 L 20.921875 -38.921875 C 26.859375 -38.921875 29.828125 -36.414062 29.828125 -31.40625 L 29.828125 -7.515625 C 29.828125 -2.503906 26.859375 0 20.921875 0 L 3.03125 0 Z M 19.21875 -8.3125 L 19.21875 -30.609375 C 19.21875 -31.503906 18.710938 -31.953125 17.703125 -31.953125 L 13.640625 -31.953125 L 13.640625 -6.96875 L 17.703125 -6.96875 C 18.710938 -6.96875 19.21875 -7.414062 19.21875 -8.3125 Z M 19.21875 -8.3125 "/></g></g></g><g fill="#3b98d1" fill-opacity="1"><g transform="translate(406.048318, 76.155795)"><g><path d="M 10.734375 -30.25 L 18.4375 -30.25 C 21.5 -30.25 23.695312 -29.601562 25.03125 -28.3125 C 26.363281 -27.019531 27.03125 -25.160156 27.03125 -22.734375 L 27.03125 -7.515625 C 27.03125 -5.085938 26.363281 -3.226562 25.03125 -1.9375 C 23.695312 -0.644531 21.5 0 18.4375 0 L 10.734375 0 C 7.660156 0 5.457031 -0.644531 4.125 -1.9375 C 2.789062 -3.226562 2.125 -5.085938 2.125 -7.515625 L 2.125 -22.734375 C 2.125 -25.160156 2.789062 -27.019531 4.125 -28.3125 C 5.457031 -29.601562 7.660156 -30.25 10.734375 -30.25 Z M 16.921875 -8.484375 L 16.921875 -21.765625 C 16.921875 -22.648438 16.414062 -23.09375 15.40625 -23.09375 L 13.765625 -23.09375 C 12.753906 -23.09375 12.25 -22.648438 12.25 -21.765625 L 12.25 -8.484375 C 12.25 -7.597656 12.753906 -7.15625 13.765625 -7.15625 L 15.40625 -7.15625 C 16.414062 -7.15625 16.921875 -7.597656 16.921875 -8.484375 Z M 16.921875 -8.484375 "/></g></g></g><g fill="#3b98d1" fill-opacity="1"><g transform="translate(435.209721, 76.155795)"><g><path d="M 18.0625 -30.25 L 19.15625 -30.25 C 24.53125 -30.25 27.21875 -27.742188 27.21875 -22.734375 L 27.21875 0 L 16.921875 0 L 16.921875 -21.34375 C 16.921875 -22.226562 16.414062 -22.671875 15.40625 -22.671875 L 14.375 -22.671875 C 13.28125 -22.671875 12.734375 -22.066406 12.734375 -20.859375 L 12.734375 0 L 2.421875 0 L 2.421875 -30.25 L 12.546875 -30.25 L 12.546875 -26.375 C 13.109375 -28.957031 14.945312 -30.25 18.0625 -30.25 Z M 18.0625 -30.25 "/></g></g></g><g fill="#3b98d1" fill-opacity="1"><g transform="translate(464.552998, 76.155795)"><g><path d="M 16.484375 -30.25 L 26.609375 -30.25 L 26.609375 0 L 16.3125 0 L 16.3125 -3.28125 C 15.539062 -1.09375 13.757812 0 10.96875 0 L 9.875 0 C 4.5 0 1.8125 -2.503906 1.8125 -7.515625 L 1.8125 -22.734375 C 1.8125 -27.742188 4.5 -30.25 9.875 -30.25 L 10.96875 -30.25 C 14.082031 -30.25 15.921875 -28.957031 16.484375 -26.375 Z M 13.640625 -7.578125 L 14.671875 -7.578125 C 15.765625 -7.578125 16.3125 -8.179688 16.3125 -9.390625 L 16.3125 -20.859375 C 16.3125 -22.066406 15.765625 -22.671875 14.671875 -22.671875 L 13.640625 -22.671875 C 12.628906 -22.671875 12.125 -22.226562 12.125 -21.34375 L 12.125 -8.90625 C 12.125 -8.019531 12.628906 -7.578125 13.640625 -7.578125 Z M 13.640625 -7.578125 "/></g></g></g><g fill="#3b98d1" fill-opacity="1"><g transform="translate(493.59313, 76.155795)"><g><path d="M 17.765625 -22.671875 L 13.9375 -22.671875 L 13.9375 -8.90625 C 13.9375 -8.019531 14.441406 -7.578125 15.453125 -7.578125 L 17.703125 -7.578125 L 17.703125 0 L 12.546875 0 C 6.609375 0 3.640625 -2.503906 3.640625 -7.515625 L 3.640625 -22.671875 L 0.296875 -22.671875 L 0.296875 -30.25 L 3.640625 -30.25 L 3.640625 -36.1875 L 13.9375 -36.1875 L 13.9375 -30.25 L 17.765625 -30.25 Z M 17.765625 -22.671875 "/></g></g></g><g fill="#3b98d1" fill-opacity="1"><g transform="translate(511.962999, 76.155795)"><g><path d="M 2.25 -33.28125 L 2.25 -40.5625 L 12.90625 -40.5625 L 12.90625 -33.28125 Z M 12.734375 0 L 2.421875 0 L 2.421875 -30.25 L 12.734375 -30.25 Z M 12.734375 0 "/></g></g></g><g fill="#3b98d1" fill-opacity="1"><g transform="translate(527.119665, 76.155795)"><g><path d="M 10.734375 -30.25 L 18.4375 -30.25 C 21.5 -30.25 23.695312 -29.601562 25.03125 -28.3125 C 26.363281 -27.019531 27.03125 -25.160156 27.03125 -22.734375 L 27.03125 -7.515625 C 27.03125 -5.085938 26.363281 -3.226562 25.03125 -1.9375 C 23.695312 -0.644531 21.5 0 18.4375 0 L 10.734375 0 C 7.660156 0 5.457031 -0.644531 4.125 -1.9375 C 2.789062 -3.226562 2.125 -5.085938 2.125 -7.515625 L 2.125 -22.734375 C 2.125 -25.160156 2.789062 -27.019531 4.125 -28.3125 C 5.457031 -29.601562 7.660156 -30.25 10.734375 -30.25 Z M 16.921875 -8.484375 L 16.921875 -21.765625 C 16.921875 -22.648438 16.414062 -23.09375 15.40625 -23.09375 L 13.765625 -23.09375 C 12.753906 -23.09375 12.25 -22.648438 12.25 -21.765625 L 12.25 -8.484375 C 12.25 -7.597656 12.753906 -7.15625 13.765625 -7.15625 L 15.40625 -7.15625 C 16.414062 -7.15625 16.921875 -7.597656 16.921875 -8.484375 Z M 16.921875 -8.484375 "/></g></g></g><g fill="#3b98d1" fill-opacity="1"><g transform="translate(556.281068, 76.155795)"><g><path d="M 18.0625 -30.25 L 19.15625 -30.25 C 24.53125 -30.25 27.21875 -27.742188 27.21875 -22.734375 L 27.21875 0 L 16.921875 0 L 16.921875 -21.34375 C 16.921875 -22.226562 16.414062 -22.671875 15.40625 -22.671875 L 14.375 -22.671875 C 13.28125 -22.671875 12.734375 -22.066406 12.734375 -20.859375 L 12.734375 0 L 2.421875 0 L 2.421875 -30.25 L 12.546875 -30.25 L 12.546875 -26.375 C 13.109375 -28.957031 14.945312 -30.25 18.0625 -30.25 Z M 18.0625 -30.25 "/></g></g></g><path fill="#4da3df" d="M 37.609375 56.117188 C 35.144531 53.144531 34.253906 50.820312 35.632812 47.488281 C 37.160156 43.804688 41.222656 41.988281 44.703125 43.4375 C 51.019531 46.046875 54.566406 55.332031 58.113281 64.613281 C 49.042969 68.660156 39.972656 72.71875 33.660156 70.101562 C 30.175781 68.65625 28.582031 64.496094 30.109375 60.824219 C 31.496094 57.488281 33.765625 56.476562 37.609375 56.117188 Z M 37.609375 56.117188 " fill-opacity="1" fill-rule="evenodd"/><path fill="#df1173" d="M 33.035156 23.605469 C 32.230469 20.996094 32.277344 19.234375 34.082031 17.433594 C 36.074219 15.4375 39.222656 15.351562 41.109375 17.238281 C 44.53125 20.660156 44.335938 27.683594 44.140625 34.714844 C 37.113281 34.90625 30.082031 35.101562 26.667969 31.679688 C 24.78125 29.792969 24.867188 26.644531 26.863281 24.652344 C 28.671875 22.851562 30.425781 22.804688 33.035156 23.605469 Z M 33.035156 23.605469 " fill-opacity="1" fill-rule="evenodd"/><path fill="#f1ba1a" d="M 15.449219 43.824219 C 13.703125 41.722656 13.078125 40.074219 14.054688 37.71875 C 15.132812 35.113281 18.011719 33.828125 20.476562 34.855469 C 24.941406 36.703125 27.453125 43.269531 29.960938 49.835938 C 23.542969 52.703125 17.121094 55.574219 12.65625 53.71875 C 10.191406 52.695312 9.070312 49.757812 10.144531 47.152344 C 11.125 44.796875 12.730469 44.078125 15.449219 43.824219 Z M 15.449219 43.824219 " fill-opacity="1" fill-rule="evenodd"/><path fill="#f1ba1a" d="M 55.832031 10.78125 C 56.085938 8.0625 56.800781 6.453125 59.160156 5.476562 C 61.761719 4.398438 64.703125 5.523438 65.726562 7.988281 C 67.574219 12.453125 64.707031 18.875 61.84375 25.292969 C 55.277344 22.78125 48.707031 20.273438 46.859375 15.808594 C 45.835938 13.34375 47.121094 10.464844 49.726562 9.386719 C 52.089844 8.410156 53.730469 9.039062 55.832031 10.78125 Z M 55.832031 10.78125 " fill-opacity="1" fill-rule="evenodd"/><g clip-path="url(#1b542ba70e)"><path fill="#ff000a" d="M 11.558594 71.828125 C 9.8125 73.929688 9.1875 75.578125 10.167969 77.933594 C 11.246094 80.539062 14.125 81.824219 16.585938 80.800781 C 21.050781 78.953125 23.5625 72.382812 26.074219 65.816406 C 19.652344 62.953125 13.234375 60.078125 8.765625 61.933594 C 6.304688 62.953125 5.179688 65.890625 6.257812 68.496094 C 7.234375 70.851562 8.839844 71.574219 11.558594 71.828125 Z M 11.558594 71.828125 " fill-opacity="1" fill-rule="evenodd"/></g><path fill="#4da3df" d="M 24.339844 96.378906 C 22.3125 98.820312 21.582031 100.730469 22.71875 103.472656 C 23.972656 106.5 27.320312 107.992188 30.183594 106.808594 C 35.371094 104.660156 38.296875 97.019531 41.214844 89.390625 C 33.753906 86.054688 26.289062 82.722656 21.097656 84.871094 C 18.234375 86.054688 16.929688 89.476562 18.179688 92.5 C 19.3125 95.246094 21.171875 96.082031 24.339844 96.378906 Z M 24.339844 96.378906 " fill-opacity="1" fill-rule="evenodd"/><path fill="#ff000a" d="M 68.542969 37.492188 C 70.34375 34.078125 72.152344 32.371094 75.761719 32.371094 C 79.746094 32.371094 82.976562 35.429688 82.976562 39.199219 C 82.976562 46.027344 75.761719 52.863281 68.542969 59.691406 C 61.328125 52.863281 54.109375 46.027344 54.109375 39.199219 C 54.109375 35.429688 57.34375 32.371094 61.328125 32.371094 C 64.9375 32.371094 66.738281 34.078125 68.542969 37.492188 Z M 68.542969 37.492188 " fill-opacity="1" fill-rule="evenodd"/><path fill="#df1173" d="M 99.472656 56.117188 C 101.9375 53.144531 102.828125 50.820312 101.449219 47.488281 C 99.921875 43.804688 95.859375 41.988281 92.378906 43.4375 C 86.066406 46.046875 82.515625 55.332031 78.96875 64.613281 C 88.039062 68.660156 97.109375 72.71875 103.425781 70.101562 C 106.90625 68.65625 108.5 64.496094 106.972656 60.824219 C 105.59375 57.488281 103.324219 56.476562 99.472656 56.117188 Z M 99.472656 56.117188 " fill-opacity="1" fill-rule="evenodd"/><path fill="#f1ba1a" d="M 104.046875 23.605469 C 104.855469 20.996094 104.804688 19.234375 103.003906 17.433594 C 101.007812 15.4375 97.859375 15.351562 95.972656 17.238281 C 92.558594 20.660156 92.746094 27.683594 92.941406 34.714844 C 99.96875 34.90625 107 35.101562 110.414062 31.679688 C 112.300781 29.792969 112.214844 26.644531 110.21875 24.652344 C 108.417969 22.851562 106.65625 22.804688 104.046875 23.605469 Z M 104.046875 23.605469 " fill-opacity="1" fill-rule="evenodd"/><path fill="#ff000a" d="M 121.632812 43.824219 C 123.382812 41.722656 124.003906 40.074219 123.027344 37.71875 C 121.949219 35.113281 119.070312 33.828125 116.605469 34.855469 C 112.140625 36.703125 109.628906 43.269531 107.121094 49.835938 C 113.539062 52.703125 119.960938 55.574219 124.425781 53.71875 C 126.890625 52.695312 128.015625 49.757812 126.9375 47.152344 C 125.957031 44.796875 124.359375 44.078125 121.632812 43.824219 Z M 121.632812 43.824219 " fill-opacity="1" fill-rule="evenodd"/><path fill="#4da3df" d="M 81.25 10.78125 C 80.996094 8.0625 80.28125 6.453125 77.925781 5.476562 C 75.320312 4.398438 72.378906 5.523438 71.355469 7.988281 C 69.507812 12.453125 72.375 18.875 75.238281 25.292969 C 81.808594 22.78125 88.375 20.273438 90.222656 15.808594 C 91.246094 13.34375 89.960938 10.464844 87.355469 9.386719 C 85 8.410156 83.351562 9.039062 81.25 10.78125 Z M 81.25 10.78125 " fill-opacity="1" fill-rule="evenodd"/><path fill="#4da3df" d="M 125.523438 71.828125 C 127.269531 73.929688 127.894531 75.578125 126.914062 77.933594 C 125.839844 80.539062 122.960938 81.824219 120.496094 80.800781 C 116.03125 78.953125 113.519531 72.382812 111.003906 65.816406 C 117.421875 62.953125 123.84375 60.078125 128.308594 61.933594 C 130.773438 62.957031 131.898438 65.898438 130.820312 68.5 C 129.847656 70.851562 128.25 71.574219 125.523438 71.828125 Z M 125.523438 71.828125 " fill-opacity="1" fill-rule="evenodd"/><path fill="#f1ba1a" d="M 112.742188 96.378906 C 114.773438 98.820312 115.5 100.730469 114.363281 103.472656 C 113.109375 106.5 109.765625 107.992188 106.898438 106.808594 C 101.703125 104.660156 98.785156 97.019531 95.867188 89.390625 C 103.332031 86.054688 110.792969 82.722656 115.984375 84.871094 C 118.847656 86.054688 120.152344 89.476562 118.902344 92.5 C 117.777344 95.246094 115.910156 96.082031 112.742188 96.378906 Z M 112.742188 96.378906 " fill-opacity="1" fill-rule="evenodd"/><g clip-path="url(#0fc8aa2103)"><path fill="#b58247" d="M 31.75 138.964844 L 105.332031 138.964844 C 97.792969 136.8125 85.878906 135.347656 72.261719 135.121094 C 69.734375 109.648438 89.820312 95.863281 95.871094 80.257812 C 77.554688 100.609375 59.527344 100.609375 41.210938 80.257812 C 47.261719 95.863281 67.210938 109.742188 64.800781 135.121094 C 51.199219 135.347656 39.289062 136.8125 31.75 138.964844 Z M 31.75 138.964844 " fill-opacity="1" fill-rule="evenodd"/></g><path fill="#b58247" d="M 68.542969 92.09375 C 74.375 92.09375 79.128906 87.339844 79.128906 81.507812 C 79.128906 75.679688 74.375 70.925781 68.542969 70.925781 C 62.714844 70.925781 57.960938 75.679688 57.960938 81.507812 C 57.960938 87.339844 62.714844 92.09375 68.542969 92.09375 Z M 68.542969 92.09375 " fill-opacity="1" fill-rule="evenodd"/></svg>