<svg xmlns="http://www.w3.org/2000/svg" xmlns:xlink="http://www.w3.org/1999/xlink" width="500" zoomAndPan="magnify" viewBox="0 0 375 374.999991" height="500" preserveAspectRatio="xMidYMid meet" version="1.0"><defs><clipPath id="6d8f8ac9f5"><path d="M 97 74.515625 L 305.464844 74.515625 L 305.464844 283.015625 L 97 283.015625 Z M 97 74.515625 " clip-rule="nonzero"/></clipPath></defs><g clip-path="url(#6d8f8ac9f5)"><path fill="#000000" d="M 302.746094 96.980469 L 287.578125 96.980469 C 287.574219 95.75 287.105469 94.527344 286.167969 93.589844 C 285.261719 92.683594 284.085938 92.226562 282.898438 92.191406 L 282.898438 77.136719 C 282.898438 76.164062 282.316406 75.285156 281.414062 74.910156 C 280.523438 74.539062 279.480469 74.734375 278.792969 75.421875 L 262.425781 91.617188 C 261.96875 92.070312 261.707031 92.691406 261.710938 93.335938 L 261.75 111.191406 L 254.28125 118.664062 C 237.582031 103.660156 215.519531 94.511719 191.355469 94.511719 C 139.386719 94.511719 97.105469 136.792969 97.105469 188.761719 C 97.105469 240.734375 139.386719 283.015625 191.355469 283.015625 C 243.328125 283.015625 285.609375 240.734375 285.609375 188.761719 C 285.609375 164.417969 276.332031 142.203125 261.125 125.457031 L 268.59375 117.992188 L 286.433594 117.953125 C 287.066406 117.953125 287.671875 117.703125 288.125 117.257812 L 304.441406 101.105469 C 305.136719 100.417969 305.347656 99.378906 304.976562 98.472656 C 304.601562 97.570312 303.722656 96.980469 302.746094 96.980469 Z M 268.726562 188.761719 C 268.726562 231.425781 234.019531 266.132812 191.355469 266.132812 C 148.695312 266.132812 113.988281 231.425781 113.988281 188.761719 C 113.988281 146.101562 148.695312 111.394531 191.355469 111.394531 C 210.867188 111.394531 228.695312 118.667969 242.320312 130.625 L 227.796875 145.148438 C 217.921875 136.882812 205.210938 131.898438 191.355469 131.898438 C 160.003906 131.898438 134.492188 157.40625 134.492188 188.761719 C 134.492188 220.117188 160.003906 245.628906 191.355469 245.628906 C 222.710938 245.628906 248.222656 220.117188 248.222656 188.761719 C 248.222656 174.730469 243.101562 161.875 234.644531 151.945312 L 249.167969 137.421875 C 261.324219 151.089844 268.726562 169.074219 268.726562 188.761719 Z M 191.355469 210.652344 C 203.425781 210.652344 213.246094 200.832031 213.246094 188.761719 C 213.246094 184.382812 211.941406 180.308594 209.714844 176.882812 L 224.367188 162.226562 C 230.222656 169.5 233.75 178.722656 233.75 188.761719 C 233.75 212.136719 214.734375 231.15625 191.355469 231.15625 C 167.980469 231.15625 148.964844 212.136719 148.964844 188.761719 C 148.964844 165.386719 167.980469 146.371094 191.355469 146.371094 C 201.21875 146.371094 210.285156 149.785156 217.496094 155.457031 L 202.808594 170.144531 C 199.472656 168.085938 195.558594 166.875 191.359375 166.875 C 179.289062 166.875 169.46875 176.695312 169.46875 188.761719 C 169.46875 200.832031 179.289062 210.652344 191.355469 210.652344 Z M 191.355469 210.652344 " fill-opacity="1" fill-rule="nonzero"/></g></svg>