<svg xmlns="http://www.w3.org/2000/svg" xmlns:xlink="http://www.w3.org/1999/xlink" width="500" zoomAndPan="magnify" viewBox="0 0 375 374.999991" height="500" preserveAspectRatio="xMidYMid meet" version="1.0"><defs><clipPath id="bf6e8ad5ee"><path d="M 111 194 L 264 194 L 264 315.75 L 111 315.75 Z M 111 194 " clip-rule="nonzero"/></clipPath></defs><path fill="#4da3df" d="M 123.640625 144.339844 C 118.550781 138.203125 116.714844 133.40625 119.5625 126.523438 C 122.714844 118.921875 131.105469 115.175781 138.292969 118.160156 C 151.324219 123.550781 158.652344 142.722656 165.976562 161.882812 C 147.25 170.246094 128.519531 178.621094 115.484375 173.214844 C 108.296875 170.230469 105.007812 161.648438 108.15625 154.058594 C 111.019531 147.175781 115.707031 145.085938 123.640625 144.339844 Z M 123.640625 144.339844 " fill-opacity="1" fill-rule="evenodd"/><path fill="#df1173" d="M 114.199219 77.21875 C 112.539062 71.828125 112.636719 68.191406 116.355469 64.472656 C 120.472656 60.355469 126.96875 60.175781 130.867188 64.074219 C 137.933594 71.136719 137.53125 85.636719 137.128906 100.152344 C 122.617188 100.550781 108.101562 100.953125 101.054688 93.890625 C 97.15625 89.992188 97.335938 83.496094 101.453125 79.375 C 105.1875 75.65625 108.808594 75.558594 114.199219 77.21875 Z M 114.199219 77.21875 " fill-opacity="1" fill-rule="evenodd"/><path fill="#f1ba1a" d="M 77.886719 118.964844 C 74.277344 114.621094 72.992188 111.222656 75.011719 106.355469 C 77.238281 100.980469 83.179688 98.324219 88.265625 100.441406 C 97.488281 104.253906 102.671875 117.816406 107.855469 131.375 C 94.597656 137.292969 81.34375 143.222656 72.121094 139.394531 C 67.035156 137.277344 64.714844 131.210938 66.9375 125.832031 C 68.957031 120.96875 72.273438 119.488281 77.886719 118.964844 Z M 77.886719 118.964844 " fill-opacity="1" fill-rule="evenodd"/><path fill="#f1ba1a" d="M 161.265625 50.734375 C 161.789062 45.121094 163.269531 41.804688 168.132812 39.789062 C 173.511719 37.5625 179.578125 39.882812 181.695312 44.972656 C 185.507812 54.191406 179.59375 67.445312 173.675781 80.703125 C 160.117188 75.519531 146.558594 70.335938 142.742188 61.117188 C 140.628906 56.027344 143.28125 50.085938 148.65625 47.859375 C 153.539062 45.84375 156.925781 47.140625 161.265625 50.734375 Z M 161.265625 50.734375 " fill-opacity="1" fill-rule="evenodd"/><path fill="#ff000a" d="M 69.855469 176.78125 C 66.25 181.121094 64.960938 184.523438 66.980469 189.390625 C 69.207031 194.765625 75.148438 197.417969 80.238281 195.304688 C 89.457031 191.488281 94.640625 177.929688 99.824219 164.371094 C 86.566406 158.453125 73.3125 152.523438 64.09375 156.351562 C 59.003906 158.453125 56.683594 164.523438 58.910156 169.898438 C 60.925781 174.765625 64.242188 176.257812 69.855469 176.78125 Z M 69.855469 176.78125 " fill-opacity="1" fill-rule="evenodd"/><path fill="#4da3df" d="M 96.242188 227.46875 C 92.054688 232.515625 90.546875 236.453125 92.898438 242.121094 C 95.484375 248.371094 102.394531 251.453125 108.308594 249.003906 C 119.023438 244.566406 125.0625 228.796875 131.089844 213.039062 C 115.675781 206.15625 100.265625 199.273438 89.554688 203.707031 C 83.636719 206.15625 80.941406 213.21875 83.527344 219.464844 C 85.863281 225.132812 89.703125 226.863281 96.242188 227.46875 Z M 96.242188 227.46875 " fill-opacity="1" fill-rule="evenodd"/><path fill="#ff000a" d="M 187.511719 105.886719 C 191.230469 98.835938 194.964844 95.3125 202.414062 95.3125 C 210.636719 95.3125 217.316406 101.628906 217.316406 109.410156 C 217.316406 123.511719 202.414062 137.625 187.511719 151.722656 C 172.613281 137.625 157.710938 123.511719 157.710938 109.410156 C 157.710938 101.628906 164.386719 95.3125 172.613281 95.3125 C 180.0625 95.3125 183.78125 98.835938 187.511719 105.886719 Z M 187.511719 105.886719 " fill-opacity="1" fill-rule="evenodd"/><path fill="#df1173" d="M 251.375 144.339844 C 256.460938 138.203125 258.296875 133.40625 255.449219 126.523438 C 252.300781 118.921875 243.910156 115.175781 236.722656 118.160156 C 223.6875 123.550781 216.359375 142.722656 209.035156 161.882812 C 227.765625 170.246094 246.492188 178.621094 259.527344 173.214844 C 266.714844 170.230469 270.007812 161.648438 266.855469 154.058594 C 264.007812 147.175781 259.320312 145.085938 251.375 144.339844 Z M 251.375 144.339844 " fill-opacity="1" fill-rule="evenodd"/><path fill="#f1ba1a" d="M 260.8125 77.21875 C 262.488281 71.828125 262.375 68.191406 258.65625 64.472656 C 254.539062 60.355469 248.042969 60.175781 244.144531 64.074219 C 237.09375 71.136719 237.480469 85.636719 237.882812 100.152344 C 252.394531 100.550781 266.910156 100.953125 273.960938 93.890625 C 277.855469 89.992188 277.675781 83.496094 273.558594 79.375 C 269.839844 75.65625 266.203125 75.558594 260.8125 77.21875 Z M 260.8125 77.21875 " fill-opacity="1" fill-rule="evenodd"/><path fill="#ff000a" d="M 297.125 118.964844 C 300.734375 114.621094 302.019531 111.222656 300 106.355469 C 297.777344 100.980469 291.832031 98.324219 286.746094 100.441406 C 277.527344 104.253906 272.34375 117.816406 267.160156 131.375 C 280.414062 137.292969 293.671875 143.222656 302.890625 139.394531 C 307.976562 137.277344 310.296875 131.210938 308.074219 125.832031 C 306.054688 120.96875 302.75 119.488281 297.125 118.964844 Z M 297.125 118.964844 " fill-opacity="1" fill-rule="evenodd"/><path fill="#4da3df" d="M 213.75 50.734375 C 213.222656 45.121094 211.746094 41.804688 206.878906 39.789062 C 201.5 37.5625 195.433594 39.882812 193.320312 44.972656 C 189.503906 54.191406 195.417969 67.445312 201.335938 80.703125 C 214.894531 75.519531 228.457031 70.335938 232.269531 61.117188 C 234.386719 56.027344 231.730469 50.085938 226.355469 47.859375 C 221.488281 45.84375 218.089844 47.140625 213.75 50.734375 Z M 213.75 50.734375 " fill-opacity="1" fill-rule="evenodd"/><path fill="#4da3df" d="M 305.15625 176.78125 C 308.765625 181.121094 310.050781 184.523438 308.03125 189.390625 C 305.804688 194.765625 299.863281 197.417969 294.777344 195.304688 C 285.554688 191.488281 280.371094 177.929688 275.175781 164.371094 C 288.429688 158.453125 301.6875 152.523438 310.90625 156.351562 C 315.992188 158.46875 318.316406 164.535156 316.089844 169.914062 C 314.085938 174.765625 310.78125 176.257812 305.15625 176.78125 Z M 305.15625 176.78125 " fill-opacity="1" fill-rule="evenodd"/><path fill="#f1ba1a" d="M 278.769531 227.46875 C 282.957031 232.515625 284.464844 236.453125 282.113281 242.121094 C 279.53125 248.371094 272.617188 251.453125 266.703125 249.003906 C 255.976562 244.566406 249.949219 228.796875 243.921875 213.039062 C 259.335938 206.15625 274.746094 199.273438 285.460938 203.707031 C 291.375 206.15625 294.070312 213.21875 291.484375 219.464844 C 289.164062 225.132812 285.308594 226.863281 278.769531 227.46875 Z M 278.769531 227.46875 " fill-opacity="1" fill-rule="evenodd"/><g clip-path="url(#bf6e8ad5ee)"><path fill="#b58247" d="M 111.542969 315.394531 L 263.46875 315.394531 C 247.902344 310.957031 223.300781 307.929688 195.183594 307.460938 C 189.972656 254.867188 231.441406 226.40625 243.9375 194.183594 C 206.117188 236.207031 168.894531 236.207031 131.074219 194.183594 C 143.570312 226.40625 184.761719 255.058594 179.785156 307.460938 C 151.699219 307.929688 127.109375 310.957031 111.542969 315.394531 Z M 111.542969 315.394531 " fill-opacity="1" fill-rule="evenodd"/></g><path fill="#b58247" d="M 187.511719 218.625 C 199.550781 218.625 209.367188 208.808594 209.367188 196.769531 C 209.367188 184.730469 199.550781 174.917969 187.511719 174.917969 C 175.472656 174.917969 165.660156 184.730469 165.660156 196.769531 C 165.660156 208.808594 175.472656 218.625 187.511719 218.625 Z M 187.511719 218.625 " fill-opacity="1" fill-rule="evenodd"/></svg>